%TF.GenerationSoftware,KiCad,Pcbnew,(6.0.7-1)-1*%
%TF.CreationDate,2022-08-22T03:12:19+03:00*%
%TF.ProjectId,Planck Drop In PCB,506c616e-636b-4204-9472-6f7020496e20,rev?*%
%TF.SameCoordinates,Original*%
%TF.FileFunction,Soldermask,Bot*%
%TF.FilePolarity,Negative*%
%FSLAX46Y46*%
G04 Gerber Fmt 4.6, Leading zero omitted, Abs format (unit mm)*
G04 Created by KiCad (PCBNEW (6.0.7-1)-1) date 2022-08-22 03:12:19*
%MOMM*%
%LPD*%
G01*
G04 APERTURE LIST*
G04 Aperture macros list*
%AMRoundRect*
0 Rectangle with rounded corners*
0 $1 Rounding radius*
0 $2 $3 $4 $5 $6 $7 $8 $9 X,Y pos of 4 corners*
0 Add a 4 corners polygon primitive as box body*
4,1,4,$2,$3,$4,$5,$6,$7,$8,$9,$2,$3,0*
0 Add four circle primitives for the rounded corners*
1,1,$1+$1,$2,$3*
1,1,$1+$1,$4,$5*
1,1,$1+$1,$6,$7*
1,1,$1+$1,$8,$9*
0 Add four rect primitives between the rounded corners*
20,1,$1+$1,$2,$3,$4,$5,0*
20,1,$1+$1,$4,$5,$6,$7,0*
20,1,$1+$1,$6,$7,$8,$9,0*
20,1,$1+$1,$8,$9,$2,$3,0*%
G04 Aperture macros list end*
%ADD10C,1.750000*%
%ADD11C,3.987800*%
%ADD12C,2.250000*%
%ADD13C,3.048000*%
%ADD14R,2.000000X2.000000*%
%ADD15C,2.000000*%
%ADD16R,2.000000X3.200000*%
%ADD17RoundRect,0.140000X0.140000X0.170000X-0.140000X0.170000X-0.140000X-0.170000X0.140000X-0.170000X0*%
%ADD18R,1.200000X0.900000*%
%ADD19RoundRect,0.175000X-0.175000X-0.175000X0.175000X-0.175000X0.175000X0.175000X-0.175000X0.175000X0*%
%ADD20R,0.700000X0.700000*%
%ADD21RoundRect,0.140000X0.170000X-0.140000X0.170000X0.140000X-0.170000X0.140000X-0.170000X-0.140000X0*%
%ADD22RoundRect,0.175000X0.175000X0.175000X-0.175000X0.175000X-0.175000X-0.175000X0.175000X-0.175000X0*%
%ADD23RoundRect,0.135000X-0.135000X-0.185000X0.135000X-0.185000X0.135000X0.185000X-0.135000X0.185000X0*%
%ADD24RoundRect,0.140000X-0.140000X-0.170000X0.140000X-0.170000X0.140000X0.170000X-0.140000X0.170000X0*%
%ADD25RoundRect,0.140000X-0.170000X0.140000X-0.170000X-0.140000X0.170000X-0.140000X0.170000X0.140000X0*%
%ADD26RoundRect,0.135000X0.135000X0.185000X-0.135000X0.185000X-0.135000X-0.185000X0.135000X-0.185000X0*%
%ADD27RoundRect,0.150000X-0.150000X0.650000X-0.150000X-0.650000X0.150000X-0.650000X0.150000X0.650000X0*%
%ADD28R,0.700000X1.000000*%
%ADD29R,0.700000X0.600000*%
%ADD30RoundRect,0.135000X-0.185000X0.135000X-0.185000X-0.135000X0.185000X-0.135000X0.185000X0.135000X0*%
%ADD31C,0.750000*%
%ADD32RoundRect,0.050000X-0.300000X-0.725000X0.300000X-0.725000X0.300000X0.725000X-0.300000X0.725000X0*%
%ADD33RoundRect,0.050000X-0.150000X-0.725000X0.150000X-0.725000X0.150000X0.725000X-0.150000X0.725000X0*%
%ADD34O,1.100000X1.700000*%
%ADD35O,1.100000X2.200000*%
%ADD36RoundRect,0.150000X0.150000X-0.587500X0.150000X0.587500X-0.150000X0.587500X-0.150000X-0.587500X0*%
%ADD37RoundRect,0.135000X0.185000X-0.135000X0.185000X0.135000X-0.185000X0.135000X-0.185000X-0.135000X0*%
%ADD38R,1.000000X1.700000*%
%ADD39R,0.400000X1.900000*%
%ADD40RoundRect,0.050000X0.387500X0.050000X-0.387500X0.050000X-0.387500X-0.050000X0.387500X-0.050000X0*%
%ADD41RoundRect,0.050000X0.050000X0.387500X-0.050000X0.387500X-0.050000X-0.387500X0.050000X-0.387500X0*%
%ADD42RoundRect,0.144000X1.456000X1.456000X-1.456000X1.456000X-1.456000X-1.456000X1.456000X-1.456000X0*%
%ADD43RoundRect,0.150000X-0.512500X-0.150000X0.512500X-0.150000X0.512500X0.150000X-0.512500X0.150000X0*%
%ADD44RoundRect,0.243750X-0.456250X0.243750X-0.456250X-0.243750X0.456250X-0.243750X0.456250X0.243750X0*%
%ADD45C,0.800000*%
%ADD46C,0.600000*%
G04 APERTURE END LIST*
D10*
%TO.C,MX36*%
X173045075Y-64125027D03*
X183205075Y-64125027D03*
D11*
X178125075Y-64125027D03*
D12*
X174315075Y-61585027D03*
X180665075Y-59045027D03*
%TD*%
D13*
%TO.C,MX35*%
X180531321Y-128110051D03*
D10*
X163545071Y-121125051D03*
D11*
X180531321Y-112870051D03*
X156718821Y-112870051D03*
X168625071Y-121125051D03*
D10*
X173705071Y-121125051D03*
D13*
X156718821Y-128110051D03*
D12*
X164815071Y-118585051D03*
X171165071Y-116045051D03*
%TD*%
D10*
%TO.C,MX9*%
X69205027Y-121125051D03*
X59045027Y-121125051D03*
D11*
X64125027Y-121125051D03*
D12*
X60315027Y-118585051D03*
X66665027Y-116045051D03*
%TD*%
D10*
%TO.C,MX49*%
X240205099Y-64125027D03*
D11*
X235125099Y-64125027D03*
D10*
X230045099Y-64125027D03*
D12*
X231315099Y-61585027D03*
X237665099Y-59045027D03*
%TD*%
D10*
%TO.C,MX42*%
X202205083Y-83125035D03*
X192045083Y-83125035D03*
D11*
X197125083Y-83125035D03*
D12*
X193315083Y-80585035D03*
X199665083Y-78045035D03*
%TD*%
D11*
%TO.C,MX52*%
X235125099Y-121125051D03*
D10*
X240205099Y-121125051D03*
X230045099Y-121125051D03*
D12*
X231315099Y-118585051D03*
X237665099Y-116045051D03*
%TD*%
D13*
%TO.C,MX30*%
X137718813Y-128110051D03*
D10*
X154705063Y-121125051D03*
D11*
X137718813Y-112870051D03*
D13*
X161531313Y-128110051D03*
D10*
X144545063Y-121125051D03*
D11*
X149625063Y-121125051D03*
X161531313Y-112870051D03*
D12*
X145815063Y-118585051D03*
X152165063Y-116045051D03*
%TD*%
D10*
%TO.C,MX21*%
X116045051Y-83125035D03*
D11*
X121125051Y-83125035D03*
D10*
X126205051Y-83125035D03*
D12*
X117315051Y-80585035D03*
X123665051Y-78045035D03*
%TD*%
D11*
%TO.C,MX53*%
X225625095Y-121125051D03*
D10*
X230705095Y-121125051D03*
X220545095Y-121125051D03*
D12*
X221815095Y-118585051D03*
X228165095Y-116045051D03*
%TD*%
D11*
%TO.C,MX4*%
X45125019Y-121125051D03*
D10*
X50205019Y-121125051D03*
X40045019Y-121125051D03*
D12*
X41315019Y-118585051D03*
X47665019Y-116045051D03*
%TD*%
D10*
%TO.C,MX44*%
X196795085Y-121125051D03*
D11*
X201875085Y-121125051D03*
D10*
X206955085Y-121125051D03*
D12*
X198065085Y-118585051D03*
X204415085Y-116045051D03*
%TD*%
D10*
%TO.C,MX34*%
X154045067Y-121125051D03*
X164205067Y-121125051D03*
D11*
X159125067Y-121125051D03*
D12*
X155315067Y-118585051D03*
X161665067Y-116045051D03*
%TD*%
D10*
%TO.C,MX32*%
X154045067Y-83125035D03*
D11*
X159125067Y-83125035D03*
D10*
X164205067Y-83125035D03*
D12*
X155315067Y-80585035D03*
X161665067Y-78045035D03*
%TD*%
D10*
%TO.C,MX19*%
X92295041Y-121125051D03*
D11*
X97375041Y-121125051D03*
D10*
X102455041Y-121125051D03*
D12*
X93565041Y-118585051D03*
X99915041Y-116045051D03*
%TD*%
D10*
%TO.C,MX38*%
X173045075Y-102125043D03*
X183205075Y-102125043D03*
D11*
X178125075Y-102125043D03*
D12*
X174315075Y-99585043D03*
X180665075Y-97045043D03*
%TD*%
D10*
%TO.C,MX5*%
X44795021Y-121125051D03*
D11*
X49875021Y-121125051D03*
D10*
X54955021Y-121125051D03*
D12*
X46065021Y-118585051D03*
X52415021Y-116045051D03*
%TD*%
D10*
%TO.C,MX2*%
X40045019Y-83125027D03*
D11*
X45125019Y-83125027D03*
D10*
X50205019Y-83125027D03*
D12*
X41315019Y-80585027D03*
X47665019Y-78045027D03*
%TD*%
D10*
%TO.C,MX7*%
X59045027Y-83125035D03*
X69205027Y-83125035D03*
D11*
X64125027Y-83125035D03*
D12*
X60315027Y-80585035D03*
X66665027Y-78045035D03*
%TD*%
D11*
%TO.C,MX48*%
X216125091Y-121125051D03*
D10*
X211045091Y-121125051D03*
X221205091Y-121125051D03*
D12*
X212315091Y-118585051D03*
X218665091Y-116045051D03*
%TD*%
D11*
%TO.C,MX43*%
X197125083Y-102125043D03*
D10*
X192045083Y-102125043D03*
X202205083Y-102125043D03*
D12*
X193315083Y-99585043D03*
X199665083Y-97045043D03*
%TD*%
D14*
%TO.C,SW4*%
X251625107Y-128633333D03*
D15*
X256625107Y-128633333D03*
X254125107Y-128633333D03*
D16*
X248525107Y-121133333D03*
X259725107Y-121133333D03*
D15*
X256625107Y-114133333D03*
X251625107Y-114133333D03*
%TD*%
D11*
%TO.C,MX3*%
X45125019Y-102125043D03*
D10*
X50205019Y-102125043D03*
X40045019Y-102125043D03*
D12*
X41315019Y-99585043D03*
X47665019Y-97045043D03*
%TD*%
D10*
%TO.C,MX10*%
X68545031Y-121125051D03*
D11*
X73625031Y-121125051D03*
D10*
X78705031Y-121125051D03*
D12*
X69815031Y-118585051D03*
X76165031Y-116045051D03*
%TD*%
D14*
%TO.C,SW1*%
X42625019Y-71658333D03*
D15*
X47625019Y-71658333D03*
X45125019Y-71658333D03*
D16*
X39525019Y-64158333D03*
X50725019Y-64158333D03*
D15*
X47625019Y-57158333D03*
X42625019Y-57158333D03*
%TD*%
D11*
%TO.C,MX13*%
X83125035Y-83125035D03*
D10*
X78045035Y-83125035D03*
X88205035Y-83125035D03*
D12*
X79315035Y-80585035D03*
X85665035Y-78045035D03*
%TD*%
D11*
%TO.C,MX16*%
X102125043Y-64125027D03*
D10*
X97045043Y-64125027D03*
X107205043Y-64125027D03*
D12*
X98315043Y-61585027D03*
X104665043Y-59045027D03*
%TD*%
D10*
%TO.C,MX11*%
X73295033Y-121125051D03*
X83455033Y-121125051D03*
D11*
X78375033Y-121125051D03*
D12*
X74565033Y-118585051D03*
X80915033Y-116045051D03*
%TD*%
D10*
%TO.C,MX24*%
X116045051Y-121125051D03*
X126205051Y-121125051D03*
D11*
X140175051Y-112870051D03*
D13*
X102075051Y-128110051D03*
X140175051Y-128110051D03*
D11*
X121125051Y-121125051D03*
X102075051Y-112870051D03*
D12*
X117315051Y-118585051D03*
X123665051Y-116045051D03*
%TD*%
D10*
%TO.C,MX37*%
X183205075Y-83125035D03*
D11*
X178125075Y-83125035D03*
D10*
X173045075Y-83125035D03*
D12*
X174315075Y-80585035D03*
X180665075Y-78045035D03*
%TD*%
D10*
%TO.C,MX6*%
X59045027Y-64125027D03*
D11*
X64125027Y-64125027D03*
D10*
X69205027Y-64125027D03*
D12*
X60315027Y-61585027D03*
X66665027Y-59045027D03*
%TD*%
D10*
%TO.C,MX22*%
X116045051Y-102125043D03*
X126205051Y-102125043D03*
D11*
X121125051Y-102125043D03*
D12*
X117315051Y-99585043D03*
X123665051Y-97045043D03*
%TD*%
D10*
%TO.C,MX19*%
X97045043Y-121125051D03*
X107205043Y-121125051D03*
D11*
X102125043Y-121125051D03*
D12*
X98315043Y-118585051D03*
X104665043Y-116045051D03*
%TD*%
D10*
%TO.C,MX31*%
X164205067Y-64125027D03*
D11*
X159125067Y-64125027D03*
D10*
X154045067Y-64125027D03*
D12*
X155315067Y-61585027D03*
X161665067Y-59045027D03*
%TD*%
D10*
%TO.C,MX25*%
X135045059Y-64125027D03*
D11*
X140125059Y-64125027D03*
D10*
X145205059Y-64125027D03*
D12*
X136315059Y-61585027D03*
X142665059Y-59045027D03*
%TD*%
D10*
%TO.C,MX17*%
X97045043Y-83125035D03*
D11*
X102125043Y-83125035D03*
D10*
X107205043Y-83125035D03*
D12*
X98315043Y-80585035D03*
X104665043Y-78045035D03*
%TD*%
D10*
%TO.C,MX45*%
X221205091Y-64125027D03*
X211045091Y-64125027D03*
D11*
X216125091Y-64125027D03*
D12*
X212315091Y-61585027D03*
X218665091Y-59045027D03*
%TD*%
D11*
%TO.C,MX28*%
X140125059Y-121125051D03*
D10*
X145205059Y-121125051D03*
X135045059Y-121125051D03*
D12*
X136315059Y-118585051D03*
X142665059Y-116045051D03*
%TD*%
D14*
%TO.C,SW3*%
X251625107Y-71608333D03*
D15*
X256625107Y-71608333D03*
X254125107Y-71608333D03*
D16*
X259725107Y-64108333D03*
X248525107Y-64108333D03*
D15*
X256625107Y-57108333D03*
X251625107Y-57108333D03*
%TD*%
D10*
%TO.C,MX15*%
X88205035Y-121125051D03*
X78045035Y-121125051D03*
D11*
X83125035Y-121125051D03*
D12*
X79315035Y-118585051D03*
X85665035Y-116045051D03*
%TD*%
D10*
%TO.C,MX54*%
X225955093Y-121125051D03*
D11*
X220875093Y-121125051D03*
D10*
X215795093Y-121125051D03*
D12*
X217065093Y-118585051D03*
X223415093Y-116045051D03*
%TD*%
D10*
%TO.C,MX59*%
X244295105Y-121125051D03*
X254455105Y-121125051D03*
D11*
X249375105Y-121125051D03*
D12*
X245565105Y-118585051D03*
X251915105Y-116045051D03*
%TD*%
D11*
%TO.C,MX39*%
X178125075Y-121125051D03*
D10*
X183205075Y-121125051D03*
X173045075Y-121125051D03*
D12*
X174315075Y-118585051D03*
X180665075Y-116045051D03*
%TD*%
D13*
%TO.C,MX40*%
X159075075Y-128110051D03*
D11*
X178125075Y-121125051D03*
D13*
X197175075Y-128110051D03*
D10*
X173045075Y-121125051D03*
X183205075Y-121125051D03*
D11*
X197175075Y-112870051D03*
X159075075Y-112870051D03*
D12*
X174315075Y-118585051D03*
X180665075Y-116045051D03*
%TD*%
D10*
%TO.C,MX44*%
X202205083Y-121125051D03*
D11*
X197125083Y-121125051D03*
D10*
X192045083Y-121125051D03*
D12*
X193315083Y-118585051D03*
X199665083Y-116045051D03*
%TD*%
D10*
%TO.C,MX14*%
X88205035Y-102125043D03*
D11*
X83125035Y-102125043D03*
D10*
X78045035Y-102125043D03*
D12*
X79315035Y-99585043D03*
X85665035Y-97045043D03*
%TD*%
D11*
%TO.C,MX51*%
X235125099Y-102125043D03*
D10*
X240205099Y-102125043D03*
X230045099Y-102125043D03*
D12*
X231315099Y-99585043D03*
X237665099Y-97045043D03*
%TD*%
D11*
%TO.C,MX57*%
X254125107Y-102125043D03*
D10*
X249045107Y-102125043D03*
X259205107Y-102125043D03*
D12*
X250315107Y-99585043D03*
X256665107Y-97045043D03*
%TD*%
D10*
%TO.C,MX27*%
X135045059Y-102125043D03*
D11*
X140125059Y-102125043D03*
D10*
X145205059Y-102125043D03*
D12*
X136315059Y-99585043D03*
X142665059Y-97045043D03*
%TD*%
D10*
%TO.C,MX8*%
X59045027Y-102125043D03*
D11*
X64125027Y-102125043D03*
D10*
X69205027Y-102125043D03*
D12*
X60315027Y-99585043D03*
X66665027Y-97045043D03*
%TD*%
D11*
%TO.C,MX56*%
X254125107Y-83125035D03*
D10*
X249045107Y-83125035D03*
X259205107Y-83125035D03*
D12*
X250315107Y-80585035D03*
X256665107Y-78045035D03*
%TD*%
D10*
%TO.C,MX46*%
X211045091Y-83125035D03*
D11*
X216125091Y-83125035D03*
D10*
X221205091Y-83125035D03*
D12*
X212315091Y-80585035D03*
X218665091Y-78045035D03*
%TD*%
D10*
%TO.C,MX18*%
X97045043Y-102125043D03*
D11*
X102125043Y-102125043D03*
D10*
X107205043Y-102125043D03*
D12*
X98315043Y-99585043D03*
X104665043Y-97045043D03*
%TD*%
D10*
%TO.C,MX41*%
X202205083Y-64125027D03*
D11*
X197125083Y-64125027D03*
D10*
X192045083Y-64125027D03*
D12*
X193315083Y-61585027D03*
X199665083Y-59045027D03*
%TD*%
D10*
%TO.C,MX58*%
X249045107Y-121125051D03*
X259205107Y-121125051D03*
D11*
X254125107Y-121125051D03*
D12*
X250315107Y-118585051D03*
X256665107Y-116045051D03*
%TD*%
D10*
%TO.C,MX12*%
X88205035Y-64125027D03*
X78045035Y-64125027D03*
D11*
X83125035Y-64125027D03*
D12*
X79315035Y-61585027D03*
X85665035Y-59045027D03*
%TD*%
D10*
%TO.C,MX47*%
X211045091Y-102125043D03*
X221205091Y-102125043D03*
D11*
X216125091Y-102125043D03*
D12*
X212315091Y-99585043D03*
X218665091Y-97045043D03*
%TD*%
D14*
%TO.C,SW2*%
X42625019Y-128633333D03*
D15*
X47625019Y-128633333D03*
X45125019Y-128633333D03*
D16*
X39525019Y-121133333D03*
X50725019Y-121133333D03*
D15*
X47625019Y-114133333D03*
X42625019Y-114133333D03*
%TD*%
D10*
%TO.C,MX55*%
X259205107Y-64125027D03*
X249045107Y-64125027D03*
D11*
X254125107Y-64125027D03*
D12*
X250315107Y-61585027D03*
X256665107Y-59045027D03*
%TD*%
D11*
%TO.C,MX26*%
X140125059Y-83125035D03*
D10*
X145205059Y-83125035D03*
X135045059Y-83125035D03*
D12*
X136315059Y-80585035D03*
X142665059Y-78045035D03*
%TD*%
D10*
%TO.C,MX20*%
X116045051Y-64125027D03*
X126205051Y-64125027D03*
D11*
X121125051Y-64125027D03*
D12*
X117315051Y-61585027D03*
X123665051Y-59045027D03*
%TD*%
D11*
%TO.C,MX23*%
X121125051Y-121125051D03*
D10*
X116045051Y-121125051D03*
X126205051Y-121125051D03*
D12*
X117315051Y-118585051D03*
X123665051Y-116045051D03*
%TD*%
D11*
%TO.C,MX29*%
X142531305Y-112870051D03*
D13*
X118718805Y-128110051D03*
D10*
X135705055Y-121125051D03*
D11*
X130625055Y-121125051D03*
X118718805Y-112870051D03*
D10*
X125545055Y-121125051D03*
D13*
X142531305Y-128110051D03*
D12*
X126815055Y-118585051D03*
X133165055Y-116045051D03*
%TD*%
D11*
%TO.C,MX50*%
X235125099Y-83125035D03*
D10*
X240205099Y-83125035D03*
X230045099Y-83125035D03*
D12*
X231315099Y-80585035D03*
X237665099Y-78045035D03*
%TD*%
D10*
%TO.C,MX33*%
X164205067Y-102125043D03*
D11*
X159125067Y-102125043D03*
D10*
X154045067Y-102125043D03*
D12*
X155315067Y-99585043D03*
X161665067Y-97045043D03*
%TD*%
D10*
%TO.C,MX1*%
X40045019Y-64125027D03*
D11*
X45125019Y-64125027D03*
D10*
X50205019Y-64125027D03*
D12*
X41315019Y-61585027D03*
X47665019Y-59045027D03*
%TD*%
D17*
%TO.C,C2*%
X69870000Y-75110000D03*
X68910000Y-75110000D03*
%TD*%
D18*
%TO.C,D43*%
X238220000Y-104660000D03*
X238220000Y-101360000D03*
%TD*%
%TO.C,D9*%
X86220000Y-66660000D03*
X86220000Y-63360000D03*
%TD*%
%TO.C,D33*%
X200220000Y-66660000D03*
X200220000Y-63360000D03*
%TD*%
%TO.C,D21*%
X143220000Y-66660000D03*
X143220000Y-63360000D03*
%TD*%
D19*
%TO.C,D56*%
X55535000Y-112600000D03*
D20*
X55535000Y-113700000D03*
X53705000Y-113700000D03*
X53705000Y-112600000D03*
%TD*%
D21*
%TO.C,C6*%
X75840000Y-85110000D03*
X75840000Y-84150000D03*
%TD*%
D17*
%TO.C,C10*%
X69430000Y-88190000D03*
X68470000Y-88190000D03*
%TD*%
D22*
%TO.C,D50*%
X243575000Y-64730000D03*
D20*
X243575000Y-63630000D03*
X245405000Y-63630000D03*
X245405000Y-64730000D03*
%TD*%
D18*
%TO.C,D24*%
X133410000Y-125300000D03*
X133410000Y-122000000D03*
%TD*%
D23*
%TO.C,R2*%
X76510000Y-62530000D03*
X77530000Y-62530000D03*
%TD*%
D18*
%TO.C,D7*%
X67220000Y-104660000D03*
X67220000Y-101360000D03*
%TD*%
D21*
%TO.C,C7*%
X79230000Y-89580000D03*
X79230000Y-88620000D03*
%TD*%
D24*
%TO.C,C11*%
X81590000Y-93160000D03*
X82550000Y-93160000D03*
%TD*%
D22*
%TO.C,D54*%
X53695000Y-64740000D03*
D20*
X53695000Y-63640000D03*
X55525000Y-63640000D03*
X55525000Y-64740000D03*
%TD*%
D18*
%TO.C,D32*%
X181230000Y-123670000D03*
X181230000Y-120370000D03*
%TD*%
D25*
%TO.C,C12*%
X73210000Y-99490000D03*
X73210000Y-100450000D03*
%TD*%
D26*
%TO.C,R1*%
X69930000Y-62360000D03*
X68910000Y-62360000D03*
%TD*%
D27*
%TO.C,U4*%
X90055000Y-79770000D03*
X91325000Y-79770000D03*
X92595000Y-79770000D03*
X93865000Y-79770000D03*
X93865000Y-86970000D03*
X92595000Y-86970000D03*
X91325000Y-86970000D03*
X90055000Y-86970000D03*
%TD*%
D18*
%TO.C,D29*%
X181220000Y-66660000D03*
X181220000Y-63360000D03*
%TD*%
%TO.C,D25*%
X162220000Y-66660000D03*
X162220000Y-63360000D03*
%TD*%
D17*
%TO.C,C_LDO2*%
X69870000Y-76190000D03*
X68910000Y-76190000D03*
%TD*%
D19*
%TO.C,D61*%
X245565000Y-111880000D03*
D20*
X245565000Y-112980000D03*
X243735000Y-112980000D03*
X243735000Y-111880000D03*
%TD*%
D17*
%TO.C,C5*%
X69430000Y-89270000D03*
X68470000Y-89270000D03*
%TD*%
D18*
%TO.C,D44*%
X238230000Y-123660000D03*
X238230000Y-120360000D03*
%TD*%
%TO.C,D42*%
X238230000Y-85660000D03*
X238230000Y-82360000D03*
%TD*%
D21*
%TO.C,C9*%
X88330000Y-87480000D03*
X88330000Y-86520000D03*
%TD*%
D18*
%TO.C,D27*%
X162230000Y-104670000D03*
X162230000Y-101370000D03*
%TD*%
D19*
%TO.C,D58*%
X131505000Y-111910000D03*
D20*
X131505000Y-113010000D03*
X129675000Y-113010000D03*
X129675000Y-111910000D03*
%TD*%
D18*
%TO.C,D34*%
X200220000Y-85660000D03*
X200220000Y-82360000D03*
%TD*%
D28*
%TO.C,U2*%
X74630000Y-64670000D03*
D29*
X74630000Y-66370000D03*
X72630000Y-66370000D03*
X72630000Y-64470000D03*
%TD*%
D30*
%TO.C,R5*%
X72520000Y-84557500D03*
X72520000Y-85577500D03*
%TD*%
D18*
%TO.C,D10*%
X86220000Y-85660000D03*
X86220000Y-82360000D03*
%TD*%
%TO.C,D41*%
X238230000Y-66660000D03*
X238230000Y-63360000D03*
%TD*%
D31*
%TO.C,USB1*%
X70735031Y-59037500D03*
X76515031Y-59037500D03*
D32*
X70400031Y-60482500D03*
X71175031Y-60482500D03*
D33*
X71875031Y-60482500D03*
X72375031Y-60482500D03*
X72875031Y-60482500D03*
X73375031Y-60482500D03*
X73875031Y-60482500D03*
X74375031Y-60482500D03*
X74875031Y-60482500D03*
X75375031Y-60482500D03*
D32*
X76075031Y-60482500D03*
X76850031Y-60482500D03*
D34*
X69305031Y-55387500D03*
D35*
X77945031Y-59567500D03*
X69305031Y-59567500D03*
D34*
X77945031Y-55387500D03*
%TD*%
D22*
%TO.C,D51*%
X205705000Y-64730000D03*
D20*
X205705000Y-63630000D03*
X207535000Y-63630000D03*
X207535000Y-64730000D03*
%TD*%
D30*
%TO.C,R4*%
X73610000Y-84550000D03*
X73610000Y-85570000D03*
%TD*%
D36*
%TO.C,U1*%
X71770000Y-73507500D03*
X69870000Y-73507500D03*
X70820000Y-71632500D03*
%TD*%
D18*
%TO.C,D4*%
X52980000Y-123670000D03*
X52980000Y-120370000D03*
%TD*%
%TO.C,D20*%
X123910000Y-125290000D03*
X123910000Y-121990000D03*
%TD*%
%TO.C,D1*%
X48230000Y-66660000D03*
X48230000Y-63360000D03*
%TD*%
%TO.C,D46*%
X257220000Y-85660000D03*
X257220000Y-82360000D03*
%TD*%
D37*
%TO.C,R3*%
X70820000Y-99040000D03*
X70820000Y-98020000D03*
%TD*%
D18*
%TO.C,D12*%
X86230000Y-123660000D03*
X86230000Y-120360000D03*
%TD*%
D37*
%TO.C,R7*%
X74410000Y-100470000D03*
X74410000Y-99450000D03*
%TD*%
D18*
%TO.C,D13*%
X105220000Y-66660000D03*
X105220000Y-63360000D03*
%TD*%
%TO.C,D6*%
X67220000Y-85660000D03*
X67220000Y-82360000D03*
%TD*%
D22*
%TO.C,D53*%
X91715000Y-64850000D03*
D20*
X91715000Y-63750000D03*
X93545000Y-63750000D03*
X93545000Y-64850000D03*
%TD*%
D30*
%TO.C,R6*%
X88770000Y-78740000D03*
X88770000Y-79760000D03*
%TD*%
D18*
%TO.C,D36*%
X204980000Y-123660000D03*
X204980000Y-120360000D03*
%TD*%
%TO.C,D19*%
X124220000Y-104660000D03*
X124220000Y-101360000D03*
%TD*%
%TO.C,D15*%
X105220000Y-104670000D03*
X105220000Y-101370000D03*
%TD*%
%TO.C,D26*%
X162220000Y-85660000D03*
X162220000Y-82360000D03*
%TD*%
D38*
%TO.C,SW6*%
X90990000Y-69080000D03*
X90990000Y-75380000D03*
X94790000Y-69080000D03*
X94790000Y-75380000D03*
%TD*%
D18*
%TO.C,D22*%
X143230000Y-85660000D03*
X143230000Y-82360000D03*
%TD*%
D21*
%TO.C,C4*%
X70350000Y-87390000D03*
X70350000Y-86430000D03*
%TD*%
D22*
%TO.C,D52*%
X148715000Y-64620000D03*
D20*
X148715000Y-63520000D03*
X150545000Y-63520000D03*
X150545000Y-64620000D03*
%TD*%
D19*
%TO.C,D59*%
X169565000Y-111890000D03*
D20*
X169565000Y-112990000D03*
X167735000Y-112990000D03*
X167735000Y-111890000D03*
%TD*%
D18*
%TO.C,D28*%
X171420000Y-125290000D03*
X171420000Y-121990000D03*
%TD*%
%TO.C,D38*%
X219230000Y-85660000D03*
X219230000Y-82360000D03*
%TD*%
%TO.C,D30*%
X181230000Y-85660000D03*
X181230000Y-82360000D03*
%TD*%
D17*
%TO.C,C8*%
X61970000Y-92540000D03*
X61010000Y-92540000D03*
%TD*%
D18*
%TO.C,D2*%
X48220000Y-85670000D03*
X48220000Y-82370000D03*
%TD*%
%TO.C,D18*%
X124220000Y-85660000D03*
X124220000Y-82360000D03*
%TD*%
D39*
%TO.C,Y1*%
X76220000Y-103170000D03*
X75020000Y-103170000D03*
X73820000Y-103170000D03*
%TD*%
D18*
%TO.C,D14*%
X105220000Y-85660000D03*
X105220000Y-82360000D03*
%TD*%
%TO.C,D35*%
X200230000Y-104660000D03*
X200230000Y-101360000D03*
%TD*%
%TO.C,D3*%
X48230000Y-104660000D03*
X48230000Y-101360000D03*
%TD*%
%TO.C,D8*%
X57000000Y-123680000D03*
X57000000Y-120380000D03*
%TD*%
%TO.C,D48*%
X257220000Y-123660000D03*
X257220000Y-120360000D03*
%TD*%
%TO.C,D17*%
X124230000Y-66670000D03*
X124230000Y-63370000D03*
%TD*%
%TO.C,D11*%
X86220000Y-104650000D03*
X86220000Y-101350000D03*
%TD*%
D21*
%TO.C,C13*%
X74710000Y-84790000D03*
X74710000Y-83830000D03*
%TD*%
D40*
%TO.C,U3*%
X77860000Y-89817500D03*
X77860000Y-90217500D03*
X77860000Y-90617500D03*
X77860000Y-91017500D03*
X77860000Y-91417500D03*
X77860000Y-91817500D03*
X77860000Y-92217500D03*
X77860000Y-92617500D03*
X77860000Y-93017500D03*
X77860000Y-93417500D03*
X77860000Y-93817500D03*
X77860000Y-94217500D03*
X77860000Y-94617500D03*
X77860000Y-95017500D03*
D41*
X77022500Y-95855000D03*
X76622500Y-95855000D03*
X76222500Y-95855000D03*
X75822500Y-95855000D03*
X75422500Y-95855000D03*
X75022500Y-95855000D03*
X74622500Y-95855000D03*
X74222500Y-95855000D03*
X73822500Y-95855000D03*
X73422500Y-95855000D03*
X73022500Y-95855000D03*
X72622500Y-95855000D03*
X72222500Y-95855000D03*
X71822500Y-95855000D03*
D40*
X70985000Y-95017500D03*
X70985000Y-94617500D03*
X70985000Y-94217500D03*
X70985000Y-93817500D03*
X70985000Y-93417500D03*
X70985000Y-93017500D03*
X70985000Y-92617500D03*
X70985000Y-92217500D03*
X70985000Y-91817500D03*
X70985000Y-91417500D03*
X70985000Y-91017500D03*
X70985000Y-90617500D03*
X70985000Y-90217500D03*
X70985000Y-89817500D03*
D41*
X71822500Y-88980000D03*
X72222500Y-88980000D03*
X72622500Y-88980000D03*
X73022500Y-88980000D03*
X73422500Y-88980000D03*
X73822500Y-88980000D03*
X74222500Y-88980000D03*
X74622500Y-88980000D03*
X75022500Y-88980000D03*
X75422500Y-88980000D03*
X75822500Y-88980000D03*
X76222500Y-88980000D03*
X76622500Y-88980000D03*
X77022500Y-88980000D03*
D42*
X74422500Y-92417500D03*
%TD*%
D19*
%TO.C,D49*%
X258715000Y-92070000D03*
D20*
X258715000Y-93170000D03*
X256885000Y-93170000D03*
X256885000Y-92070000D03*
%TD*%
D22*
%TO.C,D55*%
X39045000Y-93170000D03*
D20*
X39045000Y-92070000D03*
X40875000Y-92070000D03*
X40875000Y-93170000D03*
%TD*%
D18*
%TO.C,D31*%
X181230000Y-104660000D03*
X181230000Y-101360000D03*
%TD*%
D43*
%TO.C,U5*%
X251322500Y-92060000D03*
X251322500Y-91110000D03*
X251322500Y-90160000D03*
X253597500Y-90160000D03*
X253597500Y-92060000D03*
%TD*%
D18*
%TO.C,D5*%
X67220000Y-66660000D03*
X67220000Y-63360000D03*
%TD*%
D25*
%TO.C,C3*%
X71950000Y-99490000D03*
X71950000Y-100450000D03*
%TD*%
D18*
%TO.C,D40*%
X208990000Y-123660000D03*
X208990000Y-120360000D03*
%TD*%
%TO.C,D39*%
X219220000Y-104660000D03*
X219220000Y-101360000D03*
%TD*%
%TO.C,D47*%
X257230000Y-104660000D03*
X257230000Y-101360000D03*
%TD*%
D19*
%TO.C,D60*%
X207585000Y-111910000D03*
D20*
X207585000Y-113010000D03*
X205755000Y-113010000D03*
X205755000Y-111910000D03*
%TD*%
D21*
%TO.C,C1*%
X71420000Y-86500000D03*
X71420000Y-85540000D03*
%TD*%
D18*
%TO.C,D16*%
X105230000Y-123660000D03*
X105230000Y-120360000D03*
%TD*%
D17*
%TO.C,C_LDO1*%
X70820000Y-69930000D03*
X69860000Y-69930000D03*
%TD*%
D18*
%TO.C,D37*%
X219230000Y-66660000D03*
X219230000Y-63360000D03*
%TD*%
%TO.C,D23*%
X143230000Y-104660000D03*
X143230000Y-101360000D03*
%TD*%
D38*
%TO.C,SW5*%
X84780000Y-69060000D03*
X84780000Y-75360000D03*
X88580000Y-75360000D03*
X88580000Y-69060000D03*
%TD*%
D19*
%TO.C,D57*%
X93545000Y-112420000D03*
D20*
X93545000Y-113520000D03*
X91715000Y-113520000D03*
X91715000Y-112420000D03*
%TD*%
D44*
%TO.C,F1*%
X70830000Y-66812500D03*
X70830000Y-68687500D03*
%TD*%
D18*
%TO.C,D45*%
X257230000Y-66660000D03*
X257230000Y-63360000D03*
%TD*%
D45*
X72670000Y-98300000D03*
D46*
X73540000Y-90310000D03*
D45*
X75409500Y-86010000D03*
D46*
X73820000Y-94517000D03*
D45*
X80580000Y-96130000D03*
X59510000Y-91540000D03*
X93470000Y-58450000D03*
X245880000Y-59580000D03*
X43490000Y-109280000D03*
X93810000Y-100920000D03*
X109530000Y-98150000D03*
X227380000Y-59270000D03*
D46*
X88590000Y-85390000D03*
D45*
X212940000Y-122290000D03*
X63550000Y-59250000D03*
X112550000Y-125880000D03*
X215480000Y-60240000D03*
X75350000Y-101290000D03*
X77090000Y-118140000D03*
X148780000Y-126620000D03*
D46*
X90930000Y-115820000D03*
D45*
X248340000Y-93820000D03*
X102420000Y-117220000D03*
X77000000Y-100660000D03*
X45030000Y-112950000D03*
X210240000Y-114030000D03*
X234990000Y-117550000D03*
X54660000Y-100960000D03*
X134490000Y-113120000D03*
X80540000Y-88760000D03*
X50330000Y-114700000D03*
D46*
X72140000Y-102760000D03*
D45*
X168010000Y-60550000D03*
X82950000Y-99090000D03*
X49970000Y-117710000D03*
D46*
X55410000Y-115590000D03*
D45*
X55170000Y-70930000D03*
X39890000Y-96140000D03*
D46*
X83396609Y-92735568D03*
D45*
X67540000Y-75030000D03*
X71400000Y-84430000D03*
X189510000Y-114550000D03*
X186220000Y-60470000D03*
D46*
X74840000Y-106690000D03*
D45*
X102080000Y-59130000D03*
X102100000Y-97910000D03*
X248250000Y-115780000D03*
X93950000Y-81680000D03*
X53760000Y-61710000D03*
X225110000Y-96340000D03*
X251570000Y-88450000D03*
X131780000Y-60130000D03*
X82390000Y-110240000D03*
X66660000Y-88210000D03*
X76250000Y-64650000D03*
X148360000Y-62120000D03*
X254350000Y-116960000D03*
X54850000Y-109760000D03*
X243530000Y-62040000D03*
X205370000Y-61810000D03*
X40970000Y-125670000D03*
X61180000Y-91580000D03*
X157610000Y-59350000D03*
X166550000Y-110030000D03*
X202930000Y-61380000D03*
X75770000Y-98310000D03*
X247840000Y-75590000D03*
X58930000Y-94510000D03*
X71650000Y-75540000D03*
X127820000Y-110470000D03*
X56420000Y-106590000D03*
X149570000Y-58450000D03*
X207050000Y-57820000D03*
X251700000Y-94590000D03*
X63540000Y-117400000D03*
X248070000Y-81090000D03*
X240220000Y-61130000D03*
X64160000Y-98060000D03*
X204040000Y-110210000D03*
X110480000Y-60950000D03*
X91680000Y-62100000D03*
X202060000Y-117550000D03*
X106070000Y-88400000D03*
D46*
X86730000Y-87330000D03*
D45*
X70820000Y-99930000D03*
X74216644Y-86528259D03*
X73865000Y-98425000D03*
D46*
X58490000Y-112040000D03*
X251440000Y-103930000D03*
X54260000Y-68310000D03*
X56680000Y-65440000D03*
X43058219Y-105844710D03*
X49416382Y-112209435D03*
X59550000Y-68310000D03*
X256890000Y-91130000D03*
X253600000Y-91130000D03*
X54760000Y-111600000D03*
X251190000Y-110770000D03*
X68860000Y-66660000D03*
X75970000Y-66660000D03*
X59440000Y-84910000D03*
X242670000Y-85660000D03*
X96240000Y-85660000D03*
X86220000Y-84310000D03*
X240110000Y-85650000D03*
X54810000Y-85910000D03*
X67220000Y-86880000D03*
X92040000Y-84870000D03*
X56750000Y-104660000D03*
X59340000Y-104660000D03*
X53920000Y-104660000D03*
D45*
X56990000Y-118470000D03*
X54990000Y-123710000D03*
D46*
X249630000Y-86700000D03*
X246440000Y-64050000D03*
X43150000Y-92070000D03*
X53290000Y-65870000D03*
X48620000Y-112280000D03*
X42260000Y-105890000D03*
X56820000Y-112970000D03*
X58780000Y-112970000D03*
D45*
X71070000Y-62000000D03*
X72360000Y-63210000D03*
X74379500Y-82600000D03*
X69680000Y-98500000D03*
X90310000Y-76900000D03*
D46*
X97520000Y-90670000D03*
X79860000Y-91040000D03*
X59371979Y-109580744D03*
X58020000Y-92630000D03*
X237890825Y-110678647D03*
X238720000Y-110660000D03*
X58808606Y-92761544D03*
X59490000Y-108790000D03*
M02*
