0
SECTION
2
HEADER
9
$INSUNITS
70
4
9
$ACADVER
1
AC1014
9
$HANDSEED
5
FFFF
0
ENDSEC
0
SECTION
2
TABLES
0
TABLE
2
VPORT
5
8
100
AcDbSymbolTable
0
ENDTAB
0
TABLE
2
LTYPE
5
5
100
AcDbSymbolTable
0
LTYPE
5
14
100
AcDbSymbolTableRecord
100
AcDbLinetypeTableRecord
2
BYBLOCK
70
0
0
LTYPE
5
15
100
AcDbSymbolTableRecord
100
AcDbLinetypeTableRecord
2
BYLAYER
70
0
0
ENDTAB
0
TABLE
2
LAYER
5
2
100
AcDbSymbolTable
70
2
0
LAYER
5
50
100
AcDbSymbolTableRecord
100
AcDbLayerTableRecord
2
0
70
0
6
CONTINUOUS
0
ENDTAB
0
TABLE
2
STYLE
5
3
100
AcDbSymbolTable
70
1
0
STYLE
5
11
100
AcDbSymbolTableRecord
100
AcDbTextStyleTableRecord
2
STANDARD
70
0
0
ENDTAB
0
TABLE
2
VIEW
5
6
100
AcDbSymbolTable
70
0
0
ENDTAB
0
TABLE
2
UCS
5
7
100
AcDbSymbolTable
70
0
0
ENDTAB
0
TABLE
2
APPID
5
9
100
AcDbSymbolTable
70
2
0
APPID
5
12
100
AcDbSymbolTableRecord
100
AcDbRegAppTableRecord
2
ACAD
70
0
0
ENDTAB
0
TABLE
2
DIMSTYLE
5
A
100
AcDbSymbolTable
70
1
0
ENDTAB
0
TABLE
2
BLOCK_RECORD
5
1
100
AcDbSymbolTable
70
1
0
BLOCK_RECORD
5
1F
100
AcDbSymbolTableRecord
100
AcDbBlockTableRecord
2
*MODEL_SPACE
0
BLOCK_RECORD
5
1B
100
AcDbSymbolTableRecord
100
AcDbBlockTableRecord
2
*PAPER_SPACE
0
ENDTAB
0
ENDSEC
0
SECTION
2
BLOCKS
0
BLOCK
5
20
100
AcDbEntity
100
AcDbBlockBegin
2
*MODEL_SPACE
0
ENDBLK
5
21
100
AcDbEntity
100
AcDbBlockEnd
0
BLOCK
5
1C
100
AcDbEntity
100
AcDbBlockBegin
2
*PAPER_SPACE
0
ENDBLK
5
1D
100
AcDbEntity
100
AcDbBlockEnd
0
ENDSEC
0
SECTION
2
ENTITIES
0
LWPOLYLINE
5
100
100
AcDbEntity
8
0
100
AcDbPolyline
90
14
70
1
43
0.0
10
60.450000000000003
20
-49.988588112945898
10
60.450000000000003
20
-48.488588112945905
42
0.4142135623731002
10
59.950000000000003
20
-47.988588112945898
10
53.950000000000003
20
-47.988588112945891
42
0.41421356237310542
10
53.449999999999996
20
-48.488588112945898
10
53.450000000000003
20
-49.988588112945884
10
50.500000000000007
20
-49.988588112945898
42
0.41421356237312629
10
50
20
-50.488588112945905
10
50
20
-63.488588112945905
42
0.41421356237313145
10
50.500000000000007
20
-63.988588112945877
10
63.5
20
-63.988588112945905
42
0.41421356237310542
10
63.999999999999986
20
-63.488588112945905
10
64
20
-50.488588112945905
42
0.41421356237311063
10
63.5
20
-49.988588112945898
0
LWPOLYLINE
5
101
100
AcDbEntity
8
0
100
AcDbPolyline
90
14
70
1
43
0.0
10
155.55000000000004
20
-49.988588112945962
10
155.55000000000004
20
-48.488588112945905
42
0.4142135623731002
10
155.05000000000001
20
-47.988588112945891
10
149.05000000000004
20
-47.988588112945891
42
0.41421356237307422
10
148.55000000000001
20
-48.488588112945898
10
148.55000000000001
20
-49.988588112945926
10
145.5
20
-49.988588112945905
42
0.4142135623731002
10
145
20
-50.488588112945919
10
145.00000000000003
20
-63.488588112945912
42
0.41421356237313145
10
145.5
20
-63.988588112945891
10
158.5
20
-63.988588112945912
42
0.41421356237311063
10
159.00000000000003
20
-63.488588112945912
10
159
20
-50.488588112945919
42
0.41421356237312629
10
158.5
20
-49.988588112945934
0
LWPOLYLINE
5
102
100
AcDbEntity
8
0
100
AcDbPolyline
90
8
70
1
43
0.0
10
216.00000000000009
20
-63.488588112945919
42
-0.4142135623731002
10
215.5
20
-63.988588112945919
10
202.5
20
-63.988588112945912
42
-0.41421356237312629
10
202
20
-63.488588112945919
10
201.99999999999994
20
-50.488588112945926
42
-0.41421356237311585
10
202.5
20
-49.988588112945919
10
215.49999999999997
20
-49.988588112945898
42
-0.4142135623731471
10
216
20
-50.488588112945926
0
LWPOLYLINE
5
103
100
AcDbEntity
8
0
100
AcDbPolyline
90
40
70
1
43
0.0
10
138.93799999999999
20
-49.488588112945912
10
138.93800000000002
20
-48.470588112945912
42
0.41421356237307944
10
138.43799999999999
20
-47.970588112945897
10
132.43799999999999
20
-47.970588112945904
42
0.41421356237309509
10
131.93799999999999
20
-48.470588112945904
10
131.93799999999999
20
-49.488588112945905
42
-0.41421356237308982
10
131.43799999999999
20
-49.988588112945898
10
120.43799999999999
20
-49.988588112945898
42
-0.41421356237307422
10
119.938
20
-49.488588112945912
10
119.93800000000002
20
-48.470588112945912
42
0.41421356237307944
10
119.43800000000002
20
-47.970588112945897
10
108.56200000000001
20
-47.970588112945904
42
0.41421356237308465
10
108.06200000000001
20
-48.47058811294589
10
108.06200000000001
20
-49.488588112945891
42
-0.41421356237308982
10
107.562
20
-49.988588112945891
10
101.43799999999997
20
-49.988588112945877
42
-0.41421356237304296
10
100.93800000000002
20
-49.488588112945905
10
100.93800000000002
20
-48.470588112945904
42
0.41421356237309509
10
100.43800000000002
20
-47.970588112945897
10
89.562000000000097
20
-47.970588112945904
42
0.41421356237308465
10
89.062000000000097
20
-48.47058811294589
10
89.061999999999998
20
-49.488588112945891
42
-0.414213562373069
10
88.561999999999998
20
-49.988588112945891
10
77.561999999999998
20
-49.988588112945898
42
-0.41421356237308982
10
77.061999999999983
20
-49.488588112945905
10
77.061999999999983
20
-48.470588112945904
42
0.41421356237311063
10
76.561999999999983
20
-47.970588112945897
10
70.562000000000097
20
-47.970588112945904
42
0.41421356237308982
10
70.062000000000097
20
-48.47058811294589
10
70.062000000000097
20
-49.488588112945891
42
-0.41421356237309509
10
69.562000000000097
20
-49.988588112945891
10
69.5
20
-49.988588112945898
42
0.41421356237311063
10
68.999999999999986
20
-50.488588112945905
10
68.999999999999986
20
-63.488588112945905
42
0.4142135623731002
10
69.5
20
-63.988588112945912
10
139.5
20
-63.988588112945912
42
0.4142135623731002
10
140
20
-63.488588112945912
10
140
20
-50.488588112945919
42
0.41421356237309509
10
139.5
20
-49.988588112945919
10
139.43799999999999
20
-49.988588112945898
42
-0.41421356237307422
0
LWPOLYLINE
5
104
100
AcDbEntity
8
0
100
AcDbPolyline
90
8
70
1
43
0.0
10
12.000000000000007
20
-50.488588112945898
42
-0.41421356237310802
10
12.5
20
-49.988588112945891
10
25.500000000000007
20
-49.988588112945884
42
-0.4142135623731002
10
26.000000000000014
20
-50.488588112945898
10
26.000000000000007
20
-63.488588112945898
42
-0.41421356237309509
10
25.500000000000007
20
-63.988588112945891
10
12.5
20
-63.988588112945891
42
-0.4142135623731002
10
11.999999999999993
20
-63.488588112945898
0
LWPOLYLINE
5
105
100
AcDbEntity
8
0
100
AcDbPolyline
90
8
70
1
43
0.0
10
215.5
20
-11.988588112945909
42
-0.41421356237314189
10
216
20
-12.488588112945925
10
216
20
-25.488588112945916
42
-0.41421356237310542
10
215.5
20
-25.988588112945923
10
202.5
20
-25.988588112945941
42
-0.41421356237310542
10
202
20
-25.488588112945916
10
202.00000000000006
20
-12.488588112945909
42
-0.41421356237303908
10
202.5
20
-11.988588112945918
0
LWPOLYLINE
5
106
100
AcDbEntity
8
0
100
AcDbPolyline
90
8
70
1
43
0.0
10
101.5
20
-11.988588112945886
42
-0.41421356237309243
10
102
20
-12.488588112945907
10
102
20
-25.488588112945898
42
-0.41421356237308726
10
101.5
20
-25.988588112945905
10
88.5
20
-25.988588112945891
42
-0.4142135623730977
10
88
20
-25.488588112945898
10
87.999999999999986
20
-12.488588112945909
42
-0.41421356237305862
10
88.5
20
-11.9885881129459
0
LWPOLYLINE
5
107
100
AcDbEntity
8
0
100
AcDbPolyline
90
8
70
1
43
0.0
10
25.500000000000007
20
-30.988588112945877
42
-0.41421356237309243
10
26.000000000000014
20
-31.488588112945891
10
26.000000000000014
20
-44.488588112945884
42
-0.41421356237308982
10
25.500000000000007
20
-44.988588112945884
10
12.5
20
-44.988588112945877
42
-0.4142135623731002
10
11.999999999999993
20
-44.488588112945877
10
12.000000000000011
20
-31.488588112945884
42
-0.41421356237308726
10
12.5
20
-30.988588112945902
0
LWPOLYLINE
5
108
100
AcDbEntity
8
0
100
AcDbPolyline
90
8
70
1
43
0.0
10
101.5
20
-30.988588112945912
42
-0.4142135623730977
10
102
20
-31.488588112945909
10
101.99999999999997
20
-44.488588112945905
42
-0.4142135623731002
10
101.5
20
-44.988588112945884
10
88.499999999999972
20
-44.988588112945891
42
-0.41421356237308982
10
88
20
-44.488588112945891
10
88.000000000000028
20
-31.488588112945905
42
-0.41421356237309243
10
88.5
20
-30.988588112945902
0
LWPOLYLINE
5
109
100
AcDbEntity
8
0
100
AcDbPolyline
90
8
70
1
43
0.0
10
83
20
-44.488588112945891
42
-0.41421356237313145
10
82.5
20
-44.988588112945884
10
69.5
20
-44.988588112945919
42
-0.41421356237310542
10
68.999999999999986
20
-44.488588112945891
10
68.999999999999986
20
-31.488588112945905
42
-0.4142135623731002
10
69.5
20
-30.988588112945902
10
82.5
20
-30.988588112945902
42
-0.41421356237309509
10
83
20
-31.488588112945909
0
LWPOLYLINE
5
110
100
AcDbEntity
8
0
100
AcDbPolyline
90
8
70
1
43
0.0
10
216.00000000000006
20
-44.488588112945912
42
-0.41421356237307422
10
215.5
20
-44.988588112945919
10
202.5
20
-44.988588112945898
42
-0.41421356237312629
10
202
20
-44.488588112945912
10
202
20
-31.488588112945905
42
-0.41421356237300661
10
202.5
20
-30.988588112945919
10
215.5
20
-30.988588112945891
42
-0.4142135623731002
10
216
20
-31.488588112945909
0
CIRCLE
5
111
100
AcDbEntity
8
0
100
AcDbCircle
10
157.75000000000003
20
-68.788588112945902
30
-5.5511151231257827e-16
40
1.0000000000000142
210
0
220
-0
230
1
0
CIRCLE
5
112
100
AcDbEntity
8
0
100
AcDbCircle
10
104.50000000000001
20
11.81141188705411
30
-5.5511151231257827e-16
40
0.99999999999999645
210
0
220
-0
230
1
0
LWPOLYLINE
5
113
100
AcDbEntity
8
0
100
AcDbPolyline
90
8
70
1
43
0.0
10
177.99999999999997
20
-63.488588112945912
42
-0.41421356237303264
10
177.5
20
-63.988588112945912
10
164.5
20
-63.988588112945919
42
-0.41421356237313667
10
164
20
-63.488588112945912
10
164
20
-50.488588112945919
42
-0.4142135623731471
10
164.5
20
-49.988588112945905
10
177.5
20
-49.988588112945948
42
-0.41421356237315754
10
178
20
-50.488588112945919
0
LWPOLYLINE
5
114
100
AcDbEntity
8
0
100
AcDbPolyline
90
8
70
1
43
0.0
10
164.5
20
-25.988588112945937
42
-0.41421356237314444
10
164
20
-25.488588112945916
10
164
20
-12.488588112945909
42
-0.41421356237312362
10
164.5
20
-11.988588112945918
10
177.5
20
-11.988588112945912
42
-0.41421356237312884
10
178
20
-12.488588112945907
10
177.99999999999997
20
-25.488588112945916
42
-0.41421356237306645
10
177.5
20
-25.988588112945905
0
LWPOLYLINE
5
115
100
AcDbEntity
8
0
100
AcDbPolyline
90
8
70
1
43
0.0
10
64.000000000000028
20
-6.4885881129458909
42
-0.41421356237310353
10
63.500000000000014
20
-6.988588112945898
10
50.500000000000007
20
-6.9885881129459095
42
-0.41421356237310153
10
50
20
-6.4885881129458909
10
50.000000000000014
20
6.5114118870540985
42
-0.41421356237310675
10
50.500000000000007
20
7.0114118870541065
10
63.500000000000014
20
7.0114118870541198
42
-0.41421356237310281
10
64.000000000000028
20
6.5114118870540993
0
LWPOLYLINE
5
116
100
AcDbEntity
8
0
100
AcDbPolyline
90
8
70
1
43
0.0
10
-6.9999999999999734
20
-31.488588112945884
42
-0.41421356237307549
10
-6.5000000000000213
20
-30.988588112945902
10
6.4999999999999858
20
-30.988588112945877
42
-0.41421356237309309
10
6.9999999999999929
20
-31.488588112945891
10
6.9999999999999973
20
-44.488588112945884
42
-0.41421356237309243
10
6.4999999999999858
20
-44.988588112945884
10
-6.5000000000000213
20
-44.988588112945848
42
-0.41421356237309637
10
-6.9999999999999929
20
-44.488588112945877
0
CIRCLE
5
117
100
AcDbEntity
8
0
100
AcDbCircle
10
17.125000000000021
20
11.81141188705411
30
-5.5511151231257827e-16
40
1.0000000000000009
210
0
220
-0
230
1
0
LWPOLYLINE
5
118
100
AcDbEntity
8
0
100
AcDbPolyline
90
8
70
1
43
0.0
10
44.499999999999993
20
-30.988588112945887
42
-0.41421356237310281
10
45
20
-31.488588112945891
10
44.999999999999986
20
-44.488588112945905
42
-0.41421356237307944
10
44.499999999999993
20
-44.988588112945884
10
31.499999999999986
20
-44.988588112945855
42
-0.41421356237310281
10
31.000000000000014
20
-44.488588112945877
10
30.999999999999996
20
-31.488588112945884
42
-0.41421356237308204
10
31.499999999999986
20
-30.988588112945902
0
LWPOLYLINE
5
119
100
AcDbEntity
8
0
100
AcDbPolyline
90
8
70
1
43
0.0
10
139.5
20
7.0114118870540967
42
-0.41421356237309959
10
140
20
6.5114118870540993
10
140
20
-6.4885881129459078
42
-0.41421356237307161
10
139.5
20
-6.988588112945898
10
126.5
20
-6.988588112945906
42
-0.41421356237309959
10
126.00000000000001
20
-6.4885881129459086
10
126
20
6.5114118870540985
42
-0.41421356237305795
10
126.5
20
7.0114118870541065
0
LWPOLYLINE
5
120
100
AcDbEntity
8
0
100
AcDbPolyline
90
8
70
1
43
0.0
10
145
20
-31.488588112945909
42
-0.41421356237312101
10
145.5
20
-30.988588112945902
10
158.5
20
-30.988588112945926
42
-0.41421356237313145
10
159
20
-31.488588112945909
10
159.00000000000003
20
-44.488588112945919
42
-0.4142135623731002
10
158.5
20
-44.988588112945898
10
145.5
20
-44.988588112945877
42
-0.41421356237314189
10
145.00000000000003
20
-44.488588112945912
0
LWPOLYLINE
5
121
100
AcDbEntity
8
0
100
AcDbPolyline
90
8
70
1
43
0.0
10
12.5
20
-25.988588112945902
42
-0.41421356237309243
10
11.999999999999993
20
-25.488588112945898
10
11.999999999999991
20
-12.488588112945891
42
-0.4142135623731002
10
12.5
20
-11.988588112945882
10
25.500000000000007
20
-11.98858811294588
42
-0.41421356237309109
10
26.000000000000014
20
-12.488588112945889
10
26.000000000000014
20
-25.488588112945898
42
-0.41421356237308982
10
25.500000000000007
20
-25.988588112945905
0
LWPOLYLINE
5
122
100
AcDbEntity
8
0
100
AcDbPolyline
90
8
70
1
43
0.0
10
44.999999999999993
20
-63.488588112945905
42
-0.41421356237310542
10
44.499999999999993
20
-63.988588112945905
10
31.499999999999986
20
-63.988588112945905
42
-0.41421356237309509
10
30.999999999999979
20
-63.488588112945898
10
30.999999999999993
20
-50.488588112945898
42
-0.41421356237310802
10
31.499999999999986
20
-49.988588112945891
10
44.499999999999993
20
-49.988588112945905
42
-0.41421356237311063
10
45
20
-50.488588112945905
0
CIRCLE
5
123
100
AcDbEntity
8
0
100
AcDbCircle
10
51.25
20
-68.788588112945902
30
0
40
0.99999999999999645
210
0
220
-0
230
1
0
LWPOLYLINE
5
124
100
AcDbEntity
8
0
100
AcDbPolyline
90
8
70
1
43
0.0
10
202.00000000000003
20
6.5114118870540816
42
-0.41421356237304169
10
202.5
20
7.0114118870540887
10
215.5
20
7.0114118870541002
42
-0.41421356237314311
10
216
20
6.5114118870540816
10
215.99999999999997
20
-6.4885881129459078
42
-0.41421356237310736
10
215.5
20
-6.9885881129459158
10
202.5
20
-6.9885881129459335
42
-0.41421356237310542
10
202
20
-6.4885881129459086
0
LWPOLYLINE
5
125
100
AcDbEntity
8
0
100
AcDbPolyline
90
8
70
1
43
0.0
10
159.00000000000003
20
-6.4885881129459086
42
-0.4142135623731048
10
158.5
20
-6.988588112945898
10
145.5
20
-6.9885881129458882
42
-0.41421356237313084
10
145.00000000000003
20
-6.4885881129459086
10
145
20
6.5114118870540985
42
-0.41421356237310608
10
145.5
20
7.0114118870540887
10
158.5
20
7.0114118870540798
42
-0.41421356237313145
10
159
20
6.5114118870540993
0
LWPOLYLINE
5
126
100
AcDbEntity
8
0
100
AcDbPolyline
90
8
70
1
43
0.0
10
120.5
20
-30.988588112945926
42
-0.41421356237313145
10
121
20
-31.488588112945909
10
121.00000000000001
20
-44.488588112945919
42
-0.4142135623731002
10
120.5
20
-44.988588112945898
10
107.5
20
-44.988588112945877
42
-0.41421356237313145
10
107.00000000000001
20
-44.488588112945891
10
107
20
-31.488588112945905
42
-0.41421356237311846
10
107.5
20
-30.988588112945902
0
LWPOLYLINE
5
127
100
AcDbEntity
8
0
100
AcDbPolyline
90
8
70
1
43
0.0
10
197.00000000000006
20
-44.488588112945912
42
-0.41421356237307422
10
196.50000000000003
20
-44.988588112945919
10
183.5
20
-44.988588112945898
42
-0.41421356237312629
10
183
20
-44.488588112945912
10
183
20
-31.488588112945905
42
-0.41421356237300661
10
183.5
20
-30.988588112945919
10
196.50000000000003
20
-30.988588112945891
42
-0.4142135623731002
10
197.00000000000003
20
-31.488588112945909
0
LWPOLYLINE
5
128
100
AcDbEntity
8
0
100
AcDbPolyline
90
8
70
1
43
0.0
10
-7.000000000000016
20
-50.488588112945898
42
-0.41421356237310869
10
-6.5000000000000213
20
-49.988588112945891
10
6.4999999999999858
20
-49.988588112945891
42
-0.41421356237310281
10
6.9999999999999929
20
-50.488588112945898
10
6.999999999999984
20
-63.488588112945898
42
-0.41421356237309509
10
6.4999999999999858
20
-63.988588112945891
10
-6.5000000000000213
20
-63.98858811294587
42
-0.41421356237309637
10
-6.9999999999999929
20
-63.488588112945898
0
LWPOLYLINE
5
129
100
AcDbEntity
8
0
100
AcDbPolyline
90
8
70
1
43
0.0
10
50.000000000000014
20
-12.488588112945889
42
-0.41421356237308593
10
50.500000000000007
20
-11.9885881129459
10
63.500000000000014
20
-11.988588112945884
42
-0.41421356237310414
10
64.000000000000028
20
-12.488588112945889
10
64.000000000000028
20
-25.488588112945898
42
-0.4142135623731002
10
63.500000000000014
20
-25.988588112945905
10
50.500000000000007
20
-25.988588112945898
42
-0.4142135623731002
10
50
20
-25.488588112945898
0
LWPOLYLINE
5
130
100
AcDbEntity
8
0
100
AcDbPolyline
90
8
70
1
43
0.0
10
107.5
20
-6.9885881129458802
42
-0.41421356237312629
10
107.00000000000001
20
-6.4885881129459086
10
106.99999999999997
20
6.5114118870540985
42
-0.4142135623731048
10
107.5
20
7.0114118870541065
10
120.5
20
7.0114118870540798
42
-0.41421356237313145
10
121
20
6.5114118870540993
10
121.00000000000001
20
-6.4885881129459078
42
-0.41421356237310542
10
120.5
20
-6.988588112945898
0
LWPOLYLINE
5
131
100
AcDbEntity
8
0
100
AcDbPolyline
90
8
70
1
43
0.0
10
31.000000000000032
20
6.5114118870541171
42
-0.41421356237309048
10
31.500000000000021
20
7.0114118870541065
10
44.499999999999993
20
7.011411887054102
42
-0.41421356237310281
10
45
20
6.5114118870540993
10
45
20
-6.48858811294589
42
-0.41421356237310414
10
44.499999999999993
20
-6.988588112945898
10
31.500000000000021
20
-6.9885881129459007
42
-0.41421356237309109
10
31.000000000000014
20
-6.4885881129458909
0
LWPOLYLINE
5
132
100
AcDbEntity
8
0
100
AcDbPolyline
90
8
70
1
43
0.0
10
177.5
20
7.011411887054118
42
-0.41421356237310153
10
178
20
6.5114118870540993
10
178.00000000000006
20
-6.4885881129459078
42
-0.41421356237296042
10
177.5
20
-6.9885881129459158
10
164.5
20
-6.9885881129459282
42
-0.41421356237314377
10
164
20
-6.4885881129459086
10
164
20
6.5114118870540985
42
-0.41421356237312429
10
164.5
20
7.0114118870540887
0
LWPOLYLINE
5
133
100
AcDbEntity
8
0
100
AcDbPolyline
90
8
70
1
43
0.0
10
63.500000000000014
20
-30.988588112945905
42
-0.41421356237310281
10
64.000000000000028
20
-31.488588112945909
10
63.999999999999986
20
-44.488588112945905
42
-0.41421356237307944
10
63.5
20
-44.988588112945884
10
50.500000000000007
20
-44.988588112945877
42
-0.41421356237313145
10
50
20
-44.488588112945891
10
50.000000000000014
20
-31.488588112945884
42
-0.41421356237307944
10
50.500000000000007
20
-30.988588112945902
0
LWPOLYLINE
5
134
100
AcDbEntity
8
0
100
AcDbPolyline
90
8
70
1
43
0.0
10
197.00000000000006
20
-6.4885881129459086
42
-0.41421356237307361
10
196.50000000000003
20
-6.9885881129459158
10
183.5
20
-6.9885881129459335
42
-0.41421356237310542
10
183
20
-6.4885881129459086
10
183.00000000000009
20
6.5114118870540985
42
-0.41421356237303908
10
183.5
20
7.0114118870540887
10
196.50000000000003
20
7.0114118870541002
42
-0.41421356237314311
10
197.00000000000003
20
6.5114118870540816
0
LWPOLYLINE
5
135
100
AcDbEntity
8
0
100
AcDbPolyline
90
8
70
1
43
0.0
10
69.5
20
-25.988588112945898
42
-0.4142135623731002
10
68.999999999999986
20
-25.488588112945898
10
68.999999999999986
20
-12.488588112945891
42
-0.41421356237308593
10
69.5
20
-11.9885881129459
10
82.5
20
-11.988588112945887
42
-0.41421356237312235
10
83
20
-12.488588112945907
10
83
20
-25.488588112945898
42
-0.41421356237312101
10
82.5
20
-25.988588112945905
0
LWPOLYLINE
5
136
100
AcDbEntity
8
0
100
AcDbPolyline
90
8
70
1
43
0.0
10
26.000000000000014
20
-6.4885881129458909
42
-0.41421356237309109
10
25.500000000000007
20
-6.988588112945898
10
12.5
20
-6.988588112945898
42
-0.4142135623730977
10
11.999999999999993
20
-6.4885881129458909
10
12.000000000000011
20
6.5114118870541162
42
-0.41421356237309637
10
12.5
20
7.0114118870541065
10
25.500000000000007
20
7.0114118870541251
42
-0.41421356237309048
10
26.000000000000014
20
6.5114118870541171
0
LWPOLYLINE
5
137
100
AcDbEntity
8
0
100
AcDbPolyline
90
8
70
1
43
0.0
10
178
20
-44.488588112945912
42
-0.41421356237300661
10
177.5
20
-44.988588112945898
10
164.50000000000003
20
-44.988588112945934
42
-0.41421356237310542
10
164
20
-44.488588112945912
10
164
20
-31.488588112945905
42
-0.41421356237312362
10
164.5
20
-30.988588112945919
10
177.5
20
-30.988588112945887
42
-0.41421356237310281
10
178
20
-31.488588112945909
0
LWPOLYLINE
5
138
100
AcDbEntity
8
0
100
AcDbPolyline
90
8
70
1
43
0.0
10
6.9999999999999751
20
-6.4885881129458909
42
-0.41421356237309637
10
6.4999999999999858
20
-6.9885881129458802
10
-6.4999999999999858
20
-6.9885881129458998
42
-0.41421356237309437
10
-6.9999999999999929
20
-6.4885881129458909
10
-6.9999999999999751
20
6.5114118870541162
42
-0.41421356237309698
10
-6.4999999999999858
20
7.0114118870541065
10
6.4999999999999858
20
7.0114118870541242
42
-0.4142135623730937
10
6.9999999999999929
20
6.5114118870541171
0
CIRCLE
5
139
100
AcDbEntity
8
0
100
AcDbCircle
10
191.875
20
11.811411887054092
30
-5.5511151231257827e-16
40
1.0000000000000142
210
0
220
-0
230
1
0
LWPOLYLINE
5
140
100
AcDbEntity
8
0
100
AcDbPolyline
90
8
70
1
43
0.0
10
145
20
-12.488588112945907
42
-0.41421356237309509
10
145.5
20
-11.9885881129459
10
158.5
20
-11.98858811294593
42
-0.41421356237312884
10
159
20
-12.488588112945907
10
159.00000000000003
20
-25.488588112945916
42
-0.41421356237310542
10
158.5
20
-25.988588112945905
10
145.5
20
-25.988588112945898
42
-0.41421356237313145
10
145.00000000000003
20
-25.488588112945916
0
LWPOLYLINE
5
141
100
AcDbEntity
8
0
100
AcDbPolyline
90
8
70
1
43
0.0
10
31.000000000000032
20
-12.488588112945889
42
-0.41421356237309109
10
31.500000000000021
20
-11.9885881129459
10
44.499999999999993
20
-11.988588112945884
42
-0.41421356237310414
10
45
20
-12.488588112945889
10
45.000000000000007
20
-25.488588112945898
42
-0.4142135623731002
10
44.499999999999993
20
-25.988588112945905
10
31.499999999999986
20
-25.98858811294587
42
-0.4142135623731002
10
31.000000000000014
20
-25.488588112945898
0
LWPOLYLINE
5
142
100
AcDbEntity
8
0
100
AcDbPolyline
90
8
70
1
43
0.0
10
197.00000000000003
20
-25.488588112945916
42
-0.41421356237307422
10
196.50000000000003
20
-25.988588112945905
10
183.5
20
-25.988588112945941
42
-0.41421356237310542
10
183
20
-25.488588112945916
10
183.00000000000009
20
-12.488588112945909
42
-0.41421356237303908
10
183.5
20
-11.988588112945918
10
196.50000000000003
20
-11.988588112945891
42
-0.4142135623731002
10
197.00000000000003
20
-12.488588112945907
0
LWPOLYLINE
5
143
100
AcDbEntity
8
0
100
AcDbPolyline
90
8
70
1
43
0.0
10
197.00000000000011
20
-63.488588112945919
42
-0.4142135623731002
10
196.50000000000003
20
-63.988588112945919
10
183.5
20
-63.988588112945912
42
-0.41421356237312629
10
183
20
-63.488588112945919
10
182.99999999999997
20
-50.488588112945926
42
-0.41421356237311585
10
183.5
20
-49.988588112945919
10
196.5
20
-49.988588112945898
42
-0.4142135623731471
10
197.00000000000003
20
-50.488588112945926
0
LWPOLYLINE
5
144
100
AcDbEntity
8
0
100
AcDbPolyline
90
8
70
1
43
0.0
10
126.5
20
-25.988588112945919
42
-0.41421356237309243
10
126.00000000000001
20
-25.488588112945898
10
126
20
-12.488588112945909
42
-0.41421356237305862
10
126.5
20
-11.9885881129459
10
139.5
20
-11.988588112945909
42
-0.4142135623731002
10
140
20
-12.488588112945907
10
139.99999999999997
20
-25.488588112945916
42
-0.41421356237308465
10
139.5
20
-25.988588112945905
0
LWPOLYLINE
5
145
100
AcDbEntity
8
0
100
AcDbPolyline
90
8
70
1
43
0.0
10
-6.5000000000000213
20
-25.98858811294587
42
-0.41421356237309637
10
-6.9999999999999929
20
-25.488588112945898
10
-6.9999999999999938
20
-12.488588112945891
42
-0.41421356237309698
10
-6.4999999999999858
20
-11.988588112945882
10
6.4999999999999858
20
-11.988588112945884
42
-0.4142135623730957
10
6.9999999999999929
20
-12.488588112945889
10
6.999999999999976
20
-25.488588112945898
42
-0.41421356237309048
10
6.4999999999999858
20
-25.988588112945887
0
LWPOLYLINE
5
146
100
AcDbEntity
8
0
100
AcDbPolyline
90
8
70
1
43
0.0
10
121.00000000000001
20
-25.488588112945898
42
-0.41421356237312101
10
120.5
20
-25.988588112945905
10
107.5
20
-25.988588112945877
42
-0.41421356237313145
10
107.00000000000001
20
-25.488588112945898
10
107
20
-12.488588112945909
42
-0.41421356237309637
10
107.5
20
-11.9885881129459
10
120.5
20
-11.98858811294593
42
-0.41421356237312884
10
121
20
-12.488588112945907
0
LWPOLYLINE
5
147
100
AcDbEntity
8
0
100
AcDbPolyline
90
8
70
1
43
0.0
10
101.5
20
7.0114118870541207
42
-0.41421356237309309
10
102
20
6.5114118870540993
10
102.00000000000001
20
-6.4885881129459078
42
-0.41421356237306517
10
101.5
20
-6.988588112945898
10
88.5
20
-6.9885881129459122
42
-0.41421356237309309
10
88
20
-6.4885881129458909
10
87.999999999999986
20
6.5114118870540985
42
-0.41421356237305795
10
88.5
20
7.0114118870541065
0
LWPOLYLINE
5
148
100
AcDbEntity
8
0
100
AcDbPolyline
90
8
70
1
43
0.0
10
69.5
20
-6.9885881129459095
42
-0.41421356237310153
10
68.999999999999986
20
-6.4885881129458909
10
68.999999999999986
20
6.5114118870540985
42
-0.41421356237310353
10
69.5
20
7.0114118870541065
10
82.5
20
7.0114118870541038
42
-0.4142135623730937
10
83
20
6.5114118870540993
10
83.000000000000028
20
-6.48858811294589
42
-0.41421356237310414
10
82.5
20
-6.988588112945898
0
LWPOLYLINE
5
149
100
AcDbEntity
8
0
100
AcDbPolyline
90
8
70
1
43
0.0
10
126.49999999999999
20
-44.988588112945898
42
-0.41421356237310542
10
126.00000000000001
20
-44.488588112945912
10
126.00000000000003
20
-31.488588112945905
42
-0.41421356237309243
10
126.5
20
-30.988588112945902
10
139.5
20
-30.988588112945912
42
-0.4142135623730977
10
140
20
-31.488588112945909
10
140
20
-44.488588112945919
42
-0.41421356237309509
10
139.5
20
-44.988588112945898
0
LWPOLYLINE
5
150
100
AcDbEntity
8
0
100
AcDbPolyline
90
38
70
1
43
0.0
10
-7.8000000000000114
20
9.8114118870541187
10
12.624999999999993
20
9.8114118870541187
42
0.41421356237309509
10
14.625000000000021
20
11.81141188705411
42
-0.41421356237309509
10
16.625000000000014
20
13.811411887054103
10
17.624999999999993
20
13.811411887054138
42
-0.41421356237309509
10
19.625000000000021
20
11.81141188705411
42
0.41421356237308854
10
21.624999999999979
20
9.8114118870541169
10
100
20
9.8114118870540992
42
0.41421356237309637
10
102.00000000000001
20
11.81141188705411
42
-0.41421356237309509
10
104
20
13.811411887054103
10
105
20
13.81141188705412
42
-0.41421356237309509
10
107.00000000000001
20
11.81141188705411
42
0.41421356237309925
10
109.00000000000003
20
9.8114118870541169
10
187.375
20
9.8114118870540992
42
0.41421356237309437
10
189.375
20
11.811411887054092
42
-0.41421356237309509
10
191.375
20
13.811411887054085
10
192.375
20
13.81141188705412
42
-0.41421356237309509
10
194.37500000000003
20
11.811411887054092
42
0.41421356237309698
10
196.37500000000003
20
9.8114118870541009
10
216.80000000000004
20
9.8114118870540636
42
-0.41421356237308915
10
218.80000000000001
20
7.8114118870541116
10
218.80000000000001
20
-64.788588112945916
42
-0.4142135623730937
10
216.80000000000004
20
-66.788588112945902
10
162.25
20
-66.788588112945902
42
0.41421356237309637
10
160.25
20
-68.788588112945902
42
-0.41421356237309509
10
158.25
20
-70.788588112945916
10
157.25
20
-70.788588112945902
42
-0.41421356237309509
10
155.25000000000003
20
-68.788588112945902
42
0.4142135623730937
10
153.25
20
-66.788588112945888
10
55.749999999999993
20
-66.788588112945902
42
0.41421356237309243
10
53.749999999999993
20
-68.788588112945902
42
-0.4142135623730977
10
51.749999999999972
20
-70.788588112945902
10
50.749999999999993
20
-70.788588112945888
42
-0.41421356237309509
10
48.75
20
-68.788588112945902
42
0.4142135623730977
10
46.750000000000007
20
-66.788588112945902
10
-7.7999999999999758
20
-66.788588112945874
42
-0.41421356237309637
10
-9.8000000000000043
20
-64.788588112945916
10
-9.8000000000000238
20
7.8114118870541072
42
-0.41421356237309509
0
ENDSEC
0
SECTION
2
OBJECTS
0
DICTIONARY
5
C
100
AcDbDictionary
3
ACAD_GROUP
350
D
3
ACAD_MLINESTYLE
350
17
0
DICTIONARY
5
D
100
AcDbDictionary
0
DICTIONARY
5
1A
330
C
100
AcDbDictionary
0
DICTIONARY
5
17
100
AcDbDictionary
0
ENDSEC
0
EOF
