0
SECTION
2
HEADER
9
$INSUNITS
70
4
9
$ACADVER
1
AC1014
9
$HANDSEED
5
FFFF
0
ENDSEC
0
SECTION
2
TABLES
0
TABLE
2
VPORT
5
8
100
AcDbSymbolTable
0
ENDTAB
0
TABLE
2
LTYPE
5
5
100
AcDbSymbolTable
0
LTYPE
5
14
100
AcDbSymbolTableRecord
100
AcDbLinetypeTableRecord
2
BYBLOCK
70
0
0
LTYPE
5
15
100
AcDbSymbolTableRecord
100
AcDbLinetypeTableRecord
2
BYLAYER
70
0
0
ENDTAB
0
TABLE
2
LAYER
5
2
100
AcDbSymbolTable
70
2
0
LAYER
5
50
100
AcDbSymbolTableRecord
100
AcDbLayerTableRecord
2
0
70
0
6
CONTINUOUS
0
ENDTAB
0
TABLE
2
STYLE
5
3
100
AcDbSymbolTable
70
1
0
STYLE
5
11
100
AcDbSymbolTableRecord
100
AcDbTextStyleTableRecord
2
STANDARD
70
0
0
ENDTAB
0
TABLE
2
VIEW
5
6
100
AcDbSymbolTable
70
0
0
ENDTAB
0
TABLE
2
UCS
5
7
100
AcDbSymbolTable
70
0
0
ENDTAB
0
TABLE
2
APPID
5
9
100
AcDbSymbolTable
70
2
0
APPID
5
12
100
AcDbSymbolTableRecord
100
AcDbRegAppTableRecord
2
ACAD
70
0
0
ENDTAB
0
TABLE
2
DIMSTYLE
5
A
100
AcDbSymbolTable
70
1
0
ENDTAB
0
TABLE
2
BLOCK_RECORD
5
1
100
AcDbSymbolTable
70
1
0
BLOCK_RECORD
5
1F
100
AcDbSymbolTableRecord
100
AcDbBlockTableRecord
2
*MODEL_SPACE
0
BLOCK_RECORD
5
1B
100
AcDbSymbolTableRecord
100
AcDbBlockTableRecord
2
*PAPER_SPACE
0
ENDTAB
0
ENDSEC
0
SECTION
2
BLOCKS
0
BLOCK
5
20
100
AcDbEntity
100
AcDbBlockBegin
2
*MODEL_SPACE
0
ENDBLK
5
21
100
AcDbEntity
100
AcDbBlockEnd
0
BLOCK
5
1C
100
AcDbEntity
100
AcDbBlockBegin
2
*PAPER_SPACE
0
ENDBLK
5
1D
100
AcDbEntity
100
AcDbBlockEnd
0
ENDSEC
0
SECTION
2
ENTITIES
0
CIRCLE
5
100
100
AcDbEntity
8
0
100
AcDbCircle
10
191.87499999999977
20
11.811411887054117
30
0
40
1.0000000000000102
210
0
220
-0
230
1
0
LWPOLYLINE
5
101
100
AcDbEntity
8
0
100
AcDbPolyline
90
8
70
1
43
0.0
10
7.0000000000000231
20
-6.4885881129458864
42
-0.41421356237309509
10
6.5000000000000355
20
-6.9885881129458758
10
-6.4999999999999245
20
-6.9885881129458935
42
-0.41421356237309698
10
-6.9999999999999307
20
-6.4885881129458864
10
-6.999999999999913
20
6.5114118870541136
42
-0.41421356237309509
10
-6.4999999999999245
20
7.0114118870541038
10
6.5000000000000355
20
7.0114118870541207
42
-0.41421356237309637
10
7.0000000000000417
20
6.5114118870541144
0
CIRCLE
5
102
100
AcDbEntity
8
0
100
AcDbCircle
10
51.249999999999972
20
-68.788588112945888
30
0
40
0.99999999999999623
210
-0
220
6.9388939039072284e-18
230
1
0
CIRCLE
5
103
100
AcDbEntity
8
0
100
AcDbCircle
10
17.125000000000032
20
11.811411887054117
30
0
40
1
210
0
220
-0
230
1
0
CIRCLE
5
104
100
AcDbEntity
8
0
100
AcDbCircle
10
104.4999999999999
20
11.811411887054117
30
0
40
0.99999999999999623
210
-0
220
6.9388939039072284e-18
230
1
0
CIRCLE
5
105
100
AcDbEntity
8
0
100
AcDbCircle
10
157.74999999999983
20
-68.788588112945888
30
0
40
1.0000000000000102
210
0
220
-0
230
1
0
LWPOLYLINE
5
106
100
AcDbEntity
8
0
100
AcDbPolyline
90
8
70
1
43
0.0
10
215.49999999999977
20
7.011411887054094
10
202.49999999999977
20
7.011411887054094
42
0.41421356237304557
10
201.99999999999983
20
6.5114118870540949
10
201.99999999999977
20
-6.4885881129459166
42
0.41421356237310153
10
202.49999999999977
20
-6.9885881129459273
10
215.49999999999977
20
-6.9885881129459149
42
0.41421356237304557
10
215.99999999999977
20
-6.4885881129459166
10
215.99999999999977
20
6.5114118870540949
42
0.41421356237310153
0
LWPOLYLINE
5
107
100
AcDbEntity
8
0
100
AcDbPolyline
90
8
70
1
43
0.0
10
178.24999999999983
20
-31.488588112945884
10
178.24999999999983
20
-44.488588112945884
42
0.41421356237312101
10
178.74999999999983
20
-44.988588112945884
10
194.1249999999998
20
-44.988588112945884
42
0.4142135623730222
10
194.6249999999998
20
-44.488588112945884
10
194.6249999999998
20
-31.488588112945891
42
0.41421356237310281
10
194.1249999999998
20
-30.988588112945887
10
178.74999999999983
20
-30.988588112945891
42
0.41421356237307944
0
LWPOLYLINE
5
108
100
AcDbEntity
8
0
100
AcDbPolyline
90
8
70
1
43
0.0
10
163.99999999999983
20
6.5114118870540949
10
163.99999999999983
20
-6.4885881129459078
42
0.41421356237312235
10
164.49999999999986
20
-6.9885881129459069
10
177.49999999999983
20
-6.988588112945906
42
0.41421356237307683
10
177.99999999999983
20
-6.4885881129459078
10
177.99999999999983
20
6.5114118870540949
42
0.41421356237315354
10
177.49999999999977
20
7.011411887054094
10
164.49999999999983
20
7.011411887054102
42
0.41421356237310153
0
LWPOLYLINE
5
109
100
AcDbEntity
8
0
100
AcDbPolyline
90
14
70
1
43
0.0
10
156.87499999999983
20
-50.488588112945898
42
-0.41421356237312101
10
157.37499999999983
20
-49.988588112945898
10
158.14999999999984
20
-49.988588112945884
10
158.14999999999984
20
-48.488588112945891
42
-0.41421356237311063
10
158.64999999999984
20
-47.988588112945898
10
164.64999999999981
20
-47.988588112945919
42
-0.4142135623731002
10
165.14999999999981
20
-48.488588112945898
10
165.14999999999984
20
-49.988588112945891
10
170.37499999999983
20
-49.988588112945891
42
-0.41421356237313667
10
170.87499999999983
20
-50.488588112945898
10
170.87499999999989
20
-63.488588112945898
42
-0.41421356237307422
10
170.37499999999983
20
-63.988588112945891
10
157.37499999999986
20
-63.988588112945905
42
-0.41421356237310542
10
156.87499999999983
20
-63.488588112945898
0
LWPOLYLINE
5
110
100
AcDbEntity
8
0
100
AcDbPolyline
90
8
70
1
43
0.0
10
125.99999999999989
20
6.5114118870541038
10
125.99999999999989
20
-6.4885881129458962
42
0.4142135623730937
10
126.49999999999989
20
-6.9885881129459069
10
139.49999999999986
20
-6.9885881129459033
42
0.41421356237307361
10
139.99999999999986
20
-6.4885881129458953
10
139.99999999999989
20
6.5114118870541047
42
0.41421356237307361
10
139.49999999999986
20
7.0114118870541056
10
126.49999999999989
20
7.0114118870541029
42
0.41421356237311585
0
LWPOLYLINE
5
111
100
AcDbEntity
8
0
100
AcDbPolyline
90
8
70
1
43
0.0
10
123.62499999999989
20
-50.488588112945898
10
123.62499999999989
20
-63.488588112945898
42
0.41421356237307422
10
124.12499999999989
20
-63.988588112945884
10
137.12499999999986
20
-63.988588112945891
42
0.4142135623731002
10
137.62499999999986
20
-63.488588112945898
10
137.62499999999986
20
-50.488588112945898
42
0.41421356237307944
10
137.12499999999986
20
-49.988588112945884
10
124.12499999999989
20
-49.988588112945898
42
0.41421356237310542
0
LWPOLYLINE
5
112
100
AcDbEntity
8
0
100
AcDbPolyline
90
8
70
1
43
0.0
10
87.999999999999943
20
6.5114118870541038
10
87.999999999999943
20
-6.4885881129458962
42
0.4142135623730625
10
88.499999999999915
20
-6.9885881129458971
10
101.4999999999999
20
-6.9885881129458944
42
0.41421356237309959
10
101.9999999999999
20
-6.4885881129458953
10
101.9999999999999
20
6.5114118870541047
42
0.41421356237306317
10
101.49999999999991
20
7.011411887054094
10
88.499999999999929
20
7.0114118870541118
42
0.41421356237307422
0
LWPOLYLINE
5
113
100
AcDbEntity
8
0
100
AcDbPolyline
90
14
70
1
43
0.0
10
98.062999999999917
20
-47.988588112945891
42
-0.41421356237307422
10
98.562999999999917
20
-48.488588112945898
10
98.562999999999917
20
-49.988588112945891
10
110.99999999999991
20
-49.988588112945884
42
-0.4142135623731002
10
111.49999999999991
20
-50.488588112945898
10
111.49999999999991
20
-63.488588112945898
42
-0.41421356237311585
10
110.99999999999991
20
-63.988588112945891
10
97.999999999999943
20
-63.988588112945891
42
-0.4142135623731002
10
97.499999999999929
20
-63.488588112945898
10
97.499999999999915
20
-62.988588112945898
10
92.062999999999917
20
-62.988588112945891
42
-0.41421356237309509
10
91.562999999999903
20
-62.488588112945884
10
91.562999999999903
20
-48.488588112945891
42
-0.41421356237311063
10
92.062999999999917
20
-47.988588112945898
0
LWPOLYLINE
5
114
100
AcDbEntity
8
0
100
AcDbPolyline
90
8
70
1
43
0.0
10
54.749999999999979
20
-12.488588112945891
10
54.749999999999979
20
-25.488588112945894
42
0.4142135623730977
10
55.249999999999979
20
-25.988588112945891
10
68.249999999999957
20
-25.988588112945891
42
0.4142135623731002
10
68.749999999999957
20
-25.488588112945891
10
68.749999999999943
20
-12.488588112945887
42
0.41421356237308465
10
68.249999999999957
20
-11.988588112945891
10
55.249999999999979
20
-11.98858811294588
42
0.41421356237310281
0
LWPOLYLINE
5
115
100
AcDbEntity
8
0
100
AcDbPolyline
90
8
70
1
43
0.0
10
35.750000000000014
20
-12.488588112945891
10
35.750000000000014
20
-25.488588112945894
42
0.41421356237308465
10
36.25
20
-25.988588112945891
10
49.249999999999986
20
-25.988588112945891
42
0.4142135623731002
10
49.749999999999986
20
-25.488588112945891
10
49.75
20
-12.488588112945887
42
0.41421356237310542
10
49.249999999999986
20
-11.988588112945891
10
36.25
20
-11.98858811294588
42
0.41421356237309509
0
LWPOLYLINE
5
116
100
AcDbEntity
8
0
100
AcDbPolyline
90
14
70
1
43
0.0
10
38.125000000000007
20
-50.488588112945898
42
-0.4142135623730977
10
38.625000000000007
20
-49.988588112945898
10
43.850000000000009
20
-49.988588112945884
10
43.849999999999994
20
-48.488588112945891
42
-0.41421356237308982
10
44.349999999999994
20
-47.988588112945898
10
50.34999999999998
20
-47.988588112945898
42
-0.41421356237311063
10
50.849999999999994
20
-48.488588112945898
10
50.84999999999998
20
-49.988588112945891
10
51.624999999999979
20
-49.988588112945905
42
-0.41421356237307422
10
52.124999999999972
20
-50.488588112945898
10
52.124999999999979
20
-63.488588112945898
42
-0.41421356237309509
10
51.624999999999979
20
-63.988588112945891
10
38.625
20
-63.988588112945905
42
-0.41421356237308982
10
38.125
20
-63.488588112945898
0
LWPOLYLINE
5
117
100
AcDbEntity
8
0
100
AcDbPolyline
90
8
70
1
43
0.0
10
-4.6249999999999281
20
-12.488588112945891
10
-4.6249999999999281
20
-25.488588112945894
42
0.4142135623731012
10
-4.1249999999999467
20
-25.988588112945891
10
8.8750000000000533
20
-25.988588112945902
42
0.41421356237309698
10
9.3750000000000426
20
-25.488588112945891
10
9.3750000000000426
20
-12.488588112945887
42
0.4142135623730977
10
8.8750000000000497
20
-11.988588112945891
10
-4.1249999999999183
20
-11.988588112945887
42
0.41421356237310192
0
LWPOLYLINE
5
118
100
AcDbEntity
8
0
100
AcDbPolyline
90
8
70
1
43
0.0
10
16.750000000000028
20
-50.488588112945898
42
-0.4142135623730977
10
17.250000000000032
20
-49.988588112945898
10
32.625000000000014
20
-49.988588112945884
42
-0.4142135623731002
10
33.125000000000014
20
-50.488588112945898
10
33.125000000000007
20
-63.488588112945898
42
-0.41421356237309509
10
32.625000000000014
20
-63.988588112945891
10
17.250000000000032
20
-63.988588112945884
42
-0.41421356237309509
10
16.750000000000043
20
-63.488588112945898
0
LWPOLYLINE
5
119
100
AcDbEntity
8
0
100
AcDbPolyline
90
8
70
1
43
0.0
10
16.750000000000032
20
-12.488588112945891
10
16.750000000000032
20
-25.488588112945894
42
0.41421356237309892
10
17.250000000000039
20
-25.988588112945891
10
30.250000000000021
20
-25.988588112945902
42
0.41421356237309509
10
30.750000000000011
20
-25.488588112945891
10
30.750000000000028
20
-12.488588112945887
42
0.4142135623730977
10
30.250000000000014
20
-11.988588112945891
10
17.250000000000032
20
-11.98858811294588
42
0.41421356237310281
0
LWPOLYLINE
5
120
100
AcDbEntity
8
0
100
AcDbPolyline
90
8
70
1
43
0.0
10
49.999999999999986
20
6.5114118870541029
10
49.999999999999986
20
-6.4885881129458864
42
0.41421356237310353
10
50.499999999999986
20
-6.9885881129458873
10
63.499999999999972
20
-6.9885881129458944
42
0.41421356237309437
10
63.999999999999972
20
-6.4885881129458953
10
63.999999999999979
20
6.5114118870541047
42
0.41421356237309825
10
63.499999999999972
20
7.0114118870541153
10
50.499999999999986
20
7.0114118870541029
42
0.41421356237309698
0
LWPOLYLINE
5
121
100
AcDbEntity
8
0
100
AcDbPolyline
90
8
70
1
43
0.0
10
76.624999999999957
20
-63.988588112945905
42
-0.41421356237310542
10
76.124999999999943
20
-63.488588112945898
10
76.124999999999957
20
-50.488588112945898
42
-0.41421356237309509
10
76.624999999999957
20
-49.988588112945898
10
89.624999999999915
20
-49.988588112945884
42
-0.41421356237307944
10
90.124999999999943
20
-50.488588112945898
10
90.124999999999915
20
-63.488588112945898
42
-0.4142135623731002
10
89.624999999999929
20
-63.988588112945891
0
LWPOLYLINE
5
122
100
AcDbEntity
8
0
100
AcDbPolyline
90
8
70
1
43
0.0
10
69.499999999999957
20
-6.9885881129458873
42
-0.41421356237308526
10
68.999999999999972
20
-6.4885881129458962
10
68.999999999999957
20
6.5114118870541038
42
-0.41421356237309637
10
69.499999999999957
20
7.0114118870541029
10
82.499999999999929
20
7.0114118870540931
42
-0.41421356237311519
10
82.999999999999915
20
6.5114118870541047
10
82.999999999999943
20
-6.4885881129458953
42
-0.41421356237311519
10
82.499999999999929
20
-6.9885881129458944
0
LWPOLYLINE
5
123
100
AcDbEntity
8
0
100
AcDbPolyline
90
8
70
1
43
0.0
10
115.18699999999988
20
-48.488588112945891
10
115.18699999999988
20
-62.488588112945884
42
0.41421356237308465
10
115.6869999999999
20
-62.988588112945891
10
121.6869999999999
20
-62.988588112945891
42
0.41421356237308982
10
122.1869999999999
20
-62.488588112945891
10
122.1869999999999
20
-48.488588112945898
42
0.41421356237313667
10
121.68699999999987
20
-47.988588112945891
10
115.68699999999987
20
-47.988588112945898
42
0.41421356237309509
0
LWPOLYLINE
5
124
100
AcDbEntity
8
0
100
AcDbPolyline
90
8
70
1
43
0.0
10
106.9999999999999
20
6.5114118870541038
10
106.9999999999999
20
-6.4885881129458962
42
0.41421356237310414
10
107.49999999999991
20
-6.9885881129458971
10
120.4999999999999
20
-6.9885881129459033
42
0.41421356237309437
10
120.99999999999991
20
-6.4885881129458953
10
120.99999999999991
20
6.5114118870541047
42
0.4142135623731048
10
120.49999999999989
20
7.011411887054094
10
107.49999999999989
20
7.0114118870541029
42
0.41421356237311585
0
LWPOLYLINE
5
125
100
AcDbEntity
8
0
100
AcDbPolyline
90
8
70
1
43
0.0
10
139.06299999999985
20
-48.488588112945891
10
139.06299999999985
20
-62.488588112945884
42
0.41421356237309509
10
139.56299999999985
20
-62.988588112945891
10
145.56299999999985
20
-62.988588112945877
42
0.41421356237309509
10
146.06299999999982
20
-62.488588112945891
10
146.06299999999985
20
-48.488588112945898
42
0.41421356237306384
10
145.56299999999987
20
-47.988588112945891
10
139.56299999999985
20
-47.988588112945898
42
0.41421356237311063
0
LWPOLYLINE
5
126
100
AcDbEntity
8
0
100
AcDbPolyline
90
8
70
1
43
0.0
10
144.99999999999983
20
6.5114118870541038
10
144.99999999999983
20
-6.4885881129459078
42
0.41421356237307289
10
145.49999999999986
20
-6.9885881129459069
10
158.49999999999983
20
-6.988588112945906
42
0.41421356237311457
10
158.99999999999983
20
-6.4885881129459078
10
158.99999999999983
20
6.5114118870540949
42
0.4142135623730937
10
158.49999999999983
20
7.011411887054094
10
145.49999999999986
20
7.0114118870541029
42
0.4142135623731002
0
LWPOLYLINE
5
127
100
AcDbEntity
8
0
100
AcDbPolyline
90
8
70
1
43
0.0
10
168.74999999999983
20
-12.488588112945891
10
168.74999999999983
20
-25.488588112945894
42
0.41421356237310281
10
169.24999999999983
20
-25.988588112945891
10
182.2499999999998
20
-25.988588112945902
42
0.41421356237310542
10
182.7499999999998
20
-25.488588112945891
10
182.7499999999998
20
-12.488588112945887
42
0.41421356237312362
10
182.2499999999998
20
-11.988588112945891
10
169.24999999999983
20
-11.98858811294588
42
0.41421356237312629
0
LWPOLYLINE
5
128
100
AcDbEntity
8
0
100
AcDbPolyline
90
8
70
1
43
0.0
10
215.56249999999946
20
-30.988588112945884
10
200.18124999999952
20
-30.988588112945884
42
0.4142135623730977
10
199.68124999999952
20
-31.488588112945884
10
199.68124999999952
20
-44.488588112945884
42
0.41421356237309509
10
200.18124999999952
20
-44.988588112945884
10
215.56249999999946
20
-44.988588112945877
42
0.414213562373069
10
216.06249999999946
20
-44.488588112945884
10
216.06249999999946
20
-31.48858811294588
42
0.414213562373134
0
LWPOLYLINE
5
129
100
AcDbEntity
8
0
100
AcDbPolyline
90
8
70
1
43
0.0
10
192.24999999999983
20
-63.488588112945898
42
-0.41421356237307422
10
191.7499999999998
20
-63.988588112945891
10
176.37499999999983
20
-63.988588112945877
42
-0.41421356237312101
10
175.8749999999998
20
-63.488588112945898
10
175.87499999999983
20
-50.488588112945898
42
-0.4142135623730222
10
176.37499999999983
20
-49.988588112945898
10
191.7499999999998
20
-49.988588112945891
42
-0.41421356237313667
10
192.2499999999998
20
-50.488588112945898
0
LWPOLYLINE
5
130
100
AcDbEntity
8
0
100
AcDbPolyline
90
8
70
1
43
0.0
10
182.9999999999998
20
6.5114118870540949
10
182.9999999999998
20
-6.4885881129459078
42
0.41421356237312235
10
183.49999999999983
20
-6.9885881129459175
10
196.4999999999998
20
-6.988588112945906
42
0.41421356237307683
10
196.99999999999983
20
-6.4885881129459078
10
196.99999999999983
20
6.5114118870540949
42
0.41421356237315354
10
196.49999999999977
20
7.011411887054094
10
183.4999999999998
20
7.0114118870540931
42
0.41421356237304557
0
LWPOLYLINE
5
131
100
AcDbEntity
8
0
100
AcDbPolyline
90
8
70
1
43
0.0
10
159.24999999999983
20
-31.488588112945884
10
159.24999999999983
20
-44.488588112945884
42
0.41421356237311063
10
159.74999999999986
20
-44.988588112945884
10
172.74999999999983
20
-44.988588112945884
42
0.4142135623730222
10
173.24999999999983
20
-44.488588112945884
10
173.24999999999986
20
-31.488588112945891
42
0.41421356237312362
10
172.7499999999998
20
-30.988588112945887
10
159.74999999999983
20
-30.988588112945891
42
0.41421356237310802
0
LWPOLYLINE
5
132
100
AcDbEntity
8
0
100
AcDbPolyline
90
8
70
1
43
0.0
10
130.74999999999989
20
-12.488588112945891
10
130.74999999999989
20
-25.488588112945894
42
0.41421356237306384
10
131.24999999999986
20
-25.988588112945891
10
144.24999999999986
20
-25.988588112945902
42
0.41421356237307683
10
144.74999999999986
20
-25.488588112945891
10
144.74999999999986
20
-12.488588112945887
42
0.41421356237306517
10
144.24999999999986
20
-11.988588112945891
10
131.24999999999989
20
-11.988588112945887
42
0.41421356237308982
0
LWPOLYLINE
5
133
100
AcDbEntity
8
0
100
AcDbPolyline
90
8
70
1
43
0.0
10
134.74999999999989
20
-30.988588112945887
10
121.7499999999999
20
-30.988588112945887
42
0.41421356237310802
10
121.24999999999989
20
-31.488588112945884
10
121.24999999999989
20
-44.488588112945884
42
0.41421356237308982
10
121.74999999999989
20
-44.988588112945884
10
134.74999999999989
20
-44.988588112945884
42
0.41421356237312101
10
135.24999999999986
20
-44.488588112945884
10
135.24999999999989
20
-31.488588112945891
42
0.41421356237308465
0
LWPOLYLINE
5
134
100
AcDbEntity
8
0
100
AcDbPolyline
90
8
70
1
43
0.0
10
106.24999999999989
20
-11.988588112945891
10
93.249999999999915
20
-11.988588112945891
42
0.41421356237311718
10
92.749999999999915
20
-12.488588112945891
10
92.749999999999929
20
-25.488588112945894
42
0.41421356237311319
10
93.249999999999915
20
-25.988588112945891
10
106.24999999999989
20
-25.988588112945884
42
0.41421356237311585
10
106.7499999999999
20
-25.488588112945891
10
106.7499999999999
20
-12.488588112945887
42
0.41421356237309637
0
LWPOLYLINE
5
135
100
AcDbEntity
8
0
100
AcDbPolyline
90
8
70
1
43
0.0
10
83.249999999999943
20
-31.488588112945884
10
83.249999999999943
20
-44.488588112945884
42
0.4142135623731002
10
83.749999999999929
20
-44.988588112945884
10
96.749999999999915
20
-44.988588112945884
42
0.41421356237310542
10
97.249999999999929
20
-44.488588112945884
10
97.249999999999929
20
-31.488588112945891
42
0.41421356237307422
10
96.749999999999915
20
-30.988588112945887
10
83.749999999999929
20
-30.988588112945884
42
0.41421356237309243
0
LWPOLYLINE
5
136
100
AcDbEntity
8
0
100
AcDbPolyline
90
8
70
1
43
0.0
10
77.749999999999943
20
-30.988588112945887
10
64.749999999999972
20
-30.988588112945887
42
0.41421356237309243
10
64.249999999999972
20
-31.488588112945884
10
64.249999999999957
20
-44.488588112945884
42
0.41421356237310542
10
64.749999999999957
20
-44.988588112945884
10
77.749999999999943
20
-44.988588112945884
42
0.41421356237309509
10
78.249999999999943
20
-44.488588112945884
10
78.249999999999943
20
-31.488588112945891
42
0.41421356237309243
0
LWPOLYLINE
5
137
100
AcDbEntity
8
0
100
AcDbPolyline
90
8
70
1
43
0.0
10
31.000000000000014
20
6.5114118870541029
10
31.000000000000014
20
-6.4885881129458864
42
0.41421356237309109
10
31.500000000000014
20
-6.9885881129458873
10
44.499999999999993
20
-6.9885881129458847
42
0.41421356237309698
10
44.999999999999993
20
-6.4885881129458847
10
44.999999999999986
20
6.5114118870541047
42
0.41421356237308526
10
44.499999999999993
20
7.011411887054094
10
31.500000000000014
20
7.0114118870541029
42
0.4142135623730957
0
LWPOLYLINE
5
138
100
AcDbEntity
8
0
100
AcDbPolyline
90
8
70
1
43
0.0
10
45.249999999999993
20
-31.488588112945884
10
45.249999999999993
20
-44.488588112945884
42
0.41421356237308465
10
45.749999999999986
20
-44.988588112945884
10
58.749999999999964
20
-44.988588112945884
42
0.41421356237310542
10
59.249999999999972
20
-44.488588112945884
10
59.249999999999972
20
-31.488588112945891
42
0.41421356237310281
10
58.749999999999964
20
-30.988588112945887
10
45.749999999999986
20
-30.988588112945884
42
0.41421356237309509
0
LWPOLYLINE
5
139
100
AcDbEntity
8
0
100
AcDbPolyline
90
8
70
1
43
0.0
10
0.12500000000005734
20
-31.488588112945884
10
0.12500000000004835
20
-44.488588112945884
42
0.41421356237310447
10
0.62500000000005551
20
-44.988588112945884
10
13.625000000000036
20
-44.988588112945884
42
0.4142135623730977
10
14.125000000000034
20
-44.488588112945884
10
14.125000000000025
20
-31.488588112945891
42
0.41421356237309109
10
13.625000000000036
20
-30.988588112945887
10
0.62500000000005451
20
-30.988588112945891
42
0.41421356237309631
0
LWPOLYLINE
5
140
100
AcDbEntity
8
0
100
AcDbPolyline
90
8
70
1
43
0.0
10
-4.6249999999999485
20
-50.488588112945898
10
-4.6249999999999281
20
-63.488588112945898
42
0.41421356237309925
10
-4.1249999999999449
20
-63.988588112945884
10
8.875000000000032
20
-63.988588112945891
42
0.41421356237309509
10
9.3750000000000426
20
-63.488588112945898
10
9.3750000000000391
20
-50.488588112945898
42
0.41421356237309176
10
8.8750000000000515
20
-49.988588112945884
10
-4.1249999999999485
20
-49.988588112945898
42
0.41421356237310319
0
LWPOLYLINE
5
141
100
AcDbEntity
8
0
100
AcDbPolyline
90
8
70
1
43
0.0
10
39.75
20
-30.988588112945887
10
26.750000000000021
20
-30.988588112945887
42
0.41421356237309243
10
26.250000000000014
20
-31.488588112945884
10
26.250000000000014
20
-44.488588112945884
42
0.4142135623731002
10
26.750000000000014
20
-44.988588112945884
10
39.75
20
-44.988588112945884
42
0.41421356237310281
10
40.249999999999993
20
-44.488588112945884
10
40.249999999999986
20
-31.488588112945891
42
0.41421356237308465
0
LWPOLYLINE
5
142
100
AcDbEntity
8
0
100
AcDbPolyline
90
8
70
1
43
0.0
10
12.000000000000039
20
6.5114118870541029
10
12.000000000000039
20
-6.4885881129458864
42
0.41421356237309698
10
12.500000000000037
20
-6.9885881129458767
10
25.500000000000021
20
-6.9885881129458847
42
0.4142135623730957
10
26.000000000000018
20
-6.4885881129458847
10
26.000000000000028
20
6.5114118870541047
42
0.4142135623730937
10
25.500000000000021
20
7.0114118870541056
10
12.500000000000037
20
7.0114118870541118
42
0.4142135623730977
0
LWPOLYLINE
5
143
100
AcDbEntity
8
0
100
AcDbPolyline
90
8
70
1
43
0.0
10
67.686999999999955
20
-48.488588112945891
10
67.686999999999955
20
-62.488588112945884
42
0.41421356237310542
10
68.186999999999955
20
-62.988588112945891
10
74.186999999999955
20
-62.988588112945891
42
0.4142135623731002
10
74.686999999999955
20
-62.488588112945891
10
74.686999999999955
20
-48.488588112945898
42
0.41421356237310542
10
74.186999999999955
20
-47.988588112945891
10
68.186999999999955
20
-47.988588112945898
42
0.41421356237308982
0
LWPOLYLINE
5
144
100
AcDbEntity
8
0
100
AcDbPolyline
90
8
70
1
43
0.0
10
73.749999999999943
20
-12.488588112945891
10
73.749999999999943
20
-25.488588112945894
42
0.41421356237308204
10
74.249999999999957
20
-25.988588112945891
10
87.249999999999929
20
-25.988588112945884
42
0.4142135623731002
10
87.749999999999929
20
-25.488588112945891
10
87.749999999999929
20
-12.488588112945887
42
0.41421356237307549
10
87.249999999999929
20
-11.988588112945891
10
74.249999999999957
20
-11.98858811294588
42
0.41421356237310802
0
LWPOLYLINE
5
145
100
AcDbEntity
8
0
100
AcDbPolyline
90
8
70
1
43
0.0
10
102.24999999999991
20
-31.488588112945884
10
102.24999999999991
20
-44.488588112945884
42
0.41421356237307944
10
102.7499999999999
20
-44.988588112945884
10
115.74999999999989
20
-44.988588112945884
42
0.41421356237312101
10
116.24999999999987
20
-44.488588112945884
10
116.24999999999989
20
-31.488588112945891
42
0.41421356237309509
10
115.74999999999989
20
-30.988588112945887
10
102.7499999999999
20
-30.988588112945884
42
0.41421356237307161
0
LWPOLYLINE
5
146
100
AcDbEntity
8
0
100
AcDbPolyline
90
8
70
1
43
0.0
10
112.24999999999989
20
-25.988588112945902
42
-0.41421356237307422
10
111.74999999999989
20
-25.488588112945894
10
111.74999999999991
20
-12.488588112945891
42
-0.41421356237308982
10
112.24999999999989
20
-11.988588112945887
10
125.24999999999986
20
-11.9885881129459
42
-0.41421356237312501
10
125.74999999999987
20
-12.488588112945887
10
125.74999999999989
20
-25.488588112945891
42
-0.4142135623730977
10
125.24999999999989
20
-25.988588112945902
0
LWPOLYLINE
5
147
100
AcDbEntity
8
0
100
AcDbPolyline
90
8
70
1
43
0.0
10
153.74999999999983
20
-30.988588112945887
10
140.74999999999986
20
-30.988588112945887
42
0.41421356237307161
10
140.24999999999986
20
-31.488588112945884
10
140.24999999999986
20
-44.488588112945884
42
0.41421356237307944
10
140.74999999999986
20
-44.988588112945884
10
153.74999999999983
20
-44.988588112945884
42
0.41421356237310542
10
154.24999999999986
20
-44.488588112945884
10
154.24999999999986
20
-31.488588112945891
42
0.41421356237307422
0
LWPOLYLINE
5
148
100
AcDbEntity
8
0
100
AcDbPolyline
90
8
70
1
43
0.0
10
163.24999999999983
20
-11.988588112945891
10
150.24999999999983
20
-11.988588112945891
42
0.41421356237311585
10
149.74999999999986
20
-12.488588112945891
10
149.74999999999983
20
-25.488588112945894
42
0.41421356237309509
10
150.24999999999983
20
-25.988588112945891
10
163.24999999999983
20
-25.988588112945902
42
0.41421356237310542
10
163.74999999999983
20
-25.488588112945891
10
163.74999999999983
20
-12.488588112945887
42
0.41421356237312362
0
LWPOLYLINE
5
149
100
AcDbEntity
8
0
100
AcDbPolyline
90
8
70
1
43
0.0
10
194.8749999999998
20
-12.488588112945891
10
194.8749999999998
20
-25.488588112945894
42
0.41421356237310281
10
195.3749999999998
20
-25.988588112945891
10
208.37499999999977
20
-25.988588112945891
42
0.4142135623730534
10
208.87499999999977
20
-25.488588112945891
10
208.87499999999977
20
-12.488588112945887
42
0.41421356237312362
10
208.37499999999977
20
-11.988588112945891
10
195.3749999999998
20
-11.98858811294588
42
0.41421356237312629
0
LWPOLYLINE
5
150
100
AcDbEntity
8
0
100
AcDbPolyline
90
8
70
1
43
0.0
10
200.12499999999983
20
-63.988588112945877
42
-0.41421356237312101
10
199.6249999999998
20
-63.488588112945898
10
199.62499999999983
20
-50.488588112945898
42
-0.4142135623730222
10
200.12499999999983
20
-49.988588112945898
10
213.12499999999974
20
-49.988588112945891
42
-0.41421356237313667
10
213.62499999999977
20
-50.488588112945898
10
213.6249999999998
20
-63.488588112945898
42
-0.41421356237307422
10
213.12499999999974
20
-63.988588112945891
0
LWPOLYLINE
5
151
100
AcDbEntity
8
0
100
AcDbPolyline
90
38
70
1
43
0.0
10
-7.7999999999999421
20
9.8114118870541169
10
12.625000000000039
20
9.8114118870541169
42
0.41421356237309598
10
14.625000000000036
20
11.811411887054117
42
-0.41421356237309509
10
16.625000000000036
20
13.811411887054117
10
17.625000000000032
20
13.811411887054124
42
-0.41421356237309509
10
19.625000000000039
20
11.811411887054117
42
0.4142135623730937
10
21.625000000000021
20
9.8114118870541169
10
99.999999999999915
20
9.8114118870541063
42
0.41421356237310053
10
101.9999999999999
20
11.811411887054117
42
-0.41421356237309509
10
103.9999999999999
20
13.811411887054117
10
104.99999999999989
20
13.811411887054128
42
-0.41421356237309509
10
106.9999999999999
20
11.811411887054117
42
0.41421356237309825
10
108.99999999999991
20
9.8114118870541169
10
187.3749999999998
20
9.8114118870541276
42
0.41421356237309437
10
189.37499999999977
20
11.811411887054117
42
-0.41421356237309509
10
191.37499999999977
20
13.811411887054117
10
192.3749999999998
20
13.811411887054145
42
-0.41421356237309509
10
194.37499999999983
20
11.811411887054117
42
0.41421356237309698
10
196.37499999999983
20
9.8114118870541063
10
216.79999999999978
20
9.8114118870540672
42
-0.41421356237309093
10
218.79999999999978
20
7.8114118870541027
10
218.79999999999978
20
-64.788588112945888
42
-0.41421356237309509
10
216.79999999999978
20
-66.788588112945874
10
162.24999999999983
20
-66.788588112945888
42
0.4142135623730937
10
160.24999999999983
20
-68.788588112945888
42
-0.41421356237309509
10
158.24999999999983
20
-70.788588112945888
10
157.24999999999983
20
-70.78858811294586
42
-0.41421356237309509
10
155.24999999999986
20
-68.788588112945888
42
0.41421356237309892
10
153.24999999999983
20
-66.788588112945874
10
55.749999999999972
20
-66.788588112945888
42
0.4142135623730977
10
53.749999999999986
20
-68.788588112945888
42
-0.41421356237309509
10
51.749999999999979
20
-70.788588112945888
10
50.749999999999972
20
-70.788588112945902
42
-0.41421356237309509
10
48.749999999999964
20
-68.788588112945888
42
0.41421356237309509
10
46.749999999999986
20
-66.788588112945874
10
-7.7999999999999137
20
-66.788588112945874
42
-0.41421356237309681
10
-9.7999999999999314
20
-64.788588112945902
10
-9.7999999999999545
20
7.8114118870541045
42
-0.41421356237309515
0
ENDSEC
0
SECTION
2
OBJECTS
0
DICTIONARY
5
C
100
AcDbDictionary
3
ACAD_GROUP
350
D
3
ACAD_MLINESTYLE
350
17
0
DICTIONARY
5
D
100
AcDbDictionary
0
DICTIONARY
5
1A
330
C
100
AcDbDictionary
0
DICTIONARY
5
17
100
AcDbDictionary
0
ENDSEC
0
EOF
