%TF.GenerationSoftware,KiCad,Pcbnew,(6.0.7-1)-1*%
%TF.CreationDate,2022-12-13T16:34:22+02:00*%
%TF.ProjectId,Planck Drop In PCB,506c616e-636b-4204-9472-6f7020496e20,rev?*%
%TF.SameCoordinates,Original*%
%TF.FileFunction,Soldermask,Bot*%
%TF.FilePolarity,Negative*%
%FSLAX46Y46*%
G04 Gerber Fmt 4.6, Leading zero omitted, Abs format (unit mm)*
G04 Created by KiCad (PCBNEW (6.0.7-1)-1) date 2022-12-13 16:34:22*
%MOMM*%
%LPD*%
G01*
G04 APERTURE LIST*
G04 Aperture macros list*
%AMRoundRect*
0 Rectangle with rounded corners*
0 $1 Rounding radius*
0 $2 $3 $4 $5 $6 $7 $8 $9 X,Y pos of 4 corners*
0 Add a 4 corners polygon primitive as box body*
4,1,4,$2,$3,$4,$5,$6,$7,$8,$9,$2,$3,0*
0 Add four circle primitives for the rounded corners*
1,1,$1+$1,$2,$3*
1,1,$1+$1,$4,$5*
1,1,$1+$1,$6,$7*
1,1,$1+$1,$8,$9*
0 Add four rect primitives between the rounded corners*
20,1,$1+$1,$2,$3,$4,$5,0*
20,1,$1+$1,$4,$5,$6,$7,0*
20,1,$1+$1,$6,$7,$8,$9,0*
20,1,$1+$1,$8,$9,$2,$3,0*%
%AMHorizOval*
0 Thick line with rounded ends*
0 $1 width*
0 $2 $3 position (X,Y) of the first rounded end (center of the circle)*
0 $4 $5 position (X,Y) of the second rounded end (center of the circle)*
0 Add line between two ends*
20,1,$1,$2,$3,$4,$5,0*
0 Add two circle primitives to create the rounded ends*
1,1,$1,$2,$3*
1,1,$1,$4,$5*%
G04 Aperture macros list end*
%ADD10C,0.200000*%
%ADD11C,3.987800*%
%ADD12C,1.750000*%
%ADD13C,2.250000*%
%ADD14HorizOval,2.250000X0.655001X0.730000X-0.655001X-0.730000X0*%
%ADD15HorizOval,2.250000X0.020000X0.290000X-0.020000X-0.290000X0*%
%ADD16C,3.048000*%
%ADD17HorizOval,2.250000X0.655008X0.729993X-0.655008X-0.729993X0*%
%ADD18HorizOval,2.250000X0.020004X0.290000X-0.020004X-0.290000X0*%
%ADD19R,2.000000X2.000000*%
%ADD20C,2.000000*%
%ADD21R,2.000000X3.200000*%
%ADD22RoundRect,0.140000X0.140000X0.170000X-0.140000X0.170000X-0.140000X-0.170000X0.140000X-0.170000X0*%
%ADD23R,1.200000X0.900000*%
%ADD24RoundRect,0.175000X-0.175000X-0.175000X0.175000X-0.175000X0.175000X0.175000X-0.175000X0.175000X0*%
%ADD25R,0.700000X0.700000*%
%ADD26RoundRect,0.140000X0.170000X-0.140000X0.170000X0.140000X-0.170000X0.140000X-0.170000X-0.140000X0*%
%ADD27RoundRect,0.175000X0.175000X0.175000X-0.175000X0.175000X-0.175000X-0.175000X0.175000X-0.175000X0*%
%ADD28RoundRect,0.135000X-0.135000X-0.185000X0.135000X-0.185000X0.135000X0.185000X-0.135000X0.185000X0*%
%ADD29RoundRect,0.140000X-0.140000X-0.170000X0.140000X-0.170000X0.140000X0.170000X-0.140000X0.170000X0*%
%ADD30RoundRect,0.140000X-0.170000X0.140000X-0.170000X-0.140000X0.170000X-0.140000X0.170000X0.140000X0*%
%ADD31RoundRect,0.135000X0.135000X0.185000X-0.135000X0.185000X-0.135000X-0.185000X0.135000X-0.185000X0*%
%ADD32RoundRect,0.150000X-0.150000X0.650000X-0.150000X-0.650000X0.150000X-0.650000X0.150000X0.650000X0*%
%ADD33R,0.700000X1.000000*%
%ADD34R,0.700000X0.600000*%
%ADD35RoundRect,0.135000X-0.185000X0.135000X-0.185000X-0.135000X0.185000X-0.135000X0.185000X0.135000X0*%
%ADD36C,0.750000*%
%ADD37RoundRect,0.050000X-0.300000X-0.725000X0.300000X-0.725000X0.300000X0.725000X-0.300000X0.725000X0*%
%ADD38RoundRect,0.050000X-0.150000X-0.725000X0.150000X-0.725000X0.150000X0.725000X-0.150000X0.725000X0*%
%ADD39O,1.100000X1.700000*%
%ADD40O,1.100000X2.200000*%
%ADD41RoundRect,0.150000X0.150000X-0.587500X0.150000X0.587500X-0.150000X0.587500X-0.150000X-0.587500X0*%
%ADD42RoundRect,0.135000X0.185000X-0.135000X0.185000X0.135000X-0.185000X0.135000X-0.185000X-0.135000X0*%
%ADD43R,1.000000X1.700000*%
%ADD44R,0.400000X1.900000*%
%ADD45RoundRect,0.050000X0.387500X0.050000X-0.387500X0.050000X-0.387500X-0.050000X0.387500X-0.050000X0*%
%ADD46RoundRect,0.050000X0.050000X0.387500X-0.050000X0.387500X-0.050000X-0.387500X0.050000X-0.387500X0*%
%ADD47RoundRect,0.144000X1.456000X1.456000X-1.456000X1.456000X-1.456000X-1.456000X1.456000X-1.456000X0*%
%ADD48RoundRect,0.150000X-0.512500X-0.150000X0.512500X-0.150000X0.512500X0.150000X-0.512500X0.150000X0*%
%ADD49RoundRect,0.243750X-0.456250X0.243750X-0.456250X-0.243750X0.456250X-0.243750X0.456250X0.243750X0*%
G04 APERTURE END LIST*
D10*
G36*
X145997138Y-73021851D02*
G01*
X145899242Y-73055937D01*
X145899242Y-72296583D01*
X145997138Y-72262422D01*
X145997138Y-73021851D01*
G37*
X145997138Y-73021851D02*
X145899242Y-73055937D01*
X145899242Y-72296583D01*
X145997138Y-72262422D01*
X145997138Y-73021851D01*
G36*
X145997138Y-73987581D02*
G01*
X145997138Y-73021851D01*
X151051256Y-71262111D01*
X151058478Y-71262111D01*
X151513700Y-71103312D01*
X151517514Y-71099769D01*
X151121322Y-71237715D01*
X151114997Y-71240507D01*
X151058478Y-71262111D01*
X151051256Y-71262111D01*
X151121322Y-71237715D01*
X151169766Y-71216331D01*
X151222738Y-71189676D01*
X151273868Y-71160638D01*
X151323113Y-71129310D01*
X151370426Y-71095786D01*
X151415762Y-71060160D01*
X151459078Y-71022528D01*
X151500327Y-70982982D01*
X151539464Y-70941618D01*
X151576445Y-70898529D01*
X151611225Y-70853809D01*
X151643759Y-70807553D01*
X151674001Y-70759856D01*
X151701906Y-70710810D01*
X151727430Y-70660511D01*
X151750528Y-70609053D01*
X151771154Y-70556529D01*
X151789264Y-70503034D01*
X151804812Y-70448663D01*
X151817754Y-70393509D01*
X151828044Y-70337666D01*
X151835638Y-70281229D01*
X151840490Y-70224293D01*
X151842555Y-70166950D01*
X151841790Y-70109296D01*
X151838147Y-70051425D01*
X151831583Y-69993430D01*
X151822052Y-69935406D01*
X151809510Y-69877448D01*
X151793911Y-69819649D01*
X151775210Y-69762104D01*
X151753626Y-69705577D01*
X151729469Y-69650800D01*
X151702833Y-69597819D01*
X151673812Y-69546678D01*
X151642500Y-69497423D01*
X151608993Y-69450099D01*
X151573383Y-69404750D01*
X151535765Y-69361422D01*
X151496234Y-69320159D01*
X151454883Y-69281007D01*
X151411807Y-69244011D01*
X151367099Y-69209216D01*
X151320855Y-69176666D01*
X151273167Y-69146408D01*
X151224132Y-69118486D01*
X151173841Y-69092944D01*
X151122391Y-69069829D01*
X151069874Y-69049184D01*
X151016386Y-69031056D01*
X150962019Y-69015489D01*
X150906870Y-69002528D01*
X150851031Y-68992219D01*
X150794597Y-68984606D01*
X150737662Y-68979734D01*
X150680320Y-68977648D01*
X150622666Y-68978395D01*
X150564793Y-68982017D01*
X150506796Y-68988561D01*
X150448769Y-68998072D01*
X150390806Y-69010594D01*
X150333002Y-69026173D01*
X150275450Y-69044854D01*
X145997138Y-70534458D01*
X145997138Y-71300665D01*
X145899242Y-71333500D01*
X145899242Y-70468312D01*
X145930992Y-70452437D01*
X150243700Y-68952250D01*
X150297669Y-68934475D01*
X150351939Y-68919221D01*
X150406437Y-68906463D01*
X150461093Y-68896174D01*
X150515834Y-68888328D01*
X150570589Y-68882900D01*
X150625286Y-68879863D01*
X150679853Y-68879192D01*
X150734219Y-68880859D01*
X150788313Y-68884839D01*
X150842062Y-68891107D01*
X150895395Y-68899636D01*
X150948240Y-68910399D01*
X151000526Y-68923372D01*
X151052180Y-68938527D01*
X151103132Y-68955839D01*
X151153309Y-68975282D01*
X151202641Y-68996830D01*
X151251054Y-69020457D01*
X151298478Y-69046136D01*
X151344841Y-69073841D01*
X151390072Y-69103548D01*
X151434097Y-69135229D01*
X151476847Y-69168858D01*
X151518249Y-69204410D01*
X151558232Y-69241858D01*
X151596724Y-69281176D01*
X151633653Y-69322339D01*
X151668948Y-69365320D01*
X151702536Y-69410093D01*
X151734347Y-69456633D01*
X151764309Y-69504912D01*
X151792110Y-69554468D01*
X151817493Y-69604802D01*
X151840472Y-69655839D01*
X151861057Y-69707505D01*
X151879261Y-69759723D01*
X151895095Y-69812419D01*
X151908571Y-69865517D01*
X151919701Y-69918941D01*
X151928497Y-69972617D01*
X151934970Y-70026469D01*
X151939133Y-70080422D01*
X151940996Y-70134401D01*
X151940573Y-70188329D01*
X151937875Y-70242132D01*
X151932913Y-70295735D01*
X151925699Y-70349062D01*
X151916246Y-70402038D01*
X151904564Y-70454587D01*
X151890667Y-70506635D01*
X151874565Y-70558105D01*
X151856270Y-70608923D01*
X151835795Y-70659013D01*
X151813151Y-70708299D01*
X151788350Y-70756708D01*
X151761403Y-70804163D01*
X151732323Y-70850588D01*
X151701121Y-70895909D01*
X151667810Y-70940051D01*
X151632400Y-70982937D01*
X151594904Y-71024493D01*
X151555333Y-71064643D01*
X151517514Y-71099769D01*
X152464819Y-70769937D01*
X152466200Y-70769937D01*
X152497950Y-70769937D01*
X152552409Y-70739440D01*
X153286408Y-70483876D01*
X153286408Y-69939145D01*
X152564096Y-69478770D01*
X152564096Y-70732895D01*
X152552409Y-70739440D01*
X152466200Y-70769456D01*
X152466200Y-70769937D01*
X152464819Y-70769937D01*
X152466200Y-70769456D01*
X152466200Y-69290916D01*
X153384304Y-69894166D01*
X153384304Y-70449791D01*
X153286408Y-70483876D01*
X153286408Y-71449606D01*
X146817346Y-73702001D01*
X146817346Y-75177895D01*
X145899242Y-74577291D01*
X145899242Y-74524374D01*
X145997138Y-74524374D01*
X146719450Y-74992687D01*
X146719450Y-73736086D01*
X146817346Y-73702001D01*
X146817346Y-73701520D01*
X146782950Y-73701520D01*
X146719450Y-73735916D01*
X146719450Y-73736086D01*
X145997138Y-73987581D01*
X145997138Y-74524374D01*
X145899242Y-74524374D01*
X145899242Y-74021666D01*
X145997138Y-73987581D01*
G37*
X145997138Y-73987581D02*
X145997138Y-73021851D01*
X151051256Y-71262111D01*
X151058478Y-71262111D01*
X151513700Y-71103312D01*
X151517514Y-71099769D01*
X151121322Y-71237715D01*
X151114997Y-71240507D01*
X151058478Y-71262111D01*
X151051256Y-71262111D01*
X151121322Y-71237715D01*
X151169766Y-71216331D01*
X151222738Y-71189676D01*
X151273868Y-71160638D01*
X151323113Y-71129310D01*
X151370426Y-71095786D01*
X151415762Y-71060160D01*
X151459078Y-71022528D01*
X151500327Y-70982982D01*
X151539464Y-70941618D01*
X151576445Y-70898529D01*
X151611225Y-70853809D01*
X151643759Y-70807553D01*
X151674001Y-70759856D01*
X151701906Y-70710810D01*
X151727430Y-70660511D01*
X151750528Y-70609053D01*
X151771154Y-70556529D01*
X151789264Y-70503034D01*
X151804812Y-70448663D01*
X151817754Y-70393509D01*
X151828044Y-70337666D01*
X151835638Y-70281229D01*
X151840490Y-70224293D01*
X151842555Y-70166950D01*
X151841790Y-70109296D01*
X151838147Y-70051425D01*
X151831583Y-69993430D01*
X151822052Y-69935406D01*
X151809510Y-69877448D01*
X151793911Y-69819649D01*
X151775210Y-69762104D01*
X151753626Y-69705577D01*
X151729469Y-69650800D01*
X151702833Y-69597819D01*
X151673812Y-69546678D01*
X151642500Y-69497423D01*
X151608993Y-69450099D01*
X151573383Y-69404750D01*
X151535765Y-69361422D01*
X151496234Y-69320159D01*
X151454883Y-69281007D01*
X151411807Y-69244011D01*
X151367099Y-69209216D01*
X151320855Y-69176666D01*
X151273167Y-69146408D01*
X151224132Y-69118486D01*
X151173841Y-69092944D01*
X151122391Y-69069829D01*
X151069874Y-69049184D01*
X151016386Y-69031056D01*
X150962019Y-69015489D01*
X150906870Y-69002528D01*
X150851031Y-68992219D01*
X150794597Y-68984606D01*
X150737662Y-68979734D01*
X150680320Y-68977648D01*
X150622666Y-68978395D01*
X150564793Y-68982017D01*
X150506796Y-68988561D01*
X150448769Y-68998072D01*
X150390806Y-69010594D01*
X150333002Y-69026173D01*
X150275450Y-69044854D01*
X145997138Y-70534458D01*
X145997138Y-71300665D01*
X145899242Y-71333500D01*
X145899242Y-70468312D01*
X145930992Y-70452437D01*
X150243700Y-68952250D01*
X150297669Y-68934475D01*
X150351939Y-68919221D01*
X150406437Y-68906463D01*
X150461093Y-68896174D01*
X150515834Y-68888328D01*
X150570589Y-68882900D01*
X150625286Y-68879863D01*
X150679853Y-68879192D01*
X150734219Y-68880859D01*
X150788313Y-68884839D01*
X150842062Y-68891107D01*
X150895395Y-68899636D01*
X150948240Y-68910399D01*
X151000526Y-68923372D01*
X151052180Y-68938527D01*
X151103132Y-68955839D01*
X151153309Y-68975282D01*
X151202641Y-68996830D01*
X151251054Y-69020457D01*
X151298478Y-69046136D01*
X151344841Y-69073841D01*
X151390072Y-69103548D01*
X151434097Y-69135229D01*
X151476847Y-69168858D01*
X151518249Y-69204410D01*
X151558232Y-69241858D01*
X151596724Y-69281176D01*
X151633653Y-69322339D01*
X151668948Y-69365320D01*
X151702536Y-69410093D01*
X151734347Y-69456633D01*
X151764309Y-69504912D01*
X151792110Y-69554468D01*
X151817493Y-69604802D01*
X151840472Y-69655839D01*
X151861057Y-69707505D01*
X151879261Y-69759723D01*
X151895095Y-69812419D01*
X151908571Y-69865517D01*
X151919701Y-69918941D01*
X151928497Y-69972617D01*
X151934970Y-70026469D01*
X151939133Y-70080422D01*
X151940996Y-70134401D01*
X151940573Y-70188329D01*
X151937875Y-70242132D01*
X151932913Y-70295735D01*
X151925699Y-70349062D01*
X151916246Y-70402038D01*
X151904564Y-70454587D01*
X151890667Y-70506635D01*
X151874565Y-70558105D01*
X151856270Y-70608923D01*
X151835795Y-70659013D01*
X151813151Y-70708299D01*
X151788350Y-70756708D01*
X151761403Y-70804163D01*
X151732323Y-70850588D01*
X151701121Y-70895909D01*
X151667810Y-70940051D01*
X151632400Y-70982937D01*
X151594904Y-71024493D01*
X151555333Y-71064643D01*
X151517514Y-71099769D01*
X152464819Y-70769937D01*
X152466200Y-70769937D01*
X152497950Y-70769937D01*
X152552409Y-70739440D01*
X153286408Y-70483876D01*
X153286408Y-69939145D01*
X152564096Y-69478770D01*
X152564096Y-70732895D01*
X152552409Y-70739440D01*
X152466200Y-70769456D01*
X152466200Y-70769937D01*
X152464819Y-70769937D01*
X152466200Y-70769456D01*
X152466200Y-69290916D01*
X153384304Y-69894166D01*
X153384304Y-70449791D01*
X153286408Y-70483876D01*
X153286408Y-71449606D01*
X146817346Y-73702001D01*
X146817346Y-75177895D01*
X145899242Y-74577291D01*
X145899242Y-74524374D01*
X145997138Y-74524374D01*
X146719450Y-74992687D01*
X146719450Y-73736086D01*
X146817346Y-73702001D01*
X146817346Y-73701520D01*
X146782950Y-73701520D01*
X146719450Y-73735916D01*
X146719450Y-73736086D01*
X145997138Y-73987581D01*
X145997138Y-74524374D01*
X145899242Y-74524374D01*
X145899242Y-74021666D01*
X145997138Y-73987581D01*
G36*
X150688945Y-69700431D02*
G01*
X150711005Y-69702270D01*
X150732962Y-69705187D01*
X150754773Y-69709180D01*
X150776400Y-69714247D01*
X150797802Y-69720385D01*
X150818938Y-69727591D01*
X150839768Y-69735865D01*
X150860252Y-69745203D01*
X150880246Y-69755547D01*
X150899617Y-69766820D01*
X150918338Y-69778994D01*
X150936382Y-69792036D01*
X150953723Y-69805917D01*
X150970334Y-69820606D01*
X150986187Y-69836074D01*
X151001257Y-69852289D01*
X151015516Y-69869222D01*
X151028936Y-69886842D01*
X151041493Y-69905119D01*
X151053158Y-69924022D01*
X151063904Y-69943521D01*
X151073706Y-69963586D01*
X151082536Y-69984186D01*
X151090367Y-70005291D01*
X151097377Y-70027464D01*
X151103202Y-70049727D01*
X151107861Y-70072044D01*
X151111369Y-70094378D01*
X151113745Y-70116695D01*
X151115005Y-70138958D01*
X151115167Y-70161132D01*
X151114247Y-70183182D01*
X151112264Y-70205071D01*
X151109234Y-70226763D01*
X151105175Y-70248224D01*
X151100103Y-70269417D01*
X151094035Y-70290307D01*
X151086990Y-70310857D01*
X151078985Y-70331033D01*
X151070035Y-70350799D01*
X151060159Y-70370118D01*
X151049374Y-70388955D01*
X151037698Y-70407275D01*
X151025146Y-70425041D01*
X151011737Y-70442219D01*
X150997487Y-70458771D01*
X150982414Y-70474664D01*
X150966535Y-70489860D01*
X150949868Y-70504324D01*
X150932429Y-70518021D01*
X150914235Y-70530914D01*
X150895305Y-70542969D01*
X150875654Y-70554148D01*
X150855300Y-70564418D01*
X150834261Y-70573741D01*
X150812554Y-70582083D01*
X145997138Y-72262422D01*
X145997138Y-71300665D01*
X146751200Y-71047750D01*
X150513575Y-69724833D01*
X150535011Y-69717958D01*
X150556667Y-69712181D01*
X150578501Y-69707499D01*
X150600474Y-69703909D01*
X150622546Y-69701410D01*
X150644675Y-69699999D01*
X150666822Y-69699674D01*
X150688945Y-69700431D01*
G37*
X150688945Y-69700431D02*
X150711005Y-69702270D01*
X150732962Y-69705187D01*
X150754773Y-69709180D01*
X150776400Y-69714247D01*
X150797802Y-69720385D01*
X150818938Y-69727591D01*
X150839768Y-69735865D01*
X150860252Y-69745203D01*
X150880246Y-69755547D01*
X150899617Y-69766820D01*
X150918338Y-69778994D01*
X150936382Y-69792036D01*
X150953723Y-69805917D01*
X150970334Y-69820606D01*
X150986187Y-69836074D01*
X151001257Y-69852289D01*
X151015516Y-69869222D01*
X151028936Y-69886842D01*
X151041493Y-69905119D01*
X151053158Y-69924022D01*
X151063904Y-69943521D01*
X151073706Y-69963586D01*
X151082536Y-69984186D01*
X151090367Y-70005291D01*
X151097377Y-70027464D01*
X151103202Y-70049727D01*
X151107861Y-70072044D01*
X151111369Y-70094378D01*
X151113745Y-70116695D01*
X151115005Y-70138958D01*
X151115167Y-70161132D01*
X151114247Y-70183182D01*
X151112264Y-70205071D01*
X151109234Y-70226763D01*
X151105175Y-70248224D01*
X151100103Y-70269417D01*
X151094035Y-70290307D01*
X151086990Y-70310857D01*
X151078985Y-70331033D01*
X151070035Y-70350799D01*
X151060159Y-70370118D01*
X151049374Y-70388955D01*
X151037698Y-70407275D01*
X151025146Y-70425041D01*
X151011737Y-70442219D01*
X150997487Y-70458771D01*
X150982414Y-70474664D01*
X150966535Y-70489860D01*
X150949868Y-70504324D01*
X150932429Y-70518021D01*
X150914235Y-70530914D01*
X150895305Y-70542969D01*
X150875654Y-70554148D01*
X150855300Y-70564418D01*
X150834261Y-70573741D01*
X150812554Y-70582083D01*
X145997138Y-72262422D01*
X145997138Y-71300665D01*
X146751200Y-71047750D01*
X150513575Y-69724833D01*
X150535011Y-69717958D01*
X150556667Y-69712181D01*
X150578501Y-69707499D01*
X150600474Y-69703909D01*
X150622546Y-69701410D01*
X150644675Y-69699999D01*
X150666822Y-69699674D01*
X150688945Y-69700431D01*
G36*
X153384304Y-74026958D02*
G01*
X153352554Y-74026958D01*
X149039846Y-75529791D01*
X148985877Y-75547566D01*
X148931608Y-75562820D01*
X148877109Y-75575578D01*
X148822454Y-75585867D01*
X148767713Y-75593713D01*
X148712958Y-75599141D01*
X148658261Y-75602178D01*
X148603693Y-75602850D01*
X148549327Y-75601182D01*
X148495233Y-75597202D01*
X148441484Y-75590934D01*
X148388151Y-75582406D01*
X148335306Y-75571642D01*
X148283020Y-75558670D01*
X148231366Y-75543514D01*
X148180414Y-75526202D01*
X148130236Y-75506759D01*
X148080905Y-75485211D01*
X148032492Y-75461585D01*
X147985067Y-75435906D01*
X147938704Y-75408200D01*
X147893474Y-75378494D01*
X147849448Y-75346813D01*
X147806698Y-75313184D01*
X147765296Y-75277632D01*
X147725313Y-75240184D01*
X147686821Y-75200865D01*
X147649892Y-75159702D01*
X147614598Y-75116721D01*
X147581009Y-75071948D01*
X147549198Y-75025408D01*
X147519236Y-74977129D01*
X147491435Y-74927573D01*
X147466052Y-74877239D01*
X147443073Y-74826202D01*
X147422488Y-74774536D01*
X147404284Y-74722318D01*
X147388450Y-74669622D01*
X147374974Y-74616524D01*
X147363844Y-74563099D01*
X147355048Y-74509423D01*
X147348575Y-74455571D01*
X147344412Y-74401618D01*
X147342549Y-74347640D01*
X147342972Y-74293711D01*
X147345670Y-74239908D01*
X147350632Y-74186305D01*
X147357846Y-74132978D01*
X147367299Y-74080002D01*
X147378981Y-74027453D01*
X147392878Y-73975406D01*
X147408980Y-73923935D01*
X147427275Y-73873118D01*
X147447750Y-73823028D01*
X147470394Y-73773741D01*
X147495196Y-73725332D01*
X147522142Y-73677878D01*
X147551223Y-73631452D01*
X147582424Y-73586131D01*
X147615736Y-73541990D01*
X147651146Y-73499103D01*
X147688642Y-73457547D01*
X147728213Y-73417397D01*
X147769846Y-73378728D01*
X148227575Y-73212042D01*
X148154561Y-73240417D01*
X148084150Y-73273309D01*
X148016505Y-73310532D01*
X147951784Y-73351897D01*
X147890151Y-73397218D01*
X147831765Y-73446306D01*
X147776788Y-73498974D01*
X147725381Y-73555035D01*
X147677705Y-73614302D01*
X147633921Y-73676586D01*
X147594190Y-73741701D01*
X147558673Y-73809459D01*
X147527530Y-73879673D01*
X147500925Y-73952155D01*
X147479016Y-74026717D01*
X147461965Y-74103173D01*
X147450031Y-74180593D01*
X147443312Y-74258017D01*
X147441725Y-74335211D01*
X147445188Y-74411943D01*
X147453620Y-74487979D01*
X147466938Y-74563087D01*
X147485062Y-74637032D01*
X147507909Y-74709583D01*
X147535397Y-74780505D01*
X147567445Y-74849565D01*
X147603971Y-74916531D01*
X147644892Y-74981168D01*
X147690128Y-75043245D01*
X147739596Y-75102527D01*
X147793215Y-75158782D01*
X147850902Y-75211777D01*
X147911983Y-75260821D01*
X147975674Y-75305352D01*
X148041733Y-75345324D01*
X148109916Y-75380691D01*
X148179981Y-75411407D01*
X148251686Y-75437426D01*
X148324786Y-75458704D01*
X148399040Y-75475193D01*
X148474205Y-75486848D01*
X148550037Y-75493624D01*
X148626294Y-75495475D01*
X148702733Y-75492355D01*
X148779110Y-75484218D01*
X148855185Y-75471018D01*
X148930712Y-75452711D01*
X149005450Y-75429249D01*
X153286408Y-73931708D01*
X153286408Y-73159083D01*
X153384304Y-73124729D01*
X153384304Y-74026958D01*
G37*
X153384304Y-74026958D02*
X153352554Y-74026958D01*
X149039846Y-75529791D01*
X148985877Y-75547566D01*
X148931608Y-75562820D01*
X148877109Y-75575578D01*
X148822454Y-75585867D01*
X148767713Y-75593713D01*
X148712958Y-75599141D01*
X148658261Y-75602178D01*
X148603693Y-75602850D01*
X148549327Y-75601182D01*
X148495233Y-75597202D01*
X148441484Y-75590934D01*
X148388151Y-75582406D01*
X148335306Y-75571642D01*
X148283020Y-75558670D01*
X148231366Y-75543514D01*
X148180414Y-75526202D01*
X148130236Y-75506759D01*
X148080905Y-75485211D01*
X148032492Y-75461585D01*
X147985067Y-75435906D01*
X147938704Y-75408200D01*
X147893474Y-75378494D01*
X147849448Y-75346813D01*
X147806698Y-75313184D01*
X147765296Y-75277632D01*
X147725313Y-75240184D01*
X147686821Y-75200865D01*
X147649892Y-75159702D01*
X147614598Y-75116721D01*
X147581009Y-75071948D01*
X147549198Y-75025408D01*
X147519236Y-74977129D01*
X147491435Y-74927573D01*
X147466052Y-74877239D01*
X147443073Y-74826202D01*
X147422488Y-74774536D01*
X147404284Y-74722318D01*
X147388450Y-74669622D01*
X147374974Y-74616524D01*
X147363844Y-74563099D01*
X147355048Y-74509423D01*
X147348575Y-74455571D01*
X147344412Y-74401618D01*
X147342549Y-74347640D01*
X147342972Y-74293711D01*
X147345670Y-74239908D01*
X147350632Y-74186305D01*
X147357846Y-74132978D01*
X147367299Y-74080002D01*
X147378981Y-74027453D01*
X147392878Y-73975406D01*
X147408980Y-73923935D01*
X147427275Y-73873118D01*
X147447750Y-73823028D01*
X147470394Y-73773741D01*
X147495196Y-73725332D01*
X147522142Y-73677878D01*
X147551223Y-73631452D01*
X147582424Y-73586131D01*
X147615736Y-73541990D01*
X147651146Y-73499103D01*
X147688642Y-73457547D01*
X147728213Y-73417397D01*
X147769846Y-73378728D01*
X148227575Y-73212042D01*
X148154561Y-73240417D01*
X148084150Y-73273309D01*
X148016505Y-73310532D01*
X147951784Y-73351897D01*
X147890151Y-73397218D01*
X147831765Y-73446306D01*
X147776788Y-73498974D01*
X147725381Y-73555035D01*
X147677705Y-73614302D01*
X147633921Y-73676586D01*
X147594190Y-73741701D01*
X147558673Y-73809459D01*
X147527530Y-73879673D01*
X147500925Y-73952155D01*
X147479016Y-74026717D01*
X147461965Y-74103173D01*
X147450031Y-74180593D01*
X147443312Y-74258017D01*
X147441725Y-74335211D01*
X147445188Y-74411943D01*
X147453620Y-74487979D01*
X147466938Y-74563087D01*
X147485062Y-74637032D01*
X147507909Y-74709583D01*
X147535397Y-74780505D01*
X147567445Y-74849565D01*
X147603971Y-74916531D01*
X147644892Y-74981168D01*
X147690128Y-75043245D01*
X147739596Y-75102527D01*
X147793215Y-75158782D01*
X147850902Y-75211777D01*
X147911983Y-75260821D01*
X147975674Y-75305352D01*
X148041733Y-75345324D01*
X148109916Y-75380691D01*
X148179981Y-75411407D01*
X148251686Y-75437426D01*
X148324786Y-75458704D01*
X148399040Y-75475193D01*
X148474205Y-75486848D01*
X148550037Y-75493624D01*
X148626294Y-75495475D01*
X148702733Y-75492355D01*
X148779110Y-75484218D01*
X148855185Y-75471018D01*
X148930712Y-75452711D01*
X149005450Y-75429249D01*
X153286408Y-73931708D01*
X153286408Y-73159083D01*
X153384304Y-73124729D01*
X153384304Y-74026958D01*
G36*
X153286408Y-72209035D02*
G01*
X153286408Y-71449606D01*
X153384304Y-71415520D01*
X153384304Y-72174874D01*
X153286408Y-72209035D01*
G37*
X153286408Y-72209035D02*
X153286408Y-71449606D01*
X153384304Y-71415520D01*
X153384304Y-72174874D01*
X153286408Y-72209035D01*
G36*
X153286408Y-73159083D02*
G01*
X152532346Y-73423708D01*
X148769971Y-74746624D01*
X148748535Y-74753498D01*
X148726880Y-74759276D01*
X148705045Y-74763958D01*
X148683072Y-74767547D01*
X148661000Y-74770046D01*
X148638871Y-74771457D01*
X148616725Y-74771783D01*
X148594601Y-74771025D01*
X148572541Y-74769186D01*
X148550585Y-74766269D01*
X148528773Y-74762276D01*
X148507146Y-74757210D01*
X148485744Y-74751072D01*
X148464608Y-74743865D01*
X148443778Y-74735591D01*
X148423295Y-74726254D01*
X148403301Y-74715910D01*
X148383930Y-74704636D01*
X148365209Y-74692463D01*
X148347164Y-74679421D01*
X148329823Y-74665540D01*
X148313213Y-74650850D01*
X148297359Y-74635383D01*
X148282290Y-74619167D01*
X148268031Y-74602235D01*
X148254610Y-74584615D01*
X148242054Y-74566338D01*
X148230389Y-74547435D01*
X148219642Y-74527936D01*
X148209840Y-74507871D01*
X148201011Y-74487271D01*
X148193179Y-74466166D01*
X148186279Y-74444794D01*
X148180470Y-74423200D01*
X148175751Y-74401426D01*
X148172119Y-74379512D01*
X148169572Y-74357497D01*
X148168108Y-74335421D01*
X148167725Y-74313326D01*
X148168420Y-74291250D01*
X148170191Y-74269235D01*
X148173036Y-74247320D01*
X148176953Y-74225545D01*
X148181939Y-74203952D01*
X148187992Y-74182579D01*
X148195110Y-74161467D01*
X148203290Y-74140656D01*
X148212531Y-74120187D01*
X148222776Y-74100201D01*
X148233948Y-74080831D01*
X148246018Y-74062104D01*
X148258957Y-74044048D01*
X148272733Y-74026688D01*
X148287317Y-74010051D01*
X148302679Y-73994165D01*
X148318789Y-73979056D01*
X148335617Y-73964751D01*
X148353132Y-73951276D01*
X148371306Y-73938659D01*
X148390107Y-73926926D01*
X148409507Y-73916105D01*
X148429474Y-73906221D01*
X148449979Y-73897302D01*
X148470992Y-73889374D01*
X153286408Y-72209035D01*
X153286408Y-73159083D01*
G37*
X153286408Y-73159083D02*
X152532346Y-73423708D01*
X148769971Y-74746624D01*
X148748535Y-74753498D01*
X148726880Y-74759276D01*
X148705045Y-74763958D01*
X148683072Y-74767547D01*
X148661000Y-74770046D01*
X148638871Y-74771457D01*
X148616725Y-74771783D01*
X148594601Y-74771025D01*
X148572541Y-74769186D01*
X148550585Y-74766269D01*
X148528773Y-74762276D01*
X148507146Y-74757210D01*
X148485744Y-74751072D01*
X148464608Y-74743865D01*
X148443778Y-74735591D01*
X148423295Y-74726254D01*
X148403301Y-74715910D01*
X148383930Y-74704636D01*
X148365209Y-74692463D01*
X148347164Y-74679421D01*
X148329823Y-74665540D01*
X148313213Y-74650850D01*
X148297359Y-74635383D01*
X148282290Y-74619167D01*
X148268031Y-74602235D01*
X148254610Y-74584615D01*
X148242054Y-74566338D01*
X148230389Y-74547435D01*
X148219642Y-74527936D01*
X148209840Y-74507871D01*
X148201011Y-74487271D01*
X148193179Y-74466166D01*
X148186279Y-74444794D01*
X148180470Y-74423200D01*
X148175751Y-74401426D01*
X148172119Y-74379512D01*
X148169572Y-74357497D01*
X148168108Y-74335421D01*
X148167725Y-74313326D01*
X148168420Y-74291250D01*
X148170191Y-74269235D01*
X148173036Y-74247320D01*
X148176953Y-74225545D01*
X148181939Y-74203952D01*
X148187992Y-74182579D01*
X148195110Y-74161467D01*
X148203290Y-74140656D01*
X148212531Y-74120187D01*
X148222776Y-74100201D01*
X148233948Y-74080831D01*
X148246018Y-74062104D01*
X148258957Y-74044048D01*
X148272733Y-74026688D01*
X148287317Y-74010051D01*
X148302679Y-73994165D01*
X148318789Y-73979056D01*
X148335617Y-73964751D01*
X148353132Y-73951276D01*
X148371306Y-73938659D01*
X148390107Y-73926926D01*
X148409507Y-73916105D01*
X148429474Y-73906221D01*
X148449979Y-73897302D01*
X148470992Y-73889374D01*
X153286408Y-72209035D01*
X153286408Y-73159083D01*
D11*
%TO.C,MX36*%
X178125075Y-64125027D03*
D12*
X173045075Y-64125027D03*
X183205075Y-64125027D03*
D13*
X175625075Y-60125027D03*
D14*
X174970076Y-60855027D03*
D13*
X180665075Y-59045027D03*
D15*
X180645075Y-59335027D03*
%TD*%
D16*
%TO.C,2u*%
X180563071Y-128110051D03*
D12*
X163545071Y-121125051D03*
X173705071Y-121125051D03*
D16*
X156687071Y-128110051D03*
D11*
X156687071Y-112870051D03*
X180563071Y-112870051D03*
X168625071Y-121125051D03*
D14*
X165470072Y-117855051D03*
D13*
X166125071Y-117125051D03*
X171165071Y-116045051D03*
D15*
X171145071Y-116335051D03*
%TD*%
D11*
%TO.C,1u*%
X64125027Y-121125051D03*
D12*
X69205027Y-121125051D03*
X59045027Y-121125051D03*
D14*
X60970028Y-117855051D03*
D13*
X61625027Y-117125051D03*
D15*
X66645027Y-116335051D03*
D13*
X66665027Y-116045051D03*
%TD*%
D11*
%TO.C,MX49*%
X235125099Y-64125027D03*
D12*
X240205099Y-64125027D03*
X230045099Y-64125027D03*
D14*
X231970100Y-60855027D03*
D13*
X232625099Y-60125027D03*
X237665099Y-59045027D03*
D15*
X237645099Y-59335027D03*
%TD*%
D12*
%TO.C,MX42*%
X192045083Y-83125035D03*
D11*
X197125083Y-83125035D03*
D12*
X202205083Y-83125035D03*
D14*
X193970084Y-79855035D03*
D13*
X194625083Y-79125035D03*
D15*
X199645083Y-78335035D03*
D13*
X199665083Y-78045035D03*
%TD*%
D12*
%TO.C,1u*%
X230045099Y-121125051D03*
X240205099Y-121125051D03*
D11*
X235125099Y-121125051D03*
D14*
X231970100Y-117855051D03*
D13*
X232625099Y-117125051D03*
X237665099Y-116045051D03*
D15*
X237645099Y-116335051D03*
%TD*%
D11*
%TO.C,1u*%
X161563063Y-112870051D03*
D12*
X154705063Y-121125051D03*
D11*
X149625063Y-121125051D03*
D16*
X137687063Y-128110051D03*
D12*
X144545063Y-121125051D03*
D11*
X137687063Y-112870051D03*
D16*
X161563063Y-128110051D03*
D14*
X146470064Y-117855051D03*
D13*
X147125063Y-117125051D03*
D15*
X152145063Y-116335051D03*
D13*
X152165063Y-116045051D03*
%TD*%
D11*
%TO.C,MX21*%
X121125051Y-83125035D03*
D12*
X116045051Y-83125035D03*
X126205051Y-83125035D03*
D13*
X118625051Y-79125035D03*
D14*
X117970052Y-79855035D03*
D15*
X123645051Y-78335035D03*
D13*
X123665051Y-78045035D03*
%TD*%
D12*
%TO.C,1u*%
X230705095Y-121125051D03*
X220545095Y-121125051D03*
D11*
X225625095Y-121125051D03*
D17*
X222470103Y-117855058D03*
D13*
X223125095Y-117125051D03*
D18*
X228145099Y-116335051D03*
D13*
X228165095Y-116045051D03*
%TD*%
D12*
%TO.C,1u*%
X50205019Y-121125051D03*
D11*
X45125019Y-121125051D03*
D12*
X40045019Y-121125051D03*
D17*
X41970027Y-117855058D03*
D13*
X42625019Y-117125051D03*
X47665019Y-116045051D03*
D18*
X47645023Y-116335051D03*
%TD*%
D12*
%TO.C,1.5u*%
X206955085Y-121125051D03*
D11*
X201875085Y-121125051D03*
D12*
X196795085Y-121125051D03*
D14*
X198720086Y-117855051D03*
D13*
X199375085Y-117125051D03*
D15*
X204395085Y-116335051D03*
D13*
X204415085Y-116045051D03*
%TD*%
D12*
%TO.C,1u*%
X164205067Y-121125051D03*
X154045067Y-121125051D03*
D11*
X159125067Y-121125051D03*
D14*
X155970068Y-117855051D03*
D13*
X156625067Y-117125051D03*
X161665067Y-116045051D03*
D15*
X161645067Y-116335051D03*
%TD*%
D12*
%TO.C,MX32*%
X154045067Y-83125035D03*
D11*
X159125067Y-83125035D03*
D12*
X164205067Y-83125035D03*
D13*
X156625067Y-79125035D03*
D14*
X155970068Y-79855035D03*
D15*
X161645067Y-78335035D03*
D13*
X161665067Y-78045035D03*
%TD*%
D11*
%TO.C,1.5u*%
X97375041Y-121125051D03*
D12*
X92295041Y-121125051D03*
X102455041Y-121125051D03*
D13*
X94875041Y-117125051D03*
D17*
X94220049Y-117855058D03*
D18*
X99895045Y-116335051D03*
D13*
X99915041Y-116045051D03*
%TD*%
D12*
%TO.C,MX38*%
X183205075Y-102125043D03*
X173045075Y-102125043D03*
D11*
X178125075Y-102125043D03*
D13*
X175625075Y-98125043D03*
D14*
X174970076Y-98855043D03*
D15*
X180645075Y-97335043D03*
D13*
X180665075Y-97045043D03*
%TD*%
D11*
%TO.C,1.5u*%
X49875021Y-121125051D03*
D12*
X54955021Y-121125051D03*
X44795021Y-121125051D03*
D14*
X46720022Y-117855051D03*
D13*
X47375021Y-117125051D03*
D15*
X52395021Y-116335051D03*
D13*
X52415021Y-116045051D03*
%TD*%
D12*
%TO.C,MX2*%
X50205019Y-83125027D03*
D11*
X45125019Y-83125027D03*
D12*
X40045019Y-83125027D03*
D14*
X41970020Y-79855027D03*
D13*
X42625019Y-79125027D03*
D15*
X47645019Y-78335027D03*
D13*
X47665019Y-78045027D03*
%TD*%
D12*
%TO.C,MX7*%
X59045027Y-83125035D03*
D11*
X64125027Y-83125035D03*
D12*
X69205027Y-83125035D03*
D13*
X61625027Y-79125035D03*
D14*
X60970028Y-79855035D03*
D15*
X66645027Y-78335035D03*
D13*
X66665027Y-78045035D03*
%TD*%
D11*
%TO.C,1u*%
X216125091Y-121125051D03*
D12*
X221205091Y-121125051D03*
X211045091Y-121125051D03*
D14*
X212970092Y-117855051D03*
D13*
X213625091Y-117125051D03*
X218665091Y-116045051D03*
D15*
X218645091Y-116335051D03*
%TD*%
D11*
%TO.C,MX43*%
X197125083Y-102125043D03*
D12*
X192045083Y-102125043D03*
X202205083Y-102125043D03*
D14*
X193970084Y-98855043D03*
D13*
X194625083Y-98125043D03*
D15*
X199645083Y-97335043D03*
D13*
X199665083Y-97045043D03*
%TD*%
D19*
%TO.C,SW4*%
X251625107Y-128633333D03*
D20*
X256625107Y-128633333D03*
X254125107Y-128633333D03*
D21*
X248525107Y-121133333D03*
X259725107Y-121133333D03*
D20*
X256625107Y-114133333D03*
X251625107Y-114133333D03*
%TD*%
D11*
%TO.C,MX3*%
X45125019Y-102125043D03*
D12*
X40045019Y-102125043D03*
X50205019Y-102125043D03*
D13*
X42625019Y-98125043D03*
D14*
X41970020Y-98855043D03*
D13*
X47665019Y-97045043D03*
D15*
X47645019Y-97335043D03*
%TD*%
D12*
%TO.C,1u*%
X78705031Y-121125051D03*
X68545031Y-121125051D03*
D11*
X73625031Y-121125051D03*
D13*
X71125031Y-117125051D03*
D17*
X70470039Y-117855058D03*
D18*
X76145035Y-116335051D03*
D13*
X76165031Y-116045051D03*
%TD*%
D19*
%TO.C,SW1*%
X42625019Y-71658333D03*
D20*
X47625019Y-71658333D03*
X45125019Y-71658333D03*
D21*
X39525019Y-64158333D03*
X50725019Y-64158333D03*
D20*
X47625019Y-57158333D03*
X42625019Y-57158333D03*
%TD*%
D11*
%TO.C,MX13*%
X83125035Y-83125035D03*
D12*
X78045035Y-83125035D03*
X88205035Y-83125035D03*
D13*
X80625035Y-79125035D03*
D14*
X79970036Y-79855035D03*
D13*
X85665035Y-78045035D03*
D15*
X85645035Y-78335035D03*
%TD*%
D11*
%TO.C,MX16*%
X102125043Y-64125027D03*
D12*
X97045043Y-64125027D03*
X107205043Y-64125027D03*
D14*
X98970044Y-60855027D03*
D13*
X99625043Y-60125027D03*
D15*
X104645043Y-59335027D03*
D13*
X104665043Y-59045027D03*
%TD*%
D12*
%TO.C,1.5u*%
X73295033Y-121125051D03*
X83455033Y-121125051D03*
D11*
X78375033Y-121125051D03*
D13*
X75875033Y-117125051D03*
D17*
X75220041Y-117855058D03*
D13*
X80915033Y-116045051D03*
D18*
X80895037Y-116335051D03*
%TD*%
D12*
%TO.C,MX24*%
X116045051Y-121125051D03*
X126205051Y-121125051D03*
D11*
X140175051Y-112870051D03*
D16*
X102075051Y-128110051D03*
X140175051Y-128110051D03*
D11*
X121125051Y-121125051D03*
X102075051Y-112870051D03*
D13*
X117315051Y-118585051D03*
X123665051Y-116045051D03*
%TD*%
D12*
%TO.C,MX37*%
X183205075Y-83125035D03*
X173045075Y-83125035D03*
D11*
X178125075Y-83125035D03*
D13*
X175625075Y-79125035D03*
D14*
X174970076Y-79855035D03*
D15*
X180645075Y-78335035D03*
D13*
X180665075Y-78045035D03*
%TD*%
D11*
%TO.C,MX6*%
X64125027Y-64125027D03*
D12*
X69205027Y-64125027D03*
X59045027Y-64125027D03*
D14*
X60970028Y-60855027D03*
D13*
X61625027Y-60125027D03*
D15*
X66645027Y-59335027D03*
D13*
X66665027Y-59045027D03*
%TD*%
D12*
%TO.C,MX22*%
X126205051Y-102125043D03*
X116045051Y-102125043D03*
D11*
X121125051Y-102125043D03*
D14*
X117970052Y-98855043D03*
D13*
X118625051Y-98125043D03*
X123665051Y-97045043D03*
D15*
X123645051Y-97335043D03*
%TD*%
D12*
%TO.C,1u*%
X107205043Y-121125051D03*
X97045043Y-121125051D03*
D11*
X102125043Y-121125051D03*
D13*
X99625043Y-117125051D03*
D14*
X98970044Y-117855051D03*
D15*
X104645043Y-116335051D03*
D13*
X104665043Y-116045051D03*
%TD*%
D11*
%TO.C,MX31*%
X159125067Y-64125027D03*
D12*
X154045067Y-64125027D03*
X164205067Y-64125027D03*
D13*
X156625067Y-60125027D03*
D14*
X155970068Y-60855027D03*
D13*
X161665067Y-59045027D03*
D15*
X161645067Y-59335027D03*
%TD*%
D12*
%TO.C,MX25*%
X145205059Y-64125027D03*
D11*
X140125059Y-64125027D03*
D12*
X135045059Y-64125027D03*
D13*
X137625059Y-60125027D03*
D14*
X136970060Y-60855027D03*
D15*
X142645059Y-59335027D03*
D13*
X142665059Y-59045027D03*
%TD*%
D11*
%TO.C,MX17*%
X102125043Y-83125035D03*
D12*
X97045043Y-83125035D03*
X107205043Y-83125035D03*
D14*
X98970044Y-79855035D03*
D13*
X99625043Y-79125035D03*
X104665043Y-78045035D03*
D15*
X104645043Y-78335035D03*
%TD*%
D12*
%TO.C,MX45*%
X211045091Y-64125027D03*
X221205091Y-64125027D03*
D11*
X216125091Y-64125027D03*
D13*
X213625091Y-60125027D03*
D14*
X212970092Y-60855027D03*
D15*
X218645091Y-59335027D03*
D13*
X218665091Y-59045027D03*
%TD*%
D11*
%TO.C,1u*%
X140125059Y-121125051D03*
D12*
X135045059Y-121125051D03*
X145205059Y-121125051D03*
D14*
X136970060Y-117855051D03*
D13*
X137625059Y-117125051D03*
X142665059Y-116045051D03*
D15*
X142645059Y-116335051D03*
%TD*%
D19*
%TO.C,SW3*%
X251625107Y-71608333D03*
D20*
X256625107Y-71608333D03*
X254125107Y-71608333D03*
D21*
X259725107Y-64108333D03*
X248525107Y-64108333D03*
D20*
X256625107Y-57108333D03*
X251625107Y-57108333D03*
%TD*%
D12*
%TO.C,1u*%
X78045035Y-121125051D03*
X88205035Y-121125051D03*
D11*
X83125035Y-121125051D03*
D14*
X79970036Y-117855051D03*
D13*
X80625035Y-117125051D03*
D15*
X85645035Y-116335051D03*
D13*
X85665035Y-116045051D03*
%TD*%
D12*
%TO.C,1.5u*%
X225955093Y-121125051D03*
D11*
X220875093Y-121125051D03*
D12*
X215795093Y-121125051D03*
D13*
X218375093Y-117125051D03*
D17*
X217720101Y-117855058D03*
D13*
X223415093Y-116045051D03*
D18*
X223395097Y-116335051D03*
%TD*%
D11*
%TO.C,1.5u*%
X249375105Y-121125051D03*
D12*
X254455105Y-121125051D03*
X244295105Y-121125051D03*
D14*
X246220106Y-117855051D03*
D13*
X246875105Y-117125051D03*
D15*
X251895105Y-116335051D03*
D13*
X251915105Y-116045051D03*
%TD*%
D11*
%TO.C,1u/3u*%
X178125075Y-121125051D03*
D12*
X173045075Y-121125051D03*
X183205075Y-121125051D03*
D14*
X174970076Y-117855051D03*
D13*
X175625075Y-117125051D03*
X180665075Y-116045051D03*
D15*
X180645075Y-116335051D03*
%TD*%
D16*
%TO.C,MX40*%
X159075075Y-128110051D03*
D11*
X178125075Y-121125051D03*
D16*
X197175075Y-128110051D03*
D12*
X173045075Y-121125051D03*
X183205075Y-121125051D03*
D11*
X197175075Y-112870051D03*
X159075075Y-112870051D03*
D13*
X174315075Y-118585051D03*
X180665075Y-116045051D03*
%TD*%
D12*
%TO.C,1u*%
X202205083Y-121125051D03*
X192045083Y-121125051D03*
D11*
X197125083Y-121125051D03*
D17*
X193970091Y-117855058D03*
D13*
X194625083Y-117125051D03*
X199665083Y-116045051D03*
D18*
X199645087Y-116335051D03*
%TD*%
D12*
%TO.C,MX14*%
X88205035Y-102125043D03*
D11*
X83125035Y-102125043D03*
D12*
X78045035Y-102125043D03*
D13*
X80625035Y-98125043D03*
D14*
X79970036Y-98855043D03*
D13*
X85665035Y-97045043D03*
D15*
X85645035Y-97335043D03*
%TD*%
D12*
%TO.C,MX51*%
X230045099Y-102125043D03*
X240205099Y-102125043D03*
D11*
X235125099Y-102125043D03*
D14*
X231970100Y-98855043D03*
D13*
X232625099Y-98125043D03*
X237665099Y-97045043D03*
D15*
X237645099Y-97335043D03*
%TD*%
D12*
%TO.C,MX57*%
X249045107Y-102125043D03*
X259205107Y-102125043D03*
D11*
X254125107Y-102125043D03*
D14*
X250970108Y-98855043D03*
D13*
X251625107Y-98125043D03*
X256665107Y-97045043D03*
D15*
X256645107Y-97335043D03*
%TD*%
D12*
%TO.C,MX27*%
X145205059Y-102125043D03*
X135045059Y-102125043D03*
D11*
X140125059Y-102125043D03*
D13*
X137625059Y-98125043D03*
D14*
X136970060Y-98855043D03*
D13*
X142665059Y-97045043D03*
D15*
X142645059Y-97335043D03*
%TD*%
D11*
%TO.C,MX8*%
X64125027Y-102125043D03*
D12*
X59045027Y-102125043D03*
X69205027Y-102125043D03*
D13*
X61625027Y-98125043D03*
D14*
X60970028Y-98855043D03*
D15*
X66645027Y-97335043D03*
D13*
X66665027Y-97045043D03*
%TD*%
D11*
%TO.C,MX56*%
X254125107Y-83125035D03*
D12*
X249045107Y-83125035D03*
X259205107Y-83125035D03*
D14*
X250970108Y-79855035D03*
D13*
X251625107Y-79125035D03*
D15*
X256645107Y-78335035D03*
D13*
X256665107Y-78045035D03*
%TD*%
D12*
%TO.C,MX46*%
X211045091Y-83125035D03*
D11*
X216125091Y-83125035D03*
D12*
X221205091Y-83125035D03*
D13*
X213625091Y-79125035D03*
D14*
X212970092Y-79855035D03*
D13*
X218665091Y-78045035D03*
D15*
X218645091Y-78335035D03*
%TD*%
D12*
%TO.C,MX18*%
X107205043Y-102125043D03*
D11*
X102125043Y-102125043D03*
D12*
X97045043Y-102125043D03*
D13*
X99625043Y-98125043D03*
D14*
X98970044Y-98855043D03*
D15*
X104645043Y-97335043D03*
D13*
X104665043Y-97045043D03*
%TD*%
D12*
%TO.C,MX41*%
X202205083Y-64125027D03*
D11*
X197125083Y-64125027D03*
D12*
X192045083Y-64125027D03*
D13*
X194625083Y-60125027D03*
D14*
X193970084Y-60855027D03*
D13*
X199665083Y-59045027D03*
D15*
X199645083Y-59335027D03*
%TD*%
D11*
%TO.C,1u*%
X254125107Y-121125051D03*
D12*
X249045107Y-121125051D03*
X259205107Y-121125051D03*
D13*
X251625107Y-117125051D03*
D14*
X250970108Y-117855051D03*
D13*
X256665107Y-116045051D03*
D15*
X256645107Y-116335051D03*
%TD*%
D12*
%TO.C,MX12*%
X78045035Y-64125027D03*
D11*
X83125035Y-64125027D03*
D12*
X88205035Y-64125027D03*
D13*
X80625035Y-60125027D03*
D14*
X79970036Y-60855027D03*
D13*
X85665035Y-59045027D03*
D15*
X85645035Y-59335027D03*
%TD*%
D11*
%TO.C,MX47*%
X216125091Y-102125043D03*
D12*
X221205091Y-102125043D03*
X211045091Y-102125043D03*
D13*
X213625091Y-98125043D03*
D14*
X212970092Y-98855043D03*
D15*
X218645091Y-97335043D03*
D13*
X218665091Y-97045043D03*
%TD*%
D19*
%TO.C,SW2*%
X42625019Y-128633333D03*
D20*
X47625019Y-128633333D03*
X45125019Y-128633333D03*
D21*
X39525019Y-121133333D03*
X50725019Y-121133333D03*
D20*
X47625019Y-114133333D03*
X42625019Y-114133333D03*
%TD*%
D12*
%TO.C,MX55*%
X249045107Y-64125027D03*
X259205107Y-64125027D03*
D11*
X254125107Y-64125027D03*
D14*
X250970108Y-60855027D03*
D13*
X251625107Y-60125027D03*
D15*
X256645107Y-59335027D03*
D13*
X256665107Y-59045027D03*
%TD*%
D12*
%TO.C,MX26*%
X135045059Y-83125035D03*
D11*
X140125059Y-83125035D03*
D12*
X145205059Y-83125035D03*
D13*
X137625059Y-79125035D03*
D14*
X136970060Y-79855035D03*
D13*
X142665059Y-78045035D03*
D15*
X142645059Y-78335035D03*
%TD*%
D12*
%TO.C,MX20*%
X126205051Y-64125027D03*
D11*
X121125051Y-64125027D03*
D12*
X116045051Y-64125027D03*
D14*
X117970052Y-60855027D03*
D13*
X118625051Y-60125027D03*
X123665051Y-59045027D03*
D15*
X123645051Y-59335027D03*
%TD*%
D11*
%TO.C,1u/3u*%
X121125051Y-121125051D03*
D12*
X126205051Y-121125051D03*
X116045051Y-121125051D03*
D13*
X118625051Y-117125051D03*
D14*
X117970052Y-117855051D03*
D15*
X123645051Y-116335051D03*
D13*
X123665051Y-116045051D03*
%TD*%
D16*
%TO.C,2u*%
X142563055Y-128110051D03*
D12*
X135705055Y-121125051D03*
D11*
X130625055Y-121125051D03*
X142563055Y-112870051D03*
D12*
X125545055Y-121125051D03*
D11*
X118687055Y-112870051D03*
D16*
X118687055Y-128110051D03*
D14*
X127470056Y-117855051D03*
D13*
X128125055Y-117125051D03*
X133165055Y-116045051D03*
D15*
X133145055Y-116335051D03*
%TD*%
D12*
%TO.C,MX50*%
X230045099Y-83125035D03*
X240205099Y-83125035D03*
D11*
X235125099Y-83125035D03*
D14*
X231970100Y-79855035D03*
D13*
X232625099Y-79125035D03*
X237665099Y-78045035D03*
D15*
X237645099Y-78335035D03*
%TD*%
D12*
%TO.C,MX33*%
X154045067Y-102125043D03*
D11*
X159125067Y-102125043D03*
D12*
X164205067Y-102125043D03*
D14*
X155970068Y-98855043D03*
D13*
X156625067Y-98125043D03*
X161665067Y-97045043D03*
D15*
X161645067Y-97335043D03*
%TD*%
D11*
%TO.C,MX1*%
X45125019Y-64125027D03*
D12*
X40045019Y-64125027D03*
X50205019Y-64125027D03*
D13*
X42625019Y-60125027D03*
D14*
X41970020Y-60855027D03*
D15*
X47645019Y-59335027D03*
D13*
X47665019Y-59045027D03*
%TD*%
D22*
%TO.C,C2*%
X69870000Y-75110000D03*
X68910000Y-75110000D03*
%TD*%
D23*
%TO.C,D43*%
X238220000Y-104660000D03*
X238220000Y-101360000D03*
%TD*%
%TO.C,D9*%
X86220000Y-66660000D03*
X86220000Y-63360000D03*
%TD*%
%TO.C,D33*%
X200220000Y-66660000D03*
X200220000Y-63360000D03*
%TD*%
%TO.C,D21*%
X143220000Y-66660000D03*
X143220000Y-63360000D03*
%TD*%
D24*
%TO.C,D56*%
X55535000Y-112600000D03*
D25*
X55535000Y-113700000D03*
X53705000Y-113700000D03*
X53705000Y-112600000D03*
%TD*%
D26*
%TO.C,C6*%
X75840000Y-85110000D03*
X75840000Y-84150000D03*
%TD*%
D22*
%TO.C,C10*%
X69430000Y-88190000D03*
X68470000Y-88190000D03*
%TD*%
D27*
%TO.C,D50*%
X243575000Y-64730000D03*
D25*
X243575000Y-63630000D03*
X245405000Y-63630000D03*
X245405000Y-64730000D03*
%TD*%
D23*
%TO.C,D24*%
X133410000Y-125300000D03*
X133410000Y-122000000D03*
%TD*%
D28*
%TO.C,R2*%
X76510000Y-62530000D03*
X77530000Y-62530000D03*
%TD*%
D23*
%TO.C,D7*%
X67220000Y-104660000D03*
X67220000Y-101360000D03*
%TD*%
D26*
%TO.C,C7*%
X79230000Y-89580000D03*
X79230000Y-88620000D03*
%TD*%
D29*
%TO.C,C11*%
X81590000Y-93160000D03*
X82550000Y-93160000D03*
%TD*%
D27*
%TO.C,D54*%
X53695000Y-64740000D03*
D25*
X53695000Y-63640000D03*
X55525000Y-63640000D03*
X55525000Y-64740000D03*
%TD*%
D23*
%TO.C,D32*%
X181230000Y-123670000D03*
X181230000Y-120370000D03*
%TD*%
D30*
%TO.C,C12*%
X73210000Y-99490000D03*
X73210000Y-100450000D03*
%TD*%
D31*
%TO.C,R1*%
X69930000Y-62360000D03*
X68910000Y-62360000D03*
%TD*%
D32*
%TO.C,U4*%
X90055000Y-79770000D03*
X91325000Y-79770000D03*
X92595000Y-79770000D03*
X93865000Y-79770000D03*
X93865000Y-86970000D03*
X92595000Y-86970000D03*
X91325000Y-86970000D03*
X90055000Y-86970000D03*
%TD*%
D23*
%TO.C,D29*%
X181220000Y-66660000D03*
X181220000Y-63360000D03*
%TD*%
%TO.C,D25*%
X162220000Y-66660000D03*
X162220000Y-63360000D03*
%TD*%
D22*
%TO.C,C_LDO2*%
X69870000Y-76190000D03*
X68910000Y-76190000D03*
%TD*%
D24*
%TO.C,D61*%
X245565000Y-111880000D03*
D25*
X245565000Y-112980000D03*
X243735000Y-112980000D03*
X243735000Y-111880000D03*
%TD*%
D22*
%TO.C,C5*%
X69430000Y-89270000D03*
X68470000Y-89270000D03*
%TD*%
D23*
%TO.C,D44*%
X238230000Y-123660000D03*
X238230000Y-120360000D03*
%TD*%
%TO.C,D42*%
X238230000Y-85660000D03*
X238230000Y-82360000D03*
%TD*%
D26*
%TO.C,C9*%
X88330000Y-87480000D03*
X88330000Y-86520000D03*
%TD*%
D23*
%TO.C,D27*%
X162230000Y-104670000D03*
X162230000Y-101370000D03*
%TD*%
D24*
%TO.C,D58*%
X131505000Y-111910000D03*
D25*
X131505000Y-113010000D03*
X129675000Y-113010000D03*
X129675000Y-111910000D03*
%TD*%
D23*
%TO.C,D34*%
X200220000Y-85660000D03*
X200220000Y-82360000D03*
%TD*%
D33*
%TO.C,U2*%
X74630000Y-64670000D03*
D34*
X74630000Y-66370000D03*
X72630000Y-66370000D03*
X72630000Y-64470000D03*
%TD*%
D35*
%TO.C,R5*%
X72520000Y-84557500D03*
X72520000Y-85577500D03*
%TD*%
D23*
%TO.C,D10*%
X86220000Y-85660000D03*
X86220000Y-82360000D03*
%TD*%
%TO.C,D41*%
X238230000Y-66660000D03*
X238230000Y-63360000D03*
%TD*%
D36*
%TO.C,USB1*%
X70735031Y-59037500D03*
X76515031Y-59037500D03*
D37*
X70400031Y-60482500D03*
X71175031Y-60482500D03*
D38*
X71875031Y-60482500D03*
X72375031Y-60482500D03*
X72875031Y-60482500D03*
X73375031Y-60482500D03*
X73875031Y-60482500D03*
X74375031Y-60482500D03*
X74875031Y-60482500D03*
X75375031Y-60482500D03*
D37*
X76075031Y-60482500D03*
X76850031Y-60482500D03*
D39*
X69305031Y-55387500D03*
D40*
X77945031Y-59567500D03*
X69305031Y-59567500D03*
D39*
X77945031Y-55387500D03*
%TD*%
D27*
%TO.C,D51*%
X205705000Y-64730000D03*
D25*
X205705000Y-63630000D03*
X207535000Y-63630000D03*
X207535000Y-64730000D03*
%TD*%
D35*
%TO.C,R4*%
X73610000Y-84550000D03*
X73610000Y-85570000D03*
%TD*%
D41*
%TO.C,U1*%
X71770000Y-73507500D03*
X69870000Y-73507500D03*
X70820000Y-71632500D03*
%TD*%
D23*
%TO.C,D4*%
X52980000Y-123670000D03*
X52980000Y-120370000D03*
%TD*%
%TO.C,D20*%
X123910000Y-125290000D03*
X123910000Y-121990000D03*
%TD*%
%TO.C,D1*%
X48230000Y-66660000D03*
X48230000Y-63360000D03*
%TD*%
%TO.C,D46*%
X257220000Y-85660000D03*
X257220000Y-82360000D03*
%TD*%
D42*
%TO.C,R3*%
X70820000Y-99040000D03*
X70820000Y-98020000D03*
%TD*%
D23*
%TO.C,D12*%
X86230000Y-123660000D03*
X86230000Y-120360000D03*
%TD*%
D42*
%TO.C,R7*%
X74410000Y-100470000D03*
X74410000Y-99450000D03*
%TD*%
D23*
%TO.C,D13*%
X105220000Y-66660000D03*
X105220000Y-63360000D03*
%TD*%
%TO.C,D6*%
X67220000Y-85660000D03*
X67220000Y-82360000D03*
%TD*%
D27*
%TO.C,D53*%
X91715000Y-64850000D03*
D25*
X91715000Y-63750000D03*
X93545000Y-63750000D03*
X93545000Y-64850000D03*
%TD*%
D35*
%TO.C,R6*%
X88770000Y-78740000D03*
X88770000Y-79760000D03*
%TD*%
D23*
%TO.C,D36*%
X204980000Y-123660000D03*
X204980000Y-120360000D03*
%TD*%
%TO.C,D19*%
X124220000Y-104660000D03*
X124220000Y-101360000D03*
%TD*%
%TO.C,D15*%
X105220000Y-104670000D03*
X105220000Y-101370000D03*
%TD*%
%TO.C,D26*%
X162220000Y-85660000D03*
X162220000Y-82360000D03*
%TD*%
D43*
%TO.C,SW6*%
X90990000Y-69080000D03*
X90990000Y-75380000D03*
X94790000Y-69080000D03*
X94790000Y-75380000D03*
%TD*%
D23*
%TO.C,D22*%
X143230000Y-85660000D03*
X143230000Y-82360000D03*
%TD*%
D26*
%TO.C,C4*%
X70350000Y-87390000D03*
X70350000Y-86430000D03*
%TD*%
D27*
%TO.C,D52*%
X148715000Y-64620000D03*
D25*
X148715000Y-63520000D03*
X150545000Y-63520000D03*
X150545000Y-64620000D03*
%TD*%
D24*
%TO.C,D59*%
X169565000Y-111890000D03*
D25*
X169565000Y-112990000D03*
X167735000Y-112990000D03*
X167735000Y-111890000D03*
%TD*%
D23*
%TO.C,D28*%
X171420000Y-125290000D03*
X171420000Y-121990000D03*
%TD*%
%TO.C,D38*%
X219230000Y-85660000D03*
X219230000Y-82360000D03*
%TD*%
%TO.C,D30*%
X181230000Y-85660000D03*
X181230000Y-82360000D03*
%TD*%
D22*
%TO.C,C8*%
X61970000Y-92540000D03*
X61010000Y-92540000D03*
%TD*%
D23*
%TO.C,D2*%
X48220000Y-85670000D03*
X48220000Y-82370000D03*
%TD*%
%TO.C,D18*%
X124220000Y-85660000D03*
X124220000Y-82360000D03*
%TD*%
D44*
%TO.C,Y1*%
X76220000Y-103170000D03*
X75020000Y-103170000D03*
X73820000Y-103170000D03*
%TD*%
D23*
%TO.C,D14*%
X105220000Y-85660000D03*
X105220000Y-82360000D03*
%TD*%
%TO.C,D35*%
X200230000Y-104660000D03*
X200230000Y-101360000D03*
%TD*%
%TO.C,D3*%
X48230000Y-104660000D03*
X48230000Y-101360000D03*
%TD*%
%TO.C,D8*%
X57000000Y-123680000D03*
X57000000Y-120380000D03*
%TD*%
%TO.C,D48*%
X257220000Y-123660000D03*
X257220000Y-120360000D03*
%TD*%
%TO.C,D17*%
X124230000Y-66670000D03*
X124230000Y-63370000D03*
%TD*%
%TO.C,D11*%
X86220000Y-104650000D03*
X86220000Y-101350000D03*
%TD*%
D26*
%TO.C,C13*%
X74710000Y-84790000D03*
X74710000Y-83830000D03*
%TD*%
D45*
%TO.C,U3*%
X77860000Y-89817500D03*
X77860000Y-90217500D03*
X77860000Y-90617500D03*
X77860000Y-91017500D03*
X77860000Y-91417500D03*
X77860000Y-91817500D03*
X77860000Y-92217500D03*
X77860000Y-92617500D03*
X77860000Y-93017500D03*
X77860000Y-93417500D03*
X77860000Y-93817500D03*
X77860000Y-94217500D03*
X77860000Y-94617500D03*
X77860000Y-95017500D03*
D46*
X77022500Y-95855000D03*
X76622500Y-95855000D03*
X76222500Y-95855000D03*
X75822500Y-95855000D03*
X75422500Y-95855000D03*
X75022500Y-95855000D03*
X74622500Y-95855000D03*
X74222500Y-95855000D03*
X73822500Y-95855000D03*
X73422500Y-95855000D03*
X73022500Y-95855000D03*
X72622500Y-95855000D03*
X72222500Y-95855000D03*
X71822500Y-95855000D03*
D45*
X70985000Y-95017500D03*
X70985000Y-94617500D03*
X70985000Y-94217500D03*
X70985000Y-93817500D03*
X70985000Y-93417500D03*
X70985000Y-93017500D03*
X70985000Y-92617500D03*
X70985000Y-92217500D03*
X70985000Y-91817500D03*
X70985000Y-91417500D03*
X70985000Y-91017500D03*
X70985000Y-90617500D03*
X70985000Y-90217500D03*
X70985000Y-89817500D03*
D46*
X71822500Y-88980000D03*
X72222500Y-88980000D03*
X72622500Y-88980000D03*
X73022500Y-88980000D03*
X73422500Y-88980000D03*
X73822500Y-88980000D03*
X74222500Y-88980000D03*
X74622500Y-88980000D03*
X75022500Y-88980000D03*
X75422500Y-88980000D03*
X75822500Y-88980000D03*
X76222500Y-88980000D03*
X76622500Y-88980000D03*
X77022500Y-88980000D03*
D47*
X74422500Y-92417500D03*
%TD*%
D24*
%TO.C,D49*%
X258715000Y-92070000D03*
D25*
X258715000Y-93170000D03*
X256885000Y-93170000D03*
X256885000Y-92070000D03*
%TD*%
D27*
%TO.C,D55*%
X39045000Y-93170000D03*
D25*
X39045000Y-92070000D03*
X40875000Y-92070000D03*
X40875000Y-93170000D03*
%TD*%
D23*
%TO.C,D31*%
X181230000Y-104660000D03*
X181230000Y-101360000D03*
%TD*%
D48*
%TO.C,U5*%
X251322500Y-92060000D03*
X251322500Y-91110000D03*
X251322500Y-90160000D03*
X253597500Y-90160000D03*
X253597500Y-92060000D03*
%TD*%
D23*
%TO.C,D5*%
X67220000Y-66660000D03*
X67220000Y-63360000D03*
%TD*%
D30*
%TO.C,C3*%
X71950000Y-99490000D03*
X71950000Y-100450000D03*
%TD*%
D23*
%TO.C,D40*%
X208990000Y-123660000D03*
X208990000Y-120360000D03*
%TD*%
%TO.C,D39*%
X219220000Y-104660000D03*
X219220000Y-101360000D03*
%TD*%
%TO.C,D47*%
X257230000Y-104660000D03*
X257230000Y-101360000D03*
%TD*%
D24*
%TO.C,D60*%
X207585000Y-111910000D03*
D25*
X207585000Y-113010000D03*
X205755000Y-113010000D03*
X205755000Y-111910000D03*
%TD*%
D26*
%TO.C,C1*%
X71420000Y-86500000D03*
X71420000Y-85540000D03*
%TD*%
D23*
%TO.C,D16*%
X105230000Y-123660000D03*
X105230000Y-120360000D03*
%TD*%
D22*
%TO.C,C_LDO1*%
X70820000Y-69930000D03*
X69860000Y-69930000D03*
%TD*%
D23*
%TO.C,D37*%
X219230000Y-66660000D03*
X219230000Y-63360000D03*
%TD*%
%TO.C,D23*%
X143230000Y-104660000D03*
X143230000Y-101360000D03*
%TD*%
D43*
%TO.C,SW5*%
X84780000Y-69060000D03*
X84780000Y-75360000D03*
X88580000Y-75360000D03*
X88580000Y-69060000D03*
%TD*%
D24*
%TO.C,D57*%
X93545000Y-112420000D03*
D25*
X93545000Y-113520000D03*
X91715000Y-113520000D03*
X91715000Y-112420000D03*
%TD*%
D49*
%TO.C,F1*%
X70830000Y-66812500D03*
X70830000Y-68687500D03*
%TD*%
D23*
%TO.C,D45*%
X257230000Y-66660000D03*
X257230000Y-63360000D03*
%TD*%
M02*
