M48
; DRILL file {KiCad (6.0.7-1)-1} date 2022 December 13, Tuesday 16:34:25
; FORMAT={-:-/ absolute / inch / decimal}
; #@! TF.CreationDate,2022-12-13T16:34:25+02:00
; #@! TF.GenerationSoftware,Kicad,Pcbnew,(6.0.7-1)-1
; #@! TF.FileFunction,NonPlated,1,2,NPTH
FMAT,2
INCH
; #@! TA.AperFunction,NonPlated,NPTH,ComponentDrill
T1C0.0256
; #@! TA.AperFunction,NonPlated,NPTH,ComponentDrill
T2C0.0689
; #@! TA.AperFunction,NonPlated,NPTH,ComponentDrill
T3C0.1200
; #@! TA.AperFunction,NonPlated,NPTH,ComponentDrill
T4C0.1570
%
G90
G05
T1
X2.7848Y-2.3243
X3.0124Y-2.3243
T2
X1.5766Y-2.5246
X1.5766Y-3.2726
X1.5766Y-4.0207
X1.5766Y-4.7687
X1.7636Y-4.7687
X1.9766Y-2.5246
X1.9766Y-3.2726
X1.9766Y-4.0207
X1.9766Y-4.7687
X2.1636Y-4.7687
X2.3246Y-2.5246
X2.3246Y-3.2726
X2.3246Y-4.0207
X2.3246Y-4.7687
X2.6986Y-4.7687
X2.7246Y-2.5246
X2.7246Y-3.2726
X2.7246Y-4.0207
X2.7246Y-4.7687
X2.8856Y-4.7687
X3.0726Y-2.5246
X3.0726Y-3.2726
X3.0726Y-4.0207
X3.0726Y-4.7687
X3.0986Y-4.7687
X3.2856Y-4.7687
X3.4726Y-2.5246
X3.4726Y-3.2726
X3.4726Y-4.0207
X3.4726Y-4.7687
X3.6337Y-4.7687
X3.8207Y-2.5246
X3.8207Y-3.2726
X3.8207Y-4.0207
X3.8207Y-4.7687
X4.0337Y-4.7687
X4.2207Y-2.5246
X4.2207Y-3.2726
X4.2207Y-4.0207
X4.2207Y-4.7687
X4.5687Y-2.5246
X4.5687Y-3.2726
X4.5687Y-4.0207
X4.5687Y-4.7687
X4.5687Y-4.7687
X4.9427Y-4.7687
X4.9687Y-2.5246
X4.9687Y-3.2726
X4.9687Y-4.0207
X4.9687Y-4.7687
X4.9687Y-4.7687
X5.3167Y-2.5246
X5.3167Y-3.2726
X5.3167Y-4.0207
X5.3167Y-4.7687
X5.3427Y-4.7687
X5.6908Y-4.7687
X5.7167Y-2.5246
X5.7167Y-3.2726
X5.7167Y-4.0207
X5.7167Y-4.7687
X6.0648Y-2.5246
X6.0648Y-3.2726
X6.0648Y-4.0207
X6.0648Y-4.7687
X6.0908Y-4.7687
X6.4388Y-4.7687
X6.4648Y-2.5246
X6.4648Y-3.2726
X6.4648Y-4.0207
X6.4648Y-4.7687
X6.8128Y-2.5246
X6.8128Y-3.2726
X6.8128Y-4.0207
X6.8128Y-4.7687
X6.8128Y-4.7687
X6.8388Y-4.7687
X7.2128Y-2.5246
X7.2128Y-3.2726
X7.2128Y-4.0207
X7.2128Y-4.7687
X7.2128Y-4.7687
X7.5608Y-2.5246
X7.5608Y-3.2726
X7.5608Y-4.0207
X7.5608Y-4.7687
X7.7478Y-4.7687
X7.9608Y-2.5246
X7.9608Y-3.2726
X7.9608Y-4.0207
X7.9608Y-4.7687
X8.1478Y-4.7687
X8.3089Y-2.5246
X8.3089Y-3.2726
X8.3089Y-4.0207
X8.3089Y-4.7687
X8.4959Y-4.7687
X8.6829Y-4.7687
X8.7089Y-2.5246
X8.7089Y-3.2726
X8.7089Y-4.0207
X8.7089Y-4.7687
X8.8959Y-4.7687
X9.0569Y-2.5246
X9.0569Y-3.2726
X9.0569Y-4.0207
X9.0569Y-4.7687
X9.0829Y-4.7687
X9.4569Y-2.5246
X9.4569Y-3.2726
X9.4569Y-4.0207
X9.4569Y-4.7687
X9.6179Y-4.7687
X9.8049Y-2.5246
X9.8049Y-3.2726
X9.8049Y-4.0207
X9.8049Y-4.7687
X10.0179Y-4.7687
X10.2049Y-2.5246
X10.2049Y-3.2726
X10.2049Y-4.0207
X10.2049Y-4.7687
T3
X4.0187Y-5.0437
X4.6727Y-5.0437
X5.4208Y-5.0437
X5.5187Y-5.0437
X5.6127Y-5.0437
X6.1688Y-5.0437
X6.2628Y-5.0437
X6.3608Y-5.0437
X7.1088Y-5.0437
X7.7628Y-5.0437
T4
X1.7766Y-2.5246
X1.7766Y-3.2726
X1.7766Y-4.0207
X1.7766Y-4.7687
X1.9636Y-4.7687
X2.5246Y-2.5246
X2.5246Y-3.2726
X2.5246Y-4.0207
X2.5246Y-4.7687
X2.8986Y-4.7687
X3.0856Y-4.7687
X3.2726Y-2.5246
X3.2726Y-3.2726
X3.2726Y-4.0207
X3.2726Y-4.7687
X3.8337Y-4.7687
X4.0187Y-4.4437
X4.0207Y-2.5246
X4.0207Y-3.2726
X4.0207Y-4.0207
X4.0207Y-4.7687
X4.6727Y-4.4437
X4.7687Y-2.5246
X4.7687Y-3.2726
X4.7687Y-4.0207
X4.7687Y-4.7687
X4.7687Y-4.7687
X5.1427Y-4.7687
X5.4208Y-4.4437
X5.5167Y-2.5246
X5.5167Y-3.2726
X5.5167Y-4.0207
X5.5167Y-4.7687
X5.5187Y-4.4437
X5.6127Y-4.4437
X5.8908Y-4.7687
X6.1688Y-4.4437
X6.2628Y-4.4437
X6.2648Y-2.5246
X6.2648Y-3.2726
X6.2648Y-4.0207
X6.2648Y-4.7687
X6.3608Y-4.4437
X6.6388Y-4.7687
X7.0128Y-2.5246
X7.0128Y-3.2726
X7.0128Y-4.0207
X7.0128Y-4.7687
X7.0128Y-4.7687
X7.1088Y-4.4437
X7.7608Y-2.5246
X7.7608Y-3.2726
X7.7608Y-4.0207
X7.7608Y-4.7687
X7.7628Y-4.4437
X7.9478Y-4.7687
X8.5089Y-2.5246
X8.5089Y-3.2726
X8.5089Y-4.0207
X8.5089Y-4.7687
X8.6959Y-4.7687
X8.8829Y-4.7687
X9.2569Y-2.5246
X9.2569Y-3.2726
X9.2569Y-4.0207
X9.2569Y-4.7687
X9.8179Y-4.7687
X10.0049Y-2.5246
X10.0049Y-3.2726
X10.0049Y-4.0207
X10.0049Y-4.7687
T0
M30
