M48
; DRILL file {KiCad (6.0.7-1)-1} date 2022 December 13, Tuesday 16:34:25
; FORMAT={-:-/ absolute / inch / decimal}
; #@! TF.CreationDate,2022-12-13T16:34:25+02:00
; #@! TF.GenerationSoftware,Kicad,Pcbnew,(6.0.7-1)-1
; #@! TF.FileFunction,Plated,1,2,PTH
FMAT,2
INCH
; #@! TA.AperFunction,Plated,PTH,ViaDrill
T1C0.0138
; #@! TA.AperFunction,Plated,PTH,ComponentDrill
T2C0.0138
; #@! TA.AperFunction,Plated,PTH,ViaDrill
T3C0.0157
; #@! TA.AperFunction,Plated,PTH,ComponentDrill
T4C0.0236
; #@! TA.AperFunction,Plated,PTH,ComponentDrill
T5C0.0394
; #@! TA.AperFunction,Plated,PTH,ComponentDrill
T6C0.0579
; #@! TA.AperFunction,Plated,PTH,ComponentDrill
T7C0.0591
%
G90
G05
T1
X1.6638Y-4.1689
X1.6952Y-4.1671
X1.6988Y-3.6248
X1.9439Y-4.4084
X1.976Y-4.4071
X2.098Y-2.5933
X2.1228Y-4.1205
X2.1362Y-2.6894
X2.1559Y-4.3937
X2.1579Y-3.3823
X2.1815Y-4.5508
X2.2315Y-2.5764
X2.2343Y-4.1205
X2.237Y-4.4476
X2.2843Y-3.6469
X2.3028Y-4.411
X2.3142Y-4.4476
X2.3153Y-3.652
X2.3362Y-4.1205
X2.3375Y-4.3142
X2.3402Y-3.3429
X2.3421Y-4.2831
X2.3445Y-2.6894
X2.6465Y-3.4205
X2.711Y-2.6244
X2.8402Y-4.0457
X2.8953Y-3.5555
X2.9063Y-3.7211
X2.9465Y-4.2004
X2.9909Y-2.6244
X3.1441Y-3.5843
X3.2833Y-3.651
X3.3945Y-3.3193
X3.4146Y-3.4382
X3.4878Y-3.3618
X3.5799Y-4.5598
X3.6236Y-3.3413
X3.789Y-3.3724
X3.8394Y-3.5697
X9.3658Y-4.3574
X9.3984Y-4.3567
X9.4531Y-3.372
X9.5539Y-3.3724
X9.7024Y-2.5217
X9.828Y-3.4134
X9.8894Y-4.361
X9.8992Y-4.0917
X9.9843Y-3.5878
X10.1138Y-3.5878
T2
X2.8798Y-3.5883
X2.8798Y-3.6385
X2.8798Y-3.6887
X2.93Y-3.5883
X2.93Y-3.6385
X2.93Y-3.6887
X2.9802Y-3.5883
X2.9802Y-3.6385
X2.9802Y-3.6887
T3
X1.5705Y-3.785
X1.5709Y-4.5343
X1.613Y-4.9476
X1.7122Y-4.3024
X1.7728Y-4.4469
X1.9673Y-4.6343
X2.1165Y-2.4295
X2.152Y-3.9748
X2.1594Y-4.3213
X2.165Y-4.8705
X2.172Y-2.7925
X2.2213Y-4.1965
X2.2437Y-4.6642
X2.3201Y-3.7209
X2.3429Y-3.6039
X2.4087Y-3.6055
X2.5016Y-4.622
X2.502Y-2.3327
X2.526Y-3.8606
X2.6244Y-3.4728
X2.6591Y-2.9539
X2.7433Y-3.878
X2.7882Y-3.9343
X2.798Y-2.4409
X2.811Y-3.324
X2.8209Y-2.974
X2.8488Y-2.4886
X2.861Y-3.8701
X2.9081Y-3.875
X2.9219Y-3.4066
X2.9283Y-3.252
X2.9665Y-3.9878
X2.9689Y-3.3862
X2.9831Y-3.8705
X3.002Y-2.5453
X3.0315Y-3.963
X3.1709Y-3.4945
X3.2437Y-4.3402
X3.2657Y-3.9012
X3.285Y-4.6366
X3.5555Y-3.0276
X3.6094Y-2.4449
X3.6799Y-2.3012
X3.6933Y-3.9732
X3.6988Y-3.2157
X4.0189Y-2.328
X4.0197Y-3.8547
X4.0323Y-4.615
X4.176Y-3.4803
X4.3122Y-3.8642
X4.3496Y-2.3996
X4.4311Y-4.9559
X5.0323Y-4.3492
X5.1882Y-2.3673
X5.2949Y-4.4535
X5.5209Y-4.6197
X5.8409Y-2.4457
X5.8575Y-4.985
X5.8886Y-2.3012
X6.25Y-2.3125
X6.2677Y-4.5823
X6.5571Y-4.3319
X6.6146Y-2.3839
X7.3315Y-2.3807
X7.461Y-4.5098
X7.9551Y-4.628
X7.9894Y-2.4165
X8.0331Y-4.339
X8.0854Y-2.4335
X8.1516Y-2.2764
X8.2772Y-4.4894
X8.3835Y-4.8146
X8.4835Y-2.3717
X8.8626Y-3.7929
X8.952Y-2.3335
X9.2516Y-4.628
X9.4575Y-2.4067
X9.5878Y-2.4425
X9.6803Y-2.3457
X9.7575Y-2.976
X9.7665Y-3.1925
X9.7736Y-4.5583
X9.7772Y-3.6937
X9.9043Y-3.4823
X9.9094Y-3.724
X10.0043Y-2.3244
X10.0138Y-4.6047
T5
X1.6782Y-2.2503
X1.6782Y-2.8212
X1.6782Y-4.4934
X1.6782Y-5.0643
X1.7766Y-2.8212
X1.7766Y-5.0643
X1.875Y-2.2503
X1.875Y-2.8212
X1.875Y-4.4934
X1.875Y-5.0643
X9.9065Y-2.2484
X9.9065Y-2.8192
X9.9065Y-4.4934
X9.9065Y-5.0643
X10.0049Y-2.8192
X10.0049Y-5.0643
X10.1034Y-2.2484
X10.1034Y-2.8192
X10.1034Y-4.4934
X10.1034Y-5.0643
T6
X1.6266Y-2.4246
X1.6266Y-3.1726
X1.6266Y-3.9207
X1.6266Y-4.6687
X1.6782Y-2.3671
X1.6782Y-3.1152
X1.6782Y-3.8632
X1.6782Y-4.6112
X1.8136Y-4.6687
X1.8652Y-4.6112
X1.875Y-2.3474
X1.875Y-3.0955
X1.875Y-3.8435
X1.875Y-4.5915
X1.8766Y-2.3246
X1.8766Y-3.0726
X1.8766Y-3.8207
X1.8766Y-4.5687
X2.062Y-4.5915
X2.0636Y-4.5687
X2.3746Y-2.4246
X2.3746Y-3.1726
X2.3746Y-3.9207
X2.3746Y-4.6687
X2.4262Y-2.3671
X2.4262Y-3.1152
X2.4262Y-3.8632
X2.4262Y-4.6112
X2.623Y-2.3474
X2.623Y-3.0955
X2.623Y-3.8435
X2.623Y-4.5915
X2.6246Y-2.3246
X2.6246Y-3.0726
X2.6246Y-3.8207
X2.6246Y-4.5687
X2.7486Y-4.6687
X2.8002Y-4.6112
X2.9356Y-4.6687
X2.9872Y-4.6112
X2.997Y-4.5915
X2.9986Y-4.5687
X3.1226Y-2.4246
X3.1226Y-3.1726
X3.1226Y-3.9207
X3.1226Y-4.6687
X3.1742Y-2.3671
X3.1742Y-3.1152
X3.1742Y-3.8632
X3.1742Y-4.6112
X3.1841Y-4.5915
X3.1856Y-4.5687
X3.3711Y-2.3474
X3.3711Y-3.0955
X3.3711Y-3.8435
X3.3711Y-4.5915
X3.3726Y-2.3246
X3.3726Y-3.0726
X3.3726Y-3.8207
X3.3726Y-4.5687
X3.6837Y-4.6687
X3.7352Y-4.6112
X3.8707Y-2.4246
X3.8707Y-3.1726
X3.8707Y-3.9207
X3.8707Y-4.6687
X3.9222Y-2.3671
X3.9222Y-3.1152
X3.9222Y-3.8632
X3.9222Y-4.6112
X3.9321Y-4.5915
X3.9337Y-4.5687
X4.1191Y-2.3474
X4.1191Y-3.0955
X4.1191Y-3.8435
X4.1191Y-4.5915
X4.1207Y-2.3246
X4.1207Y-3.0726
X4.1207Y-3.8207
X4.1207Y-4.5687
X4.6187Y-2.4246
X4.6187Y-3.1726
X4.6187Y-3.9207
X4.6187Y-4.6687
X4.6187Y-4.6687
X4.6703Y-2.3671
X4.6703Y-3.1152
X4.6703Y-3.8632
X4.6703Y-4.6112
X4.8671Y-2.3474
X4.8671Y-3.0955
X4.8671Y-3.8435
X4.8671Y-4.5915
X4.8687Y-2.3246
X4.8687Y-3.0726
X4.8687Y-3.8207
X4.8687Y-4.5687
X4.8687Y-4.5687
X4.9927Y-4.6687
X5.0443Y-4.6112
X5.2411Y-4.5915
X5.2427Y-4.5687
X5.3667Y-2.4246
X5.3667Y-3.1726
X5.3667Y-3.9207
X5.3667Y-4.6687
X5.4183Y-2.3671
X5.4183Y-3.1152
X5.4183Y-3.8632
X5.4183Y-4.6112
X5.6152Y-2.3474
X5.6152Y-3.0955
X5.6152Y-3.8435
X5.6152Y-4.5915
X5.6167Y-2.3246
X5.6167Y-3.0726
X5.6167Y-3.8207
X5.6167Y-4.5687
X5.7408Y-4.6687
X5.7923Y-4.6112
X5.9892Y-4.5915
X5.9908Y-4.5687
X6.1148Y-2.4246
X6.1148Y-3.1726
X6.1148Y-3.9207
X6.1148Y-4.6687
X6.1663Y-2.3671
X6.1663Y-3.1152
X6.1663Y-3.8632
X6.1663Y-4.6112
X6.3632Y-2.3474
X6.3632Y-3.0955
X6.3632Y-3.8435
X6.3632Y-4.5915
X6.3648Y-2.3246
X6.3648Y-3.0726
X6.3648Y-3.8207
X6.3648Y-4.5687
X6.4888Y-4.6687
X6.5404Y-4.6112
X6.7372Y-4.5915
X6.7388Y-4.5687
X6.8628Y-2.4246
X6.8628Y-3.1726
X6.8628Y-3.9207
X6.8628Y-4.6687
X6.8628Y-4.6687
X6.9144Y-2.3671
X6.9144Y-3.1152
X6.9144Y-3.8632
X6.9144Y-4.6112
X7.1112Y-2.3474
X7.1112Y-3.0955
X7.1112Y-3.8435
X7.1112Y-4.5915
X7.1128Y-2.3246
X7.1128Y-3.0726
X7.1128Y-3.8207
X7.1128Y-4.5687
X7.1128Y-4.5687
X7.6108Y-2.4246
X7.6108Y-3.1726
X7.6108Y-3.9207
X7.6108Y-4.6687
X7.6624Y-2.3671
X7.6624Y-3.1152
X7.6624Y-3.8632
X7.6624Y-4.6112
X7.7978Y-4.6687
X7.8494Y-4.6112
X7.8593Y-2.3474
X7.8593Y-3.0955
X7.8593Y-3.8435
X7.8593Y-4.5915
X7.8608Y-2.3246
X7.8608Y-3.0726
X7.8608Y-3.8207
X7.8608Y-4.5687
X8.0463Y-4.5915
X8.0478Y-4.5687
X8.3589Y-2.4246
X8.3589Y-3.1726
X8.3589Y-3.9207
X8.3589Y-4.6687
X8.4104Y-2.3671
X8.4104Y-3.1152
X8.4104Y-3.8632
X8.4104Y-4.6112
X8.5459Y-4.6687
X8.5974Y-4.6112
X8.6073Y-2.3474
X8.6073Y-3.0955
X8.6073Y-3.8435
X8.6073Y-4.5915
X8.6089Y-2.3246
X8.6089Y-3.0726
X8.6089Y-3.8207
X8.6089Y-4.5687
X8.7329Y-4.6687
X8.7845Y-4.6112
X8.7943Y-4.5915
X8.7959Y-4.5687
X8.9813Y-4.5915
X8.9829Y-4.5687
X9.1069Y-2.4246
X9.1069Y-3.1726
X9.1069Y-3.9207
X9.1069Y-4.6687
X9.1585Y-2.3671
X9.1585Y-3.1152
X9.1585Y-3.8632
X9.1585Y-4.6112
X9.3553Y-2.3474
X9.3553Y-3.0955
X9.3553Y-3.8435
X9.3553Y-4.5915
X9.3569Y-2.3246
X9.3569Y-3.0726
X9.3569Y-3.8207
X9.3569Y-4.5687
X9.6679Y-4.6687
X9.7195Y-4.6112
X9.8549Y-2.4246
X9.8549Y-3.1726
X9.8549Y-3.9207
X9.8549Y-4.6687
X9.9065Y-2.3671
X9.9065Y-3.1152
X9.9065Y-3.8632
X9.9065Y-4.6112
X9.9163Y-4.5915
X9.9179Y-4.5687
X10.1034Y-2.3474
X10.1034Y-3.0955
X10.1034Y-3.8435
X10.1034Y-4.5915
X10.1049Y-2.3246
X10.1049Y-3.0726
X10.1049Y-3.8207
X10.1049Y-4.5687
T4
G00X2.7285Y-2.1688
M15
G01X2.7285Y-2.1924
M16
G05
G00X2.7285Y-2.3235
M15
G01X2.7285Y-2.3668
M16
G05
G00X3.0687Y-2.1688
M15
G01X3.0687Y-2.1924
M16
G05
G00X3.0687Y-2.3235
M15
G01X3.0687Y-2.3668
M16
G05
T7
G00X1.5561Y-2.5515
M15
G01X1.5561Y-2.5003
M16
G05
G00X1.5561Y-4.7946
M15
G01X1.5561Y-4.7434
M16
G05
G00X1.997Y-2.5515
M15
G01X1.997Y-2.5003
M16
G05
G00X1.997Y-4.7946
M15
G01X1.997Y-4.7434
M16
G05
G00X9.7845Y-2.5495
M15
G01X9.7845Y-2.4984
M16
G05
G00X9.7845Y-4.7946
M15
G01X9.7845Y-4.7434
M16
G05
G00X10.2254Y-2.5495
M15
G01X10.2254Y-2.4984
M16
G05
G00X10.2254Y-4.7946
M15
G01X10.2254Y-4.7434
M16
G05
T0
M30
